SplineFontDB: 1.0
FontName: DBThaiText-Oblique
FullName: DBThaiText Oblique
FamilyName: DBThaiText
Weight: Medium
Copyright: Typeface (c) The Monotype Corporation plc. Data (c) The Monotype Corporation plc/Type Solutions Inc. 1990-1992. All Rights Reserved\n\nModified by TLWG
Version: 1.1 : May 12, 2003
ItalicAngle: -18
UnderlinePosition: -477
UnderlineWidth: 205
Ascent: 1638
Descent: 410
NeedsXUIDChange: 1
FSType: 0
PfmFamily: 33
TTFWeight: 500
TTFWidth: 5
Panose: 2 0 6 3 0 0 0 0 0 0
LineGap: 184
VLineGap: 0
ScriptLang: 2
 1 latn 1 dflt 
 1 thai 1 dflt 
LangName: 1033 "" "" "" "PfaEdit : DBThaiTextOblique : 13-0-2003" 
Encoding: compacted
OldEncoding: iso8859_1
UnicodeInterp: none
DisplaySize: -72
AntiAlias: 1
FitToEm: 1
WinInfo: 280 8 2
BeginPrivate: 2
BlueValues 37 [-33 9 0 0 744 782 786 804 1010 1029]
OtherBlues 11 [-272 -270]
EndPrivate
BeginChars: 292 257
StartChar: .notdef
Encoding: 0 -1 0
OldEncoding: 0
Width: 1090
Flags: HW
HStem: 1745 144<235 797>
VStem: 77 146<104 1738> 801 146<104 1738>
Fore
77 -55 m 1
 77 1889 l 1
 947 1889 l 1
 947 -55 l 1
 77 -55 l 1
223 89 m 1
 801 89 l 1
 801 1745 l 1
 223 1745 l 1
 223 89 l 1
EndSplineSet
MinimumDistance: x2,-1 
EndChar
StartChar: exclam
Encoding: 33 33 3
OldEncoding: 33
Width: 359
Flags: HW
HStem: -1 21G<-17.5449 98.8447> 990 20G<311.285 426.545>
DStem: 26.5254 142.335 145.175 142.335 -17.5449 -1.1748 98.8447 -1.1748 311.285 1010.17 426.545 1010.17 149.695 512.975 264.955 512.975
Fore
145 230 m 1
 86 230 l 1
 150 513 l 1
 311 1010 l 1
 427 1010 l 1
 265 513 l 1
 145 230 l 1
27 142 m 1
 145 142 l 1
 99 -1 l 1
 -18 -1 l 1
 27 142 l 1
EndSplineSet
EndChar
StartChar: quotedbl
Encoding: 34 34 4
OldEncoding: 34
Width: 463
Flags: W
HStem: 991 20G<225.074 343.074 442.074 560.074>
DStem: 225.074 1011 343.074 1011 174.062 854 292.062 854 442.074 1011 560.074 1011 391.062 854 509.062 854
Fore
144.926 672 m 5
 174.062 854 l 5
 225.074 1011 l 5
 343.074 1011 l 5
 292.062 854 l 5
 201.926 672 l 5
 144.926 672 l 5
361.926 672 m 5
 391.062 854 l 5
 442.074 1011 l 5
 560.074 1011 l 5
 509.062 854 l 5
 418.926 672 l 5
 361.926 672 l 5
EndSplineSet
EndChar
StartChar: numbersign
Encoding: 35 35 5
OldEncoding: 35
Width: 728
Flags: HW
HStem: -25 21G<-100.22 3.74023 180.02 283.98> 266 112<-58 44 212 321 490 593> 590 111<99 211 378 476 666 743>
DStem: 45.5498 266.145 154.03 266.145 -100.22 -25.3945 3.74023 -25.3945 211.66 590.455 319.01 590.455 103.18 378.015 211.66 378.015 325.79 266.145 432.01 266.145 180.02 -25.3945 283.98 -25.3945 403.76 972.395 511.11 972.395 264.77 701.195 372.12 701.195 487.38 590.455 595.86 590.455 383.42 378.015 489.64 378.015 681.74 972.395 790.22 972.395 545.01 701.195 653.49 701.195
Fore
404 972 m 1
 511 972 l 1
 372 701 l 1
 545 701 l 1
 682 972 l 1
 790 972 l 1
 653 701 l 1
 781 701 l 1
 744 590 l 1
 596 590 l 1
 490 378 l 1
 631 378 l 1
 594 266 l 1
 432 266 l 1
 284 -25 l 1
 180 -25 l 1
 326 266 l 1
 154 266 l 1
 4 -25 l 1
 -100 -25 l 1
 46 266 l 1
 -93 266 l 1
 -56 378 l 1
 103 378 l 1
 212 590 l 1
 64 590 l 1
 101 701 l 1
 265 701 l 1
 404 972 l 1
319 590 m 1
 212 378 l 1
 383 378 l 1
 487 590 l 1
 319 590 l 1
EndSplineSet
EndChar
StartChar: dollar
Encoding: 36 36 6
OldEncoding: 36
Width: 728
Flags: HW
HStem: 899 175<523.363 543.43>
VStem: -77 119<160.33 186.32> 504 130<323.05 371.64>
DStem: 136.86 -27.25 222.74 -24.9902 90.5303 -168.5 176.41 -168.5 291.67 447.35 370.77 433.79 168.5 69.9297 252.12 72.1904 439.7 901.61 523.32 899.35 331.22 570.52 411.45 558.09
Fore
734 728 m 1
 625 728 l 1
 631 751 634 772 634 792 c 0
 634 812 630 830 623 845 c 0
 608 881 575 899 523 899 c 1
 411 558 l 1
 480 537 528 519 555 503 c 1
 587 488 610 462 625 425 c 0
 631 410 634 392 634 372 c 0
 634 337 628 302 616 267 c 0
 592 195 549 134 486 82 c 0
 424 30 362 -1 301 -10 c 2
 223 -25 l 1
 176 -168 l 1
 91 -168 l 1
 137 -27 l 1
 81 -14 39 -3 11 8 c 0
 -20 21 -45 50 -64 96 c 0
 -73 115 -77 136 -77 160 c 0
 -77 195 -67 240 -48 295 c 1
 56 295 l 1
 46 253 42 219 42 193 c 2
 42 186 l 2
 42 164 50 141 67 119 c 1
 86 99 120 83 168 70 c 1
 292 447 l 1
 223 473 l 2
 193 484 168 495 150 507 c 0
 131 519 116 534 106 551 c 0
 97 570 93 593 93 619 c 0
 93 653 101 697 118 750 c 1
 155 832 205 892 266 931 c 0
 328 970 397 994 472 1001 c 1
 495 1074 l 1
 579 1074 l 1
 555 1001 l 1
 631 994 687 969 722 926 c 0
 743 904 753 875 753 841 c 2
 753 834 l 1
 749 789 743 754 734 728 c 1
331 571 m 1
 440 902 l 1
 398 899 357 886 317 861 c 0
 315 859 314 858 312 858 c 0
 271 827 243 793 227 754 c 0
 219 731 215 710 215 690 c 0
 215 666 220 647 232 633 c 1
 250 600 283 580 331 571 c 1
371 434 m 1
 252 72 l 1
 272 74 300 81 333 94 c 0
 364 103 395 123 426 151 c 0
 457 181 480 219 495 264 c 0
 501 283 504 303 504 323 c 0
 504 345 497 363 484 378 c 1
 457 400 419 418 371 434 c 1
EndSplineSet
MinimumDistance: x2,-1 
EndChar
StartChar: percent
Encoding: 37 37 7
OldEncoding: 37
Width: 1162
Flags: HW
HStem: -26 97<719 753.505> 351 97<843.905 876.675> 479 97<206 239.355> 856 97<329.755 362.525>
VStem: 34 102<641 673.295> 548 102<138.805 168.185> 943 104<256.325 286.835>
DStem: 941.085 985.175 1033.75 985.175 61.9453 -26.1748 156.865 -26.1748
Fore
941 985 m 1
 1034 985 l 1
 157 -26 l 1
 62 -26 l 1
 941 985 l 1
45 715 m 1
 66 781 108 837 170 883 c 0
 233 930 297 953 363 953 c 0
 429 953 477 930 508 883 c 1
 527 858 537 827 537 791 c 0
 537 770 532 744 522 715 c 0
 502 650 460 595 398 548 c 0
 335 502 272 479 208 479 c 0
 144 479 96 502 64 548 c 0
 44 575 34 607 34 643 c 0
 34 662 37 686 45 715 c 1
559 212 m 0
 579 276 621 331 687 379 c 1
 746 425 810 448 877 448 c 0
 917 448 954 438 985 417 c 0
 1015 396 1034 367 1041 331 c 1
 1045 317 1047 303 1047 287 c 0
 1047 263 1043 238 1034 212 c 0
 1012 144 971 88 911 44 c 0
 848 -3 785 -26 721 -26 c 0
 657 -26 608 -3 575 44 c 0
 557 71 548 103 548 139 c 0
 548 160 552 184 559 212 c 0
142 715 m 1
 138 698 136 684 136 673 c 0
 136 653 142 634 155 618 c 1
 173 590 201 576 239 576 c 0
 279 576 317 590 353 618 c 0
 390 644 413 676 425 715 c 0
 429 731 431 746 431 759 c 1
 429 786 l 1
 422 809 410 826 395 837 c 0
 378 850 356 856 330 856 c 0
 293 856 256 843 219 817 c 1
 181 786 156 752 142 715 c 1
656 212 m 0
 652 196 650 182 650 168 c 0
 650 149 656 131 668 113 c 0
 687 85 716 71 754 71 c 0
 790 71 827 85 864 113 c 1
 900 138 925 171 937 212 c 0
 941 229 943 244 943 256 c 0
 943 276 939 294 930 309 c 1
 909 337 880 351 844 351 c 0
 806 351 769 337 733 309 c 0
 695 282 669 249 656 212 c 0
EndSplineSet
MinimumDistance: x19,-1 
EndChar
StartChar: ampersand
Encoding: 38 38 8
OldEncoding: 38
Width: 881
Flags: HW
HStem: -31 112<140.99 196.36> 2 21G<531.97 682.26> 890 97<504 543.27>
VStem: -65 129<147.975 207.865> 594 119<814 816 832 844.345>
DStem: 309.36 467.765 430.27 527.655 441.57 189.785 538.75 302.785
Fore
682 2 m 1
 532 2 l 1
 479 104 l 1
 437 77 l 1
 422 64 402 51 377 37 c 0
 359 26 336 14 307 -0 c 1
 245 -20 189 -31 141 -31 c 0
 85 -31 40 -18 4 7 c 0
 -42 41 -65 88 -65 148 c 0
 -65 177 -61 204 -53 227 c 0
 -36 290 -7 343 35 386 c 1
 71 429 120 466 183 499 c 2
 271 548 l 1
 245 616 l 1
 231 643 225 671 225 701 c 0
 225 721 228 744 236 771 c 0
 260 846 312 905 393 949 c 0
 441 975 491 987 543 987 c 0
 605 987 651 968 682 928 c 0
 703 900 713 867 713 830 c 0
 713 810 710 791 704 773 c 0
 692 734 668 697 631 662 c 1
 593 621 555 592 518 574 c 2
 430 528 l 1
 539 303 l 1
 588 364 620 418 636 466 c 1
 747 466 l 1
 736 431 714 388 680 338 c 0
 644 284 611 243 581 212 c 1
 682 2 l 1
592 833 m 1
 592 852 584 866 569 875 c 0
 553 885 532 890 506 890 c 0
 476 890 449 883 426 868 c 0
 400 852 379 830 362 801 c 1
 352 770 347 745 347 724 c 1
 349 706 l 1
 353 690 367 659 393 614 c 1
 431 626 468 645 506 671 c 0
 549 699 576 733 587 773 c 0
 592 786 594 801 594 817 c 1
 592 833 l 1
442 190 m 1
 309 468 l 1
 249 435 l 2
 224 421 200 405 178 389 c 0
 160 374 138 351 113 320 c 1
 91 290 75 259 64 229 c 1
 64 208 l 2
 64 181 72 156 88 132 c 1
 107 98 144 81 196 81 c 0
 230 81 265 88 300 102 c 0
 329 111 376 141 442 190 c 1
EndSplineSet
MinimumDistance: x19,-1 
EndChar
StartChar: quotesingle
Encoding: 39 39 9
OldEncoding: 39
Width: 249
Flags: W
HStem: 991 20G<225.074 343.074>
DStem: 225.074 1011 343.074 1011 174.062 854 292.062 854
Fore
144.926 672 m 5
 174.062 854 l 5
 225.074 1011 l 5
 343.074 1011 l 5
 292.062 854 l 5
 201.926 672 l 5
 144.926 672 l 5
EndSplineSet
EndChar
StartChar: parenleft
Encoding: 40 40 10
OldEncoding: 40
Width: 423
Flags: HW
HStem: 1007 20G<500.27 579.37>
Fore
500 1027 m 1
 579 1027 l 1
 472 909 387 797 325 689 c 0
 260 576 212 471 182 374 c 0
 150 276 130 172 123 62 c 1
 118 -17 l 1
 118 -102 131 -190 156 -280 c 1
 77 -280 l 1
 61 -240 47 -192 36 -137 c 1
 25 -95 19 -40 17 29 c 1
 17 55 l 2
 17 103 20 154 28 208 c 0
 35 261 47 317 65 374 c 0
 92 453 127 530 169 606 c 0
 211 684 263 761 325 835 c 1
 380 906 438 970 500 1027 c 1
EndSplineSet
EndChar
StartChar: parenright
Encoding: 41 41 11
OldEncoding: 41
Width: 447
Flags: HW
HStem: 1007 20G<252.445 328.155>
Fore
252 1027 m 1
 328 1027 l 1
 355 968 372 904 381 835 c 0
 387 796 390 749 390 694 c 1
 386 603 l 1
 378 518 364 442 342 374 c 0
 317 300 282 224 238 146 c 0
 196 69 145 -7 83 -84 c 0
 17 -166 -42 -232 -96 -280 c 1
 -171 -280 l 1
 -98 -203 -36 -124 16 -44 c 1
 70 32 113 106 147 177 c 0
 182 250 208 315 226 374 c 0
 243 425 255 472 264 518 c 0
 273 567 280 619 284 674 c 1
 286 740 l 1
 282 851 l 1
 277 918 268 977 252 1027 c 1
EndSplineSet
EndChar
StartChar: asterisk
Encoding: 42 42 12
OldEncoding: 42
Width: 508
Flags: HW
DStem: 163.355 763.01 211.945 718.94 28.8848 639.84 79.7354 591.25 211.945 718.94 286.525 763.01 256.015 588.99 337.375 637.58 256.015 989.01 339.635 989.01 209.685 834.2 286.525 834.2
Fore
29 807 m 1
 82 887 l 1
 210 834 l 1
 256 989 l 1
 340 989 l 1
 287 834 l 1
 446 885 l 1
 448 799 l 1
 287 763 l 1
 337 638 l 1
 256 589 l 1
 212 719 l 1
 80 591 l 1
 29 640 l 1
 163 763 l 1
 29 807 l 1
EndSplineSet
MinimumDistance: x4,-1 
EndChar
StartChar: plus
Encoding: 43 43 13
OldEncoding: 43
Width: 762
Flags: HW
HStem: 450 97<91 332 490 728>
DStem: 346.655 450.41 441.575 450.41 251.735 163.39 348.915 163.39 469.825 834.61 567.005 834.61 379.425 547.59 474.345 547.59
Fore
470 835 m 5
 567 835 l 5
 474 547 l 5
 761 547 l 5
 729 450 l 5
 442 450 l 5
 349 163 l 5
 252 163 l 5
 347 450 l 5
 60 450 l 5
 92 547 l 5
 379 547 l 5
 470 835 l 5
EndSplineSet
MinimumDistance: x1,-1 
EndChar
StartChar: comma
Encoding: 44 44 14
OldEncoding: 44
Width: 366
Flags: HW
Fore
129 73 m 4
 111 9 77 -40 28 -76 c 4
 -19 -109 -67 -129 -116 -135 c 5
 -134 -135 -143 -132 -143 -126 c 6
 -143 -124 l 5
 -132 -112 l 5
 -113 -106 -84 -93 -44 -73 c 4
 -9 -54 15 -30 28 -1 c 5
 9 -5 l 5
 -19 -10 l 5
 -63 -5 -85 15 -85 50 c 4
 -85 60 -83 72 -79 87 c 4
 -70 114 -54 137 -32 156 c 4
 -9 175 18 184 49 184 c 4
 108 184 137 161 137 114 c 4
 137 106 134 92 129 73 c 4
EndSplineSet
EndChar
StartChar: hyphen
Encoding: 45 45 15
OldEncoding: 45
Width: 435
Flags: HW
HStem: 346 102<54 351>
Fore
383 448 m 1
 351 346 l 1
 22 346 l 1
 55 448 l 1
 383 448 l 1
EndSplineSet
EndChar
StartChar: period
Encoding: 46 46 16
OldEncoding: 46
Width: 366
Flags: HW
Fore
-80 72 m 5
 -72 97 -54 120 -27 142 c 4
 -3 162 23 171 51 171 c 4
 69 171 83 167 95 158 c 4
 108 147 117 135 121 121 c 5
 123 100 l 5
 119 72 l 5
 107 45 90 22 68 3 c 4
 43 -17 16 -27 -14 -27 c 4
 -43 -27 -63 -17 -74 3 c 4
 -82 17 -86 30 -86 43 c 5
 -80 72 l 5
EndSplineSet
EndChar
StartChar: slash
Encoding: 47 47 17
OldEncoding: 47
Width: 364
Flags: HW
HStem: -28 21G<-198.25 -121.41>
DStem: 459.41 985.305 536.25 985.305 -198.25 -28.3047 -121.41 -28.3047
Fore
-198 -28 m 1
 459 985 l 1
 536 985 l 1
 -121 -28 l 1
 -198 -28 l 1
EndSplineSet
EndChar
StartChar: zero
Encoding: 48 48 18
OldEncoding: 48
Width: 861
Flags: HW
HStem: -29 116<216.895 254.758> 885 119<515.742 552.253>
Fore
217 -29 m 0
 166 -29 122 -17 87 7 c 0
 50 31 25 69 11 121 c 0
 6 142 3 166 3 192 c 0
 3 222 6 255 11 292 c 0
 19 345 35 410 59 488 c 0
 76 543 102 609 138 686 c 0
 176 763 213 821 249 860 c 0
 286 902 336 938 399 968 c 0
 450 992 501 1004 552 1004 c 0
 605 1004 650 992 687 968 c 1
 724 942 748 906 759 860 c 0
 765 838 767 812 767 782 c 0
 767 703 748 606 709 488 c 0
 660 332 596 209 518 121 c 1
 466 66 418 28 375 7 c 0
 320 -17 267 -29 217 -29 c 0
255 87 m 0
 324 87 389 121 449 190 c 1
 494 256 l 1
 509 286 526 322 543 364 c 0
 553 385 568 425 590 486 c 1
 624 607 l 1
 640 716 l 1
 643 752 l 1
 640 782 l 1
 627 850 585 885 516 885 c 0
 482 885 449 877 416 860 c 0
 380 842 348 816 320 782 c 0
 306 767 282 726 247 657 c 0
 218 598 195 541 178 486 c 0
 166 454 152 397 136 314 c 1
 129 264 125 232 125 221 c 1
 128 190 l 1
 137 155 152 131 175 115 c 0
 201 96 228 87 255 87 c 0
EndSplineSet
EndChar
StartChar: one
Encoding: 49 49 19
OldEncoding: 49
Width: 861
Flags: HW
HStem: -0 25G<195.157 314.155>
DStem: 324.845 598.825 502.255 844.035 132.745 8.96484 232.185 8.96484
Fore
314 -0 m 1
 195 -0 l 1
 425 706 l 1
 198 706 l 1
 228 803 l 1
 296 810 350 820 389 833 c 0
 424 846 450 862 468 883 c 0
 488 903 517 942 555 999 c 1
 637 999 l 1
 314 -0 l 1
EndSplineSet
MinimumDistance: x8,-1 
EndChar
StartChar: two
Encoding: 50 50 20
OldEncoding: 50
Width: 861
Flags: HW
HStem: -0 25G<-106.662 561.349> 891 108<530.247 591.098>
Fore
503 410 m 2
 308 324 l 1
 263 301 217 272 171 238 c 0
 113 196 78 156 65 116 c 1
 597 116 l 1
 561 -0 l 1
 -107 -0 l 5
 -66 89 -38 148 -21 177 c 0
 0 211 35 250 84 293 c 0
 136 339 205 382 290 420 c 1
 469 507 l 2
 571 557 636 618 663 692 c 0
 673 722 678 745 678 761 c 0
 678 774 675 788 671 803 c 0
 659 835 642 857 619 869 c 0
 592 884 563 891 530 891 c 0
 458 888 400 866 356 825 c 0
 312 784 276 727 248 653 c 1
 126 653 l 1
 150 711 178 766 208 819 c 0
 233 862 275 900 334 933 c 0
 380 960 421 978 456 986 c 0
 495 995 540 999 591 999 c 0
 675 996 734 974 768 930 c 0
 796 896 810 854 810 803 c 1
 807 764 l 1
 804 732 800 711 797 700 c 0
 777 640 738 584 680 531 c 0
 618 475 559 434 503 410 c 2
EndSplineSet
EndChar
StartChar: three
Encoding: 51 51 21
OldEncoding: 51
Width: 861
Flags: HW
HStem: -29 114<196.641 214.592> 893 111<487.435 538.724>
VStem: -32 119<174.767 199.897> 533 134<354.269 392.443>
Fore
-17 295 m 1
 105 295 l 1
 94 242 l 1
 87 200 l 1
 87 188 88 179 91 173 c 1
 94 148 105 129 124 115 c 1
 144 94 174 85 213 85 c 0
 373 82 477 152 525 295 c 1
 531 319 533 340 533 356 c 0
 533 388 525 411 509 425 c 0
 480 451 431 464 362 464 c 1
 306 461 l 1
 343 570 l 1
 429 572 495 583 541 602 c 1
 586 624 618 668 639 736 c 1
 644 760 647 781 647 797 c 0
 647 828 638 850 620 863 c 0
 590 883 546 893 489 893 c 1
 443 884 406 872 379 858 c 0
 353 842 330 824 309 802 c 1
 290 775 277 752 271 733 c 0
 267 721 260 703 248 680 c 1
 134 683 l 1
 168 784 219 863 287 921 c 0
 356 976 440 1004 539 1004 c 0
 595 1004 645 994 689 974 c 0
 728 955 754 923 769 879 c 0
 776 862 779 843 779 821 c 0
 779 787 773 753 760 718 c 0
 743 668 720 630 692 605 c 0
 657 575 619 548 578 522 c 1
 627 497 655 465 663 428 c 0
 666 420 667 409 667 392 c 0
 667 361 660 324 647 282 c 0
 630 223 596 167 544 113 c 0
 494 58 432 21 359 -1 c 0
 307 -17 259 -27 216 -29 c 1
 171 -29 142 -26 126 -20 c 1
 47 -4 -1 32 -17 87 c 0
 -27 118 -32 148 -32 176 c 0
 -32 204 -27 244 -17 295 c 1
EndSplineSet
MinimumDistance: x32,-1 
EndChar
StartChar: four
Encoding: 52 52 22
OldEncoding: 52
Width: 861
Flags: HW
HStem: -0 25G<314.478 430.771> 235 116<111.234 381.684 551.612 654.527>
DStem: 288.38 205.585 385.56 205.585 222.84 8.96484 320.02 8.96484 440.93 677.925 591.22 844.035 317.76 302.765 414.94 302.765 514.38 844.035 440.93 677.925 -38.1904 316.325 49.9502 302.765
Fore
393 235 m 1
 -40 235 l 1
 2 368 l 1
 663 999 l 1
 755 999 l 1
 544 351 l 1
 692 351 l 1
 655 235 l 1
 509 235 l 1
 431 -0 l 1
 314 -0 l 1
 393 235 l 1
428 351 m 1
 575 800 l 1
 108 351 l 1
 428 351 l 1
EndSplineSet
MinimumDistance: x4,-1 
EndChar
StartChar: five
Encoding: 53 53 23
OldEncoding: 53
Width: 861
Flags: HW
HStem: 547 116<393.16 442.726> 882 122<377.603 796.441>
VStem: 536 153<406.922 455.998>
DStem: 232.46 845.66 283.31 743.96 16.6299 390.27 171.44 512.31
Fore
176 459 m 1
 60 459 l 1
 318 1004 l 1
 836 1004 l 1
 797 882 l 1
 379 882 l 1
 245 605 l 1
 303 644 369 663 443 663 c 0
 489 663 531 656 570 641 c 1
 649 605 689 543 689 456 c 0
 689 416 681 370 664 317 c 1
 635 248 596 186 548 131 c 1
 498 78 445 40 390 15 c 0
 358 1 304 -14 229 -29 c 1
 182 -29 138 -24 97 -12 c 0
 53 2 21 23 -1 52 c 1
 -24 79 -37 103 -40 123 c 1
 -43 171 l 1
 -43 198 l 1
 -37 248 l 1
 91 248 l 1
 94 204 104 168 121 137 c 1
 143 105 190 90 263 90 c 1
 385 105 468 168 512 279 c 0
 528 324 536 367 536 409 c 0
 536 439 531 464 520 483 c 0
 495 525 454 547 395 547 c 0
 321 547 248 517 176 459 c 1
EndSplineSet
MinimumDistance: x9,-1 
EndChar
StartChar: six
Encoding: 54 54 24
OldEncoding: 54
Width: 861
Flags: HW
HStem: -29 108<218.035 261.582> 517 111<402.216 454.953>
VStem: 547 130<371.022 388.972> 666 124<788.651 821.105>
Fore
782 744 m 1
 660 744 l 1
 666 789 l 1
 666 807 661 823 651 837 c 1
 637 864 610 882 571 890 c 1
 465 890 378 847 310 760 c 0
 254 690 214 619 189 547 c 1
 183 511 l 1
 252 561 l 2
 269 575 288 586 308 594 c 0
 336 607 358 615 375 620 c 0
 394 625 421 628 455 628 c 0
 511 628 556 616 590 594 c 0
 624 573 650 544 666 506 c 1
 675 477 679 449 679 422 c 1
 677 390 l 1
 677 384 l 2
 677 368 672 343 663 309 c 1
 647 268 635 242 627 232 c 1
 603 181 569 137 524 99 c 1
 472 52 425 20 383 2 c 0
 335 -19 280 -29 220 -29 c 0
 170 -29 127 -18 90 4 c 1
 55 22 30 51 17 90 c 0
 2 131 -5 172 -5 213 c 1
 -2 268 l 1
 8 323 30 405 64 514 c 0
 91 599 126 675 170 741 c 0
 229 834 295 900 368 940 c 0
 445 982 516 1004 582 1004 c 0
 655 1004 711 980 751 932 c 0
 769 909 781 882 788 852 c 1
 790 821 l 1
 790 799 788 774 782 744 c 1
455 168 m 1
 487 196 511 237 529 292 c 1
 541 337 547 369 547 387 c 0
 547 410 544 432 537 451 c 0
 524 495 479 517 402 517 c 0
 371 517 339 511 308 498 c 0
 272 482 245 465 225 448 c 0
 181 414 148 367 128 309 c 0
 119 279 114 253 114 232 c 0
 114 210 119 187 128 163 c 0
 149 107 194 79 262 79 c 1
 328 76 393 106 455 168 c 1
EndSplineSet
EndChar
StartChar: seven
Encoding: 55 55 25
OldEncoding: 55
Width: 861
Flags: HW
HStem: -0 25G<9.20644 141.727> 883 116<203.709 699.135>
Fore
169 883 m 1
 205 999 l 1
 873 999 l 1
 839 895 l 1
 676 737 l 2
 650 712 590 645 496 538 c 2
 474 512 l 2
 337 350 226 179 142 -0 c 5
 9 -0 l 1
 85 130 143 224 184 283 c 0
 214 330 272 403 355 502 c 1
 557 726 l 1
 704 883 l 1
 169 883 l 1
EndSplineSet
EndChar
StartChar: eight
Encoding: 56 56 26
OldEncoding: 56
Width: 861
Flags: HW
HStem: 896 108<518.057 545.58>
VStem: -33 134<171.192 209.917> 538 134<348.301 371.038> 654 131<791.385 826.543>
Fore
342 946 m 0
 408 984 475 1004 543 1004 c 0
 624 1004 691 984 743 946 c 1
 769 923 782 893 785 855 c 1
 785 827 l 2
 785 804 780 775 770 739 c 0
 753 681 728 639 693 614 c 1
 664 587 625 559 577 530 c 1
 604 525 630 497 654 448 c 0
 666 425 672 399 672 369 c 0
 672 342 664 304 649 256 c 1
 608 163 544 90 455 38 c 0
 378 -10 295 -32 207 -29 c 0
 173 -29 134 -21 90 -4 c 0
 55 10 26 31 4 60 c 0
 -21 90 -33 127 -33 173 c 0
 -33 209 -29 236 -21 256 c 1
 3 334 38 393 83 433 c 1
 107 459 155 492 228 530 c 1
 189 570 l 2
 182 577 175 586 170 597 c 1
 159 633 l 1
 157 658 l 1
 157 680 161 707 170 739 c 1
 201 825 258 894 342 946 c 0
630 860 m 0
 609 884 573 896 522 896 c 0
 468 896 422 882 384 855 c 0
 340 825 310 786 294 739 c 0
 289 722 286 700 286 675 c 0
 289 622 317 591 372 583 c 2
 400 580 l 2
 477 578 536 598 580 641 c 1
 613 672 635 704 646 739 c 0
 651 758 654 775 654 791 c 0
 654 817 646 840 630 860 c 0
527 403 m 0
 501 454 450 478 374 475 c 0
 304 475 241 450 186 401 c 0
 147 364 122 320 109 271 c 0
 104 254 101 233 101 210 c 0
 101 183 106 162 117 148 c 0
 133 122 173 102 239 87 c 1
 288 90 339 101 392 121 c 1
 461 160 505 212 524 276 c 0
 533 303 538 327 538 348 c 2
 538 351 l 2
 538 374 534 392 527 403 c 0
EndSplineSet
MinimumDistance: x3,-1 
EndChar
StartChar: nine
Encoding: 57 57 27
OldEncoding: 57
Width: 861
Flags: HW
HStem: 890 114<514.208 553.423>
VStem: -23 130<157.135 192.295>
Fore
-12 226 m 1
 113 226 l 1
 107 192 l 1
 107 173 113 155 123 137 c 1
 142 113 171 97 210 90 c 1
 315 90 398 130 461 210 c 0
 481 236 505 273 533 319 c 0
 557 359 572 394 580 425 c 1
 589 461 l 1
 544 423 499 392 453 369 c 0
 428 359 399 351 367 345 c 1
 259 351 l 1
 201 358 156 384 123 430 c 1
 102 467 91 508 91 553 c 2
 91 580 l 1
 93 596 100 623 113 663 c 0
 117 681 128 709 145 747 c 1
 171 795 205 839 248 877 c 0
 306 926 354 959 393 977 c 0
 438 995 491 1004 553 1004 c 0
 663 1007 730 966 755 882 c 1
 766 852 771 817 771 776 c 0
 771 725 763 663 747 591 c 0
 745 577 736 547 718 501 c 1
 689 409 l 1
 670 354 641 295 602 232 c 0
 547 140 476 71 390 26 c 1
 330 -2 270 -20 210 -29 c 1
 166 -29 125 -25 87 -15 c 1
 56 -4 31 14 13 38 c 0
 -11 72 -23 112 -23 157 c 0
 -23 181 -19 204 -12 226 c 1
317 808 m 0
 282 773 256 730 240 678 c 0
 231 643 226 613 226 586 c 1
 232 522 l 1
 249 472 294 448 367 451 c 0
 397 451 431 459 467 475 c 0
 500 488 527 505 547 525 c 1
 594 562 626 607 641 660 c 0
 650 692 655 719 655 741 c 0
 655 770 651 794 644 813 c 0
 635 838 620 857 599 868 c 0
 573 883 545 890 514 890 c 0
 440 890 374 863 317 808 c 0
EndSplineSet
MinimumDistance: x2,-1 
EndChar
StartChar: colon
Encoding: 58 58 28
OldEncoding: 58
Width: 363
Flags: HW
HStem: -24 199<-14.4297 49.9805> 559 200<174.28 239.82>
Fore
-82 75 m 5
 -74 99 -56 122 -29 145 c 4
 -4 165 22 175 50 175 c 4
 70 175 85 170 96 161 c 5
 108 154 114 142 117 124 c 6
 119 106 l 5
 114 75 l 5
 108 51 91 28 64 6 c 4
 39 -14 13 -24 -14 -24 c 4
 -39 -24 -59 -14 -75 6 c 5
 -83 19 -87 33 -87 48 c 5
 -82 75 l 5
105 658 m 5
 115 686 134 710 161 731 c 4
 188 750 214 759 240 759 c 4
 268 759 288 750 300 731 c 4
 306 721 309 707 309 689 c 5
 304 658 l 5
 297 634 280 611 253 590 c 4
 229 569 202 559 174 559 c 4
 149 559 129 569 114 590 c 5
 107 602 103 616 103 631 c 5
 105 658 l 5
EndSplineSet
EndChar
StartChar: semicolon
Encoding: 59 59 29
OldEncoding: 59
Width: 367
Flags: HW
HStem: 593 199<159.685 225.225>
Fore
130 73 m 4
 108 9 73 -41 25 -75 c 4
 -21 -108 -68 -128 -115 -135 c 5
 -135 -135 -145 -132 -145 -126 c 6
 -145 -124 l 5
 -134 -112 l 5
 -117 -106 -87 -94 -46 -73 c 5
 -10 -53 15 -29 27 -1 c 5
 5 -5 l 5
 -21 -10 l 5
 -66 -5 -88 15 -88 50 c 4
 -88 60 -86 72 -81 87 c 4
 -72 114 -57 137 -35 156 c 4
 -11 175 16 184 47 184 c 4
 107 184 137 161 137 114 c 4
 137 104 135 90 130 73 c 4
93 693 m 5
 100 718 117 741 146 763 c 4
 170 783 197 792 225 792 c 4
 240 792 255 788 268 779 c 4
 283 770 292 757 294 742 c 6
 296 726 l 5
 292 693 l 5
 283 669 265 646 239 624 c 4
 214 604 188 593 160 593 c 4
 133 593 113 604 100 624 c 4
 92 637 88 651 88 666 c 5
 93 693 l 5
EndSplineSet
EndChar
StartChar: less
Encoding: 60 60 30
OldEncoding: 60
Width: 757
Flags: HW
DStem: 47.915 450.41 193.685 499 630.995 163.39 668.285 274.13 849.085 834.61 814.055 722.74 80.6846 547.59 193.685 499
Fore
849 835 m 5
 814 723 l 5
 194 499 l 5
 668 274 l 5
 631 163 l 5
 48 450 l 5
 81 548 l 5
 849 835 l 5
EndSplineSet
EndChar
StartChar: equal
Encoding: 61 61 31
OldEncoding: 61
Width: 762
Flags: HW
HStem: 332 97<49 691> 568 97<126 768>
Fore
128 665 m 5
 798 665 l 5
 768 568 l 5
 97 568 l 5
 128 665 l 5
51 429 m 5
 722 429 l 5
 692 332 l 5
 20 332 l 5
 51 429 l 5
EndSplineSet
EndChar
StartChar: greater
Encoding: 62 62 32
OldEncoding: 62
Width: 767
Flags: HW
DStem: 152.845 722.74 187.875 834.61 622.925 499 773.215 547.59 622.925 499 740.445 450.41 7.0752 274.13 -30.2148 163.39
Fore
773 548 m 5
 740 450 l 5
 -30 163 l 5
 7 274 l 5
 623 499 l 5
 153 723 l 5
 188 835 l 5
 773 548 l 5
EndSplineSet
EndChar
StartChar: question
Encoding: 63 63 33
OldEncoding: 63
Width: 717
Flags: HW
HStem: -2 21G<110.47 238.16> 917 106<487.89 529.7>
DStem: 156.8 141.555 284.49 141.555 110.47 -1.95508 238.16 -1.95508
Fore
329 269 m 1
 199 269 l 1
 227 352 l 2
 241 392 265 429 298 461 c 0
 326 488 365 520 414 556 c 2
 465 592 l 1
 477 602 492 614 512 627 c 1
 551 667 l 1
 580 707 598 739 607 764 c 0
 613 778 616 795 616 813 c 1
 611 843 l 1
 604 866 591 884 572 899 c 1
 547 911 520 917 488 917 c 0
 444 917 407 908 375 892 c 0
 346 877 319 855 296 826 c 0
 278 805 264 780 252 751 c 1
 234 696 l 1
 110 696 l 1
 130 760 158 815 194 861 c 1
 227 907 273 946 331 977 c 0
 389 1008 455 1023 530 1023 c 1
 578 1021 l 1
 636 1014 678 995 704 965 c 0
 729 936 743 904 746 868 c 1
 746 857 l 2
 746 821 740 788 729 757 c 1
 720 728 706 697 685 665 c 0
 658 621 588 559 474 477 c 1
 443 457 418 437 397 417 c 0
 372 390 355 362 347 334 c 2
 329 269 l 1
110 -2 m 1
 157 142 l 1
 284 142 l 1
 238 -2 l 1
 110 -2 l 1
EndSplineSet
MinimumDistance: x32,-1 
EndChar
StartChar: at
Encoding: 64 64 34
OldEncoding: 64
Width: 1330
Flags: HW
HStem: -194 104<396 434> 91 88<397.755 468.945> 632 102<704 742.405>
VStem: 245 131<254 285.565>
DStem: 934.505 701.406 1052.03 701.406 874.615 608.746 781.955 285.565
Fore
1052 701 m 1
 782 286 l 1
 758 244 l 1
 756 225 l 1
 758 206 l 1
 767 190 788 182 824 182 c 1
 866 191 906 208 944 232 c 0
 980 256 1012 282 1038 310 c 0
 1099 379 1144 458 1173 547 c 1
 1175 595 l 1
 1171 668 l 1
 1165 706 1152 741 1133 771 c 0
 1118 799 1084 828 1034 860 c 0
 983 890 931 911 879 922 c 0
 854 926 826 929 798 929 c 0
 734 929 670 917 606 894 c 0
 545 872 486 843 428 806 c 0
 366 767 308 719 254 663 c 0
 202 609 165 563 141 524 c 0
 112 475 91 432 78 394 c 0
 60 338 51 285 51 235 c 1
 55 174 l 1
 61 132 83 91 120 49 c 1
 157 4 204 -31 259 -57 c 0
 303 -79 361 -90 433 -90 c 0
 517 -90 614 -73 722 -41 c 1
 733 -134 l 1
 609 -174 497 -194 398 -194 c 0
 322 -194 252 -182 188 -160 c 1
 138 -140 84 -105 27 -55 c 0
 -32 -0 -66 57 -75 118 c 0
 -78 134 -79 158 -79 191 c 0
 -79 245 -68 307 -46 376 c 0
 -30 431 -9 477 16 514 c 1
 57 582 110 650 173 718 c 1
 240 788 315 848 398 896 c 0
 446 924 495 948 544 968 c 0
 601 990 656 1006 710 1017 c 0
 775 1029 833 1035 884 1032 c 0
 950 1030 1020 1011 1094 975 c 0
 1169 939 1222 892 1252 834 c 1
 1275 799 1288 756 1293 704 c 0
 1295 693 1296 677 1296 655 c 0
 1296 623 1291 589 1281 553 c 0
 1262 492 1241 442 1219 401 c 1
 1178 345 1148 307 1131 288 c 0
 1095 246 1058 210 1020 179 c 0
 971 139 918 112 863 98 c 0
 833 89 797 84 754 84 c 0
 722 84 701 87 689 91 c 1
 665 97 650 111 643 133 c 1
 635 150 632 165 632 176 c 2
 632 188 l 1
 597 160 l 2
 586 152 569 142 546 130 c 0
 526 119 503 110 477 103 c 0
 448 95 422 91 398 91 c 0
 371 91 347 96 325 105 c 0
 292 121 271 141 261 165 c 0
 252 193 247 220 245 246 c 1
 245 255 l 2
 245 281 250 311 259 343 c 1
 270 373 282 400 296 425 c 0
 353 526 432 607 534 670 c 1
 608 713 678 734 742 734 c 0
 761 734 777 732 791 727 c 0
 818 718 839 702 853 679 c 0
 866 660 873 639 875 617 c 1
 875 609 l 1
 935 701 l 1
 1052 701 l 1
798 533 m 1
 802 568 l 1
 804 577 802 585 798 593 c 0
 789 610 771 621 745 626 c 1
 736 630 722 632 705 632 c 0
 673 632 638 623 601 604 c 0
 565 585 535 564 511 540 c 0
 481 508 457 477 440 445 c 1
 417 415 399 381 386 343 c 0
 380 321 376 302 376 286 c 0
 376 270 380 252 389 232 c 1
 400 197 427 179 469 179 c 1
 504 184 l 1
 551 196 597 225 641 271 c 0
 669 299 699 339 731 392 c 0
 766 448 788 495 798 533 c 1
EndSplineSet
MinimumDistance: x0,-1 
EndChar
StartChar: A
Encoding: 65 65 35
OldEncoding: 65
Width: 890
Flags: HW
HStem: -1 21G<-175.83 -36.8398 562.06 707.83> 302 110<255 550> 990 20G<521.38 680.71>
DStem: 521.38 1010.17 548.5 853.105 -175.83 -1.1748 241.14 411.275 521.38 1010.17 171.08 301.665 -175.83 -1.1748 -36.8398 -1.1748
Fore
171 302 m 1
 -37 -1 l 1
 -176 -1 l 1
 521 1010 l 1
 681 1010 l 1
 708 -1 l 1
 562 -1 l 1
 558 302 l 1
 171 302 l 1
548 853 m 1
 241 412 l 1
 555 412 l 1
 548 853 l 1
EndSplineSet
MinimumDistance: x8,-1 
EndChar
StartChar: B
Encoding: 66 66 36
OldEncoding: 66
Width: 875
Flags: HW
HStem: -1 115<70 408> 462 115<214 456> 897 113<317 568>
DStem: 223.93 1010.17 318.85 897.175 -104.9 -1.1748 213.76 577.385 223.93 1010.17 177.6 462.125 -104.9 -1.1748 63.4697 114.085
Fore
395 -1 m 2
 -105 -1 l 1
 224 1010 l 1
 675 1010 l 2
 709 1010 741 1002 770 986 c 0
 804 969 827 949 841 927 c 0
 858 901 867 871 867 836 c 1
 862 788 l 1
 820 656 750 572 652 536 c 1
 693 513 l 1
 706 504 719 492 731 476 c 2
 735 471 l 2
 747 451 756 425 761 394 c 1
 761 379 l 2
 761 341 754 305 741 272 c 1
 722 213 689 163 642 122 c 0
 596 81 552 51 511 32 c 0
 463 10 425 -1 395 -1 c 2
319 897 m 1
 214 577 l 1
 483 577 l 2
 554 577 607 594 640 626 c 0
 675 659 702 705 721 765 c 1
 723 790 l 1
 723 827 706 854 673 869 c 0
 627 888 587 897 555 897 c 2
 319 897 l 1
178 462 m 1
 63 114 l 1
 390 114 l 2
 450 114 499 134 538 173 c 0
 580 213 609 261 626 319 c 1
 628 355 l 1
 628 392 617 418 593 434 c 1
 558 453 504 462 432 462 c 2
 178 462 l 1
EndSplineSet
MinimumDistance: x17,-1 
EndChar
StartChar: C
Encoding: 67 67 37
OldEncoding: 67
Width: 942
Flags: HW
HStem: -33 119<278 325.765> 912 118<590 624.085>
VStem: -28 139<278 317>
Fore
927 698 m 1
 794 698 l 1
 791 741 783 780 768 814 c 0
 757 837 743 855 726 868 c 1
 707 884 687 896 666 903 c 0
 648 909 623 912 591 912 c 0
 552 912 510 903 465 886 c 0
 418 869 376 845 339 814 c 0
 297 777 259 731 224 675 c 0
 191 621 163 562 140 497 c 0
 121 439 111 381 111 324 c 2
 111 317 l 2
 111 264 119 220 136 183 c 0
 166 118 229 86 326 86 c 0
 413 86 493 118 564 183 c 0
 591 206 615 234 638 266 c 1
 664 298 688 333 710 370 c 1
 840 370 l 1
 779 248 696 148 591 71 c 0
 564 50 519 27 456 2 c 1
 390 -21 331 -33 279 -33 c 0
 228 -33 177 -21 127 2 c 1
 77 28 45 51 30 71 c 0
 -6 124 -26 189 -28 266 c 1
 -28 280 l 2
 -28 353 -16 425 8 497 c 0
 33 574 72 652 125 731 c 1
 172 805 233 870 308 925 c 0
 339 948 386 972 449 995 c 0
 515 1018 574 1030 624 1030 c 0
 675 1030 725 1018 777 995 c 1
 824 972 855 948 869 925 c 1
 908 875 927 806 927 717 c 2
 927 698 l 1
EndSplineSet
MinimumDistance: x10,-1 
EndChar
StartChar: D
Encoding: 68 68 38
OldEncoding: 68
Width: 947
Flags: HW
HStem: -1 115<79 370> 897 113<327 593>
DStem: 236.045 1010.17 328.705 897.175 -95.0449 -1.1748 74.4551 114.085
Fore
368 -1 m 2
 -95 -1 l 1
 236 1010 l 1
 625 1010 l 2
 733 1010 813 974 865 902 c 1
 898 853 914 795 914 728 c 0
 914 686 909 643 898 598 c 1
 870 501 l 1
 823 354 750 237 651 149 c 0
 593 97 539 60 490 38 c 1
 439 12 398 -1 368 -1 c 2
576 897 m 2
 329 897 l 1
 74 114 l 1
 356 114 l 2
 389 114 426 121 468 136 c 0
 489 144 520 166 563 202 c 1
 603 241 630 272 643 295 c 0
 689 376 721 445 740 501 c 0
 766 574 780 641 780 701 c 0
 780 727 777 749 771 767 c 0
 748 854 683 897 576 897 c 2
EndSplineSet
MinimumDistance: x11,-1 
EndChar
StartChar: E
Encoding: 69 69 39
OldEncoding: 69
Width: 870
Flags: HW
HStem: -1 115<82 632> 462 115<226 736> 897 113<325 900>
DStem: 234.29 1010.17 326.95 897.175 -92.2803 -1.1748 225.25 577.385 234.29 1010.17 185.7 462.125 -92.2803 -1.1748 74.96 114.085
Fore
-92 -1 m 1
 234 1010 l 1
 938 1010 l 1
 901 897 l 1
 327 897 l 1
 225 577 l 1
 773 577 l 1
 736 462 l 1
 186 462 l 1
 75 114 l 1
 669 114 l 1
 632 -1 l 1
 -92 -1 l 1
EndSplineSet
MinimumDistance: x4,-1 
EndChar
StartChar: F
Encoding: 70 70 40
OldEncoding: 70
Width: 795
Flags: HW
HStem: -1 21G<-92.915 37.0352> 462 115<226 668> 897 113<327 876>
DStem: 235.915 1010.17 328.575 897.175 -92.915 -1.1748 224.615 577.385 235.915 1010.17 187.325 462.125 -92.915 -1.1748 37.0352 -1.1748
Fore
-93 -1 m 1
 236 1010 l 1
 914 1010 l 1
 877 897 l 1
 329 897 l 1
 225 577 l 1
 706 577 l 1
 669 462 l 1
 187 462 l 1
 37 -1 l 1
 -93 -1 l 1
EndSplineSet
MinimumDistance: x4,-1 
EndChar
StartChar: G
Encoding: 71 71 41
OldEncoding: 71
Width: 1018
Flags: HW
HStem: -33 114<280.705 353.025> -5 21G<676.205 757.565> 421 115<511 765> 912 118<622 662.645>
VStem: 855 130<739.807 777.097>
Fore
473 421 m 1
 512 536 l 1
 934 536 l 1
 758 -5 l 1
 676 -5 l 1
 686 119 l 1
 607 67 542 29 491 4 c 0
 437 -21 367 -33 281 -33 c 0
 239 -33 191 -22 139 -0 c 0
 90 20 56 41 35 64 c 0
 -7 115 -31 181 -36 261 c 1
 -36 287 l 2
 -36 359 -25 428 -4 495 c 0
 12 543 36 594 68 647 c 1
 97 701 132 751 172 799 c 0
 210 842 258 884 316 925 c 0
 353 949 403 973 468 995 c 0
 540 1018 605 1030 663 1030 c 0
 752 1032 819 1017 864 987 c 1
 926 949 963 905 976 856 c 0
 982 833 985 806 985 777 c 0
 985 754 982 731 978 706 c 1
 852 706 l 1
 855 740 l 1
 855 777 840 813 811 847 c 0
 772 890 709 912 623 912 c 0
 577 912 529 903 480 886 c 0
 428 868 382 845 343 814 c 0
 301 780 259 734 219 675 c 0
 181 620 152 560 130 495 c 0
 112 440 102 387 102 338 c 2
 102 319 l 1
 104 259 116 212 137 178 c 0
 176 113 248 81 353 81 c 0
 423 81 487 97 545 130 c 0
 587 152 625 178 658 208 c 0
 688 234 710 261 725 289 c 1
 741 314 753 337 760 358 c 2
 780 421 l 1
 473 421 l 1
EndSplineSet
MinimumDistance: x20,-1 
EndChar
StartChar: H
Encoding: 72 72 42
OldEncoding: 72
Width: 943
Flags: HW
HStem: -1 21G<-106.635 23.3154 540.855 670.805> 462 115<212 678> 990 20G<222.195 351.015 869.685 999.635>
DStem: 222.195 1010.17 351.015 1010.17 -106.635 -1.1748 210.895 577.385 222.195 1010.17 173.605 462.125 -106.635 -1.1748 23.3154 -1.1748 692.275 462.125 999.635 1010.17 540.855 -1.1748 670.805 -1.1748 869.685 1010.17 999.635 1010.17 728.435 577.385 670.805 -1.1748
Fore
541 -1 m 1
 692 462 l 1
 174 462 l 1
 23 -1 l 1
 -107 -1 l 5
 222 1010 l 1
 351 1010 l 1
 211 577 l 1
 728 577 l 1
 870 1010 l 1
 1000 1010 l 1
 671 -1 l 1
 541 -1 l 1
EndSplineSet
EndChar
StartChar: I
Encoding: 73 73 43
OldEncoding: 73
Width: 363
Flags: HW
HStem: -1 21G<-49.3896 80.5596> 990 20G<279.44 409.39>
DStem: 279.44 1010.17 409.39 1010.17 -49.3896 -1.1748 80.5596 -1.1748
Fore
-49 -1 m 1
 279 1010 l 1
 409 1010 l 1
 81 -1 l 1
 -49 -1 l 1
EndSplineSet
EndChar
StartChar: J
Encoding: 74 74 44
OldEncoding: 74
Width: 654
Flags: HW
HStem: 992 20G<590.02 722.23>
VStem: -116 137<145 174.745>
DStem: 590.02 1012.08 722.23 1012.08 367.41 325.035 460.07 210.905
Fore
-72 323 m 1
 62 323 l 1
 27 221 l 1
 23 204 21 188 21 175 c 0
 21 157 24 143 30 133 c 0
 42 108 62 93 88 87 c 1
 122 82 l 1
 176 82 227 102 272 142 c 0
 307 172 339 233 367 325 c 1
 590 1012 l 1
 722 1012 l 1
 460 211 l 1
 415 118 351 50 268 5 c 0
 217 -22 148 -34 60 -32 c 0
 -24 -30 -77 -0 -99 56 c 0
 -111 87 -116 117 -116 146 c 0
 -116 165 -112 188 -104 215 c 2
 -72 323 l 1
EndSplineSet
EndChar
StartChar: K
Encoding: 75 75 45
OldEncoding: 75
Width: 866
Flags: HW
HStem: -1 21G<-114.195 18.0146 535.555 685.845> 990 20G<214.635 345.715 848.565 1019.2>
DStem: 214.635 1010.17 345.715 1010.17 -114.195 -1.1748 184.125 510.715 214.635 1010.17 131.015 343.475 -114.195 -1.1748 18.0146 -1.1748 350.235 508.455 466.625 597.725 535.555 -1.1748 685.845 -1.1748 848.565 1010.17 1019.2 1010.17 184.125 510.715 466.625 597.725
Fore
215 1010 m 1
 346 1010 l 1
 184 511 l 1
 849 1010 l 1
 1019 1010 l 1
 467 598 l 1
 686 -1 l 1
 536 -1 l 1
 350 508 l 1
 131 343 l 1
 18 -1 l 1
 -114 -1 l 1
 215 1010 l 1
EndSplineSet
EndChar
StartChar: L
Encoding: 76 76 46
OldEncoding: 76
Width: 740
Flags: HW
HStem: -1 115<89 544> 990 20G<243.48 372.3>
DStem: 243.48 1010.17 372.3 1010.17 -85.3496 -1.1748 80.7598 114.085
Fore
243 1010 m 1
 372 1010 l 1
 81 114 l 1
 581 114 l 1
 544 -1 l 1
 -85 -1 l 1
 243 1010 l 1
EndSplineSet
MinimumDistance: x1,-1 
EndChar
StartChar: M
Encoding: 77 77 47
OldEncoding: 77
Width: 1090
Flags: HW
HStem: -1 21G<-126.71 7.75977 282.35 416.82 692.54 827.01> 990 20G<202.12 386.31 970.52 1154.71>
VStem: 273 113<149.337 275.108 664.888 820.123>
DStem: 202.12 1010.17 273.31 820.335 -126.71 -1.1748 7.75977 -1.1748 273.31 820.335 386.31 1010.17 282.35 -1.1748 398.74 149.115 958.09 820.335 1154.71 1010.17 692.54 -1.1748 827.01 -1.1748 970.52 1010.17 958.09 820.335 398.74 149.115 416.82 -1.1748
Fore
417 -1 m 1
 282 -1 l 1
 273 820 l 1
 8 -1 l 1
 -127 -1 l 1
 202 1010 l 1
 386 1010 l 1
 399 149 l 1
 971 1010 l 1
 1155 1010 l 1
 827 -1 l 1
 693 -1 l 1
 958 820 l 1
 417 -1 l 1
EndSplineSet
EndChar
StartChar: N
Encoding: 78 78 48
OldEncoding: 78
Width: 943
Flags: HW
HStem: -1 21G<-115.415 13.4053 525.295 675.585> 990 20G<213.415 365.965 872.205 1004.42>
DStem: 213.415 1010.17 277.825 809.035 -115.415 -1.1748 13.4053 -1.1748 277.825 809.035 365.965 1010.17 525.295 -1.1748 606.655 190.925 872.205 1010.17 1004.42 1010.17 606.655 190.925 675.585 -1.1748
Fore
676 -1 m 1
 525 -1 l 1
 278 809 l 1
 13 -1 l 1
 -115 -1 l 1
 213 1010 l 1
 366 1010 l 1
 607 191 l 1
 872 1010 l 1
 1004 1010 l 1
 676 -1 l 1
EndSplineSet
EndChar
StartChar: O
Encoding: 79 79 49
OldEncoding: 79
Width: 1018
Flags: HW
HStem: -33 119<307 344.66> 912 118<612 653.15>
Fore
653 1030 m 0
 710 1030 767 1018 824 995 c 0
 876 973 911 950 929 925 c 1
 972 872 996 807 1000 731 c 1
 1000 708 l 2
 1000 638 988 568 965 497 c 0
 939 416 901 339 850 266 c 0
 799 193 733 128 651 71 c 0
 616 48 567 25 503 2 c 0
 433 -21 368 -33 308 -33 c 0
 251 -33 195 -21 139 2 c 1
 82 28 46 51 31 71 c 0
 -15 127 -40 192 -44 266 c 1
 -44 293 l 2
 -44 355 -33 423 -11 497 c 0
 4 542 27 593 58 649 c 0
 90 707 127 758 167 803 c 0
 210 851 257 891 308 925 c 1
 342 949 392 973 461 995 c 0
 533 1018 597 1030 653 1030 c 0
614 912 m 0
 568 912 520 903 470 886 c 0
 420 869 376 845 336 814 c 0
 290 779 249 733 211 675 c 1
 174 623 145 564 123 497 c 1
 103 443 93 388 93 333 c 2
 93 322 l 1
 95 269 108 223 132 183 c 0
 174 118 244 86 345 86 c 0
 451 86 544 118 623 183 c 1
 669 218 712 264 750 322 c 0
 785 373 814 431 836 497 c 1
 854 558 863 616 863 671 c 2
 863 675 l 1
 861 735 849 781 826 814 c 1
 809 847 782 871 744 886 c 0
 703 903 660 912 614 912 c 0
EndSplineSet
EndChar
StartChar: P
Encoding: 80 80 50
OldEncoding: 80
Width: 873
Flags: HW
HStem: -1 21G<-87.4854 40.2051> 427 115<231 537> 897 113<330 633>
VStem: 753 141<787.565 836.155>
DStem: 239.085 1010.17 331.745 897.175 -87.4854 -1.1748 218.745 542.355 239.085 1010.17 179.195 427.095 -87.4854 -1.1748 40.2051 -1.1748
Fore
-87 -1 m 1
 239 1010 l 1
 663 1010 l 2
 740 1010 802 992 848 955 c 1
 879 928 894 888 894 836 c 0
 894 812 892 788 887 765 c 1
 873 714 l 1
 844 622 792 551 718 501 c 1
 643 452 575 427 515 427 c 2
 179 427 l 1
 40 -1 l 1
 -87 -1 l 1
332 897 m 1
 219 542 l 1
 549 542 l 2
 571 542 606 558 652 589 c 0
 693 617 725 664 746 730 c 1
 751 752 753 771 753 788 c 0
 753 820 744 844 725 860 c 0
 698 885 664 897 623 897 c 2
 332 897 l 1
EndSplineSet
EndChar
StartChar: Q
Encoding: 81 81 51
OldEncoding: 81
Width: 1017
Flags: HW
HStem: -30 119<315 353.725> 914 118<620 661.085>
DStem: 605.715 39.7549 705.155 108.685 709.675 -78.8945 802.335 2.46484
Fore
705 109 m 1
 802 2 l 1
 710 -79 l 1
 606 40 l 1
 503 -5 407 -28 316 -30 c 0
 259 -30 203 -19 147 5 c 1
 92 30 56 53 38 74 c 0
 -4 126 -28 192 -33 269 c 1
 -35 296 l 1
 -35 363 -24 430 -1 500 c 0
 19 558 42 609 67 652 c 0
 98 709 134 760 175 806 c 0
 218 853 265 894 316 928 c 0
 351 952 401 975 467 998 c 0
 538 1021 603 1032 661 1032 c 0
 719 1032 776 1021 833 998 c 0
 881 977 916 954 937 928 c 0
 980 876 1003 811 1008 734 c 1
 1008 711 l 2
 1008 642 997 572 974 500 c 0
 949 426 914 355 869 287 c 1
 825 217 771 158 705 109 c 1
527 126 m 1
 453 208 l 1
 541 287 l 1
 635 186 l 1
 665 210 693 238 719 271 c 0
 749 308 774 344 793 380 c 0
 815 422 832 462 844 500 c 0
 862 561 871 619 871 674 c 2
 871 678 l 1
 869 737 857 783 835 817 c 0
 815 850 787 873 751 888 c 0
 711 906 667 914 622 914 c 0
 576 914 528 906 478 888 c 0
 428 872 383 848 344 817 c 0
 304 787 262 741 219 678 c 0
 180 620 151 561 131 500 c 0
 112 439 103 385 103 336 c 2
 103 325 l 1
 107 267 119 221 140 186 c 0
 179 121 251 89 354 89 c 0
 414 89 472 101 527 126 c 1
EndSplineSet
MinimumDistance: x1,-1 
EndChar
StartChar: R
Encoding: 82 82 52
OldEncoding: 82
Width: 945
Flags: HW
HStem: -1 21G<-88.54 39.1504 566.86 721.67> 434 115<230 536> 897 113<329 680>
VStem: 799 148<787.565 857.625>
DStem: 238.03 1010.17 330.69 897.175 -88.54 -1.1748 219.95 549.135 238.03 1010.17 180.4 433.875 -88.54 -1.1748 39.1504 -1.1748
Fore
-89 -1 m 1
 238 1010 l 1
 689 1010 l 2
 787 1010 859 994 905 962 c 0
 933 940 947 906 947 858 c 0
 947 823 941 788 930 754 c 0
 910 690 885 641 854 606 c 0
 825 575 779 539 715 498 c 1
 755 467 777 437 782 408 c 1
 782 399 l 2
 782 369 770 316 748 240 c 0
 726 172 715 125 715 98 c 2
 715 87 l 2
 715 64 721 46 733 32 c 1
 722 -1 l 1
 567 -1 l 1
 567 21 l 2
 567 45 571 80 578 127 c 1
 618 244 l 2
 630 279 636 313 636 343 c 1
 631 385 l 1
 620 418 581 434 514 434 c 2
 180 434 l 1
 39 -1 l 1
 -89 -1 l 1
657 897 m 2
 331 897 l 1
 220 549 l 1
 545 549 l 2
 662 549 741 600 782 703 c 1
 793 727 799 755 799 788 c 0
 799 861 751 897 657 897 c 2
EndSplineSet
EndChar
StartChar: S
Encoding: 83 83 53
OldEncoding: 83
Width: 873
Flags: HW
HStem: 918 111<529 566>
VStem: 606 148<307.044 351.114> 732 132<780 821.194>
Fore
849 717 m 1
 721 717 l 1
 729 742 732 764 732 782 c 0
 732 822 717 854 686 879 c 0
 663 896 640 907 617 912 c 0
 592 916 562 918 529 918 c 0
 457 918 397 901 350 868 c 0
 301 834 268 794 253 750 c 0
 249 735 247 722 247 710 c 1
 249 689 l 1
 253 673 263 657 282 640 c 1
 317 617 363 600 418 590 c 1
 644 523 l 1
 684 507 714 477 735 432 c 0
 747 405 754 378 754 351 c 0
 754 332 751 313 745 296 c 0
 724 229 688 171 637 119 c 1
 587 71 527 34 458 6 c 1
 378 -22 305 -35 240 -33 c 1
 170 -33 111 -23 61 -3 c 1
 18 12 -16 45 -43 95 c 1
 -59 132 -68 164 -68 192 c 2
 -68 199 l 1
 -65 226 -57 267 -43 322 c 1
 80 322 l 1
 71 294 66 267 66 243 c 0
 66 219 69 198 76 180 c 1
 87 132 129 101 200 90 c 0
 229 87 273 86 332 86 c 1
 399 92 451 109 489 134 c 0
 547 171 583 216 598 269 c 1
 603 281 606 294 606 307 c 0
 606 339 593 366 569 388 c 1
 534 409 469 430 374 453 c 0
 321 466 284 477 263 488 c 1
 189 516 l 2
 135 535 108 575 108 636 c 0
 108 659 111 681 118 701 c 0
 136 762 166 819 209 870 c 0
 252 920 303 959 363 987 c 0
 422 1015 489 1029 564 1029 c 0
 671 1029 746 1011 790 976 c 0
 840 935 864 884 864 821 c 0
 864 787 859 752 849 717 c 1
EndSplineSet
MinimumDistance: x42,-1 
EndChar
StartChar: T
Encoding: 84 84 54
OldEncoding: 84
Width: 782
Flags: HW
HStem: -1 21G<133.035 262.985> 897 113<127 412 553 885>
DStem: 424.575 897.175 554.525 897.175 133.035 -1.1748 262.985 -1.1748
Fore
133 -1 m 1
 425 897 l 1
 91 897 l 1
 129 1010 l 1
 922 1010 l 1
 886 897 l 1
 555 897 l 1
 263 -1 l 1
 133 -1 l 1
EndSplineSet
MinimumDistance: x6,-1 
EndChar
StartChar: U
Encoding: 85 85 55
OldEncoding: 85
Width: 937
Flags: HW
HStem: -32 112<273 311.785> 992 20G<223.645 353.595 871.135 1001.08>
VStem: -26 137<200 234.62>
DStem: 223.645 1012.06 353.595 1012.06 -14.7852 283.21 119.685 289.99 871.135 1012.06 1001.08 1012.06 638.355 289.99 764.915 283.21
Fore
224 1012 m 1
 354 1012 l 1
 120 290 l 1
 114 274 111 256 111 235 c 0
 111 204 119 174 136 146 c 0
 162 102 221 80 312 80 c 0
 398 80 471 102 529 146 c 0
 584 191 621 239 638 290 c 1
 871 1012 l 1
 1001 1012 l 1
 765 283 l 1
 755 252 738 219 714 186 c 1
 691 151 659 116 617 82 c 0
 577 48 528 21 469 1 c 0
 407 -21 342 -32 274 -32 c 0
 183 -32 113 -15 64 19 c 0
 15 54 -13 97 -19 146 c 1
 -24 165 -26 183 -26 202 c 0
 -26 234 -22 261 -15 283 c 1
 224 1012 l 1
EndSplineSet
EndChar
StartChar: V
Encoding: 86 86 56
OldEncoding: 86
Width: 852
Flags: HW
HStem: -1 21G<163.37 302.36> 990 20G<132.86 271.85 848.15 987.14>
Fore
288 154 m 1
 848 1010 l 1
 987 1010 l 1
 302 -1 l 1
 163 -1 l 1
 133 1010 l 1
 272 1010 l 1
 288 154 l 1
EndSplineSet
EndChar
StartChar: W
Encoding: 87 87 57
OldEncoding: 87
Width: 1218
Flags: HW
HStem: -1 21G<32.4951 172.615 633.655 777.165> 990 20G<103.685 249.455 661.905 803.155 1219 1362.5>
DStem: 661.905 1010.17 670.945 822.595 172.615 195.445 172.615 -1.1748 670.945 822.595 803.155 1010.17 633.655 -1.1748 763.605 195.445
Fore
764 195 m 1
 1219 1010 l 1
 1362 1010 l 1
 777 -1 l 1
 634 -1 l 1
 671 823 l 1
 173 -1 l 1
 32 -1 l 1
 104 1010 l 1
 249 1010 l 1
 173 195 l 1
 662 1010 l 1
 803 1010 l 1
 764 195 l 1
EndSplineSet
MinimumDistance: x12,-1 
EndChar
StartChar: X
Encoding: 88 88 58
OldEncoding: 88
Width: 872
Flags: HW
HStem: -1 21G<-185.055 -24.5947 523.455 682.785> 990 20G<169.765 324.575 840.985 998.055>
DStem: 169.765 1010.17 324.575 1010.17 338.135 517.495 456.785 623.715 338.135 517.495 386.725 411.275 -185.055 -1.1748 -24.5947 -1.1748 840.985 1010.17 998.055 1010.17 456.785 623.715 499.725 517.495
Fore
998 1010 m 1
 500 517 l 1
 683 -1 l 1
 523 -1 l 1
 387 411 l 1
 -25 -1 l 1
 -185 -1 l 1
 338 517 l 1
 170 1010 l 1
 325 1010 l 1
 457 624 l 1
 841 1010 l 1
 998 1010 l 1
EndSplineSet
EndChar
StartChar: Y
Encoding: 89 89 59
OldEncoding: 89
Width: 852
Flags: HW
HStem: -1 21G<167.89 300.1> 990 20G<110.26 269.59 850.41 1009.74>
DStem: 297.84 394.325 428.92 394.325 167.89 -1.1748 300.1 -1.1748
Fore
110 1010 m 1
 270 1010 l 1
 404 520 l 1
 850 1010 l 1
 1010 1010 l 1
 429 394 l 1
 300 -1 l 1
 168 -1 l 1
 298 394 l 1
 110 1010 l 1
EndSplineSet
MinimumDistance: x0,4 
EndChar
StartChar: Z
Encoding: 90 90 60
OldEncoding: 90
Width: 799
Flags: HW
HStem: -1 115<32 596> 897 113<195 706>
DStem: 721.975 897.175 883.565 892.655 -139.085 109.565 28.1553 114.085
Fore
159 897 m 1
 197 1010 l 1
 923 1010 l 1
 884 893 l 1
 28 114 l 1
 634 114 l 1
 597 -1 l 1
 -174 -1 l 1
 -139 110 l 1
 722 897 l 1
 159 897 l 1
EndSplineSet
EndChar
StartChar: bracketleft
Encoding: 91 91 61
OldEncoding: 91
Width: 361
Flags: HW
HStem: 923 104<360 502>
DStem: 275.425 1027.21 361.305 923.245 -148.325 -280.205 3.09473 -176.245
Fore
275 1027 m 1
 535 1027 l 1
 503 923 l 1
 361 923 l 1
 3 -176 l 1
 144 -176 l 1
 112 -280 l 1
 -148 -280 l 1
 275 1027 l 1
EndSplineSet
EndChar
StartChar: backslash
Encoding: 92 92 62
OldEncoding: 92
Width: 364
Flags: HW
HStem: -28 21G<126.06 202.9> 992 20G<137.36 211.94>
VStem: 126 77<-23.6834 175.965 808.035 1007.68>
DStem: 137.36 1011.8 211.94 1011.8 126.06 -27.7998 202.9 -27.7998
Fore
126 -28 m 1
 137 1012 l 1
 212 1012 l 1
 203 -28 l 1
 126 -28 l 1
EndSplineSet
MinimumDistance: x2,-1 
EndChar
StartChar: bracketright
Encoding: 93 93 63
OldEncoding: 93
Width: 368
Flags: HW
HStem: -282 104<-166 -26> 923 104<225 329>
DStem: 330.71 923.375 483.26 1027.33 -25.2402 -178.375 58.3799 -282.335
Fore
192 923 m 1
 227 1027 l 1
 483 1027 l 1
 58 -282 l 1
 -199 -282 l 1
 -164 -178 l 1
 -25 -178 l 1
 331 923 l 1
 192 923 l 1
EndSplineSet
EndChar
StartChar: asciicircum
Encoding: 94 94 64
OldEncoding: 94
Width: 622
Flags: HW
DStem: 332.975 964.355 345.405 845.705 -53.4854 436.645 43.6953 436.645 345.405 845.705 435.805 964.355 379.305 436.645 476.485 436.645
Fore
-53 437 m 1
 333 964 l 1
 436 964 l 1
 476 437 l 1
 379 437 l 1
 345 846 l 1
 44 437 l 1
 -53 437 l 1
EndSplineSet
MinimumDistance: x3,-1 
EndChar
StartChar: underscore
Encoding: 95 95 65
OldEncoding: 95
Width: 728
Flags: HW
HStem: -162 69<-258 554>
Fore
578 -93 m 5
 555 -162 l 5
 -278 -162 l 5
 -257 -93 l 5
 578 -93 l 5
EndSplineSet
EndChar
StartChar: grave
Encoding: 96 96 66
OldEncoding: 96
Width: 374
Flags: W
HStem: 991 20G<222.73 379.73>
Fore
409.27 828 m 5
 314.27 828 l 5
 222.73 1011 l 5
 379.73 1011 l 5
 409.27 828 l 5
EndSplineSet
EndChar
StartChar: a
Encoding: 97 97 67
OldEncoding: 97
Width: 730
Flags: HW
HStem: -17 99<144 167>
VStem: -51 124<126.475 161.505>
DStem: 494.565 371.685 695.705 612.375 448.235 225.915 536.375 124.215
Fore
696 612 m 1
 536 124 l 1
 536 115 l 2
 536 108 541 102 550 95 c 0
 563 87 580 82 603 82 c 1
 580 -2 l 1
 479 -17 l 1
 429 0 404 27 404 64 c 1
 409 90 l 1
 350 53 305 28 275 13 c 0
 227 -7 184 -17 145 -17 c 0
 66 -19 9 1 -24 44 c 0
 -42 67 -51 94 -51 126 c 0
 -51 153 -46 181 -35 212 c 0
 -14 269 16 311 53 340 c 0
 90 369 131 389 178 402 c 0
 212 412 247 420 284 425 c 0
 316 431 351 435 388 437 c 2
 462 444 l 1
 505 455 530 474 536 499 c 1
 565 588 l 1
 565 592 l 2
 565 612 550 629 521 643 c 1
 480 657 437 663 391 661 c 0
 306 659 246 614 210 528 c 1
 101 528 l 1
 124 590 l 1
 145 624 168 651 192 671 c 0
 224 698 258 719 293 733 c 0
 322 746 369 757 435 766 c 1
 484 766 531 762 574 754 c 0
 621 742 656 725 678 701 c 0
 693 685 700 665 700 641 c 1
 696 612 l 1
448 226 m 1
 495 372 l 1
 468 361 435 354 395 349 c 1
 278 331 l 2
 244 325 214 317 185 307 c 0
 164 299 145 287 127 270 c 1
 107 255 92 234 83 208 c 1
 76 194 73 179 73 162 c 0
 73 143 79 128 92 115 c 1
 110 93 135 82 168 82 c 0
 211 80 255 90 300 111 c 0
 342 129 376 149 402 173 c 0
 431 200 447 218 448 226 c 1
EndSplineSet
MinimumDistance: x0,-1 
EndChar
StartChar: b
Encoding: 98 98 68
OldEncoding: 98
Width: 736
Flags: HW
HStem: 1 21G<-119.955 -20.5146> 992 20G<206.615 324.135>
DStem: 206.615 1012.06 324.135 1012.06 -119.955 0.709961 204.355 641.42
Fore
207 1012 m 1
 324 1012 l 1
 204 641 l 1
 223 663 253 685 292 707 c 1
 324 721 351 732 373 739 c 1
 410 747 441 751 465 751 c 0
 549 751 609 720 646 658 c 5
 662 637 672 611 677 579 c 1
 679 528 l 1
 677 482 l 1
 673 453 664 415 651 369 c 1
 633 316 l 1
 602 242 563 179 516 126 c 1
 466 65 410 23 350 -2 c 1
 305 -22 254 -32 198 -32 c 0
 146 -32 107 -22 81 -2 c 1
 40 36 15 64 8 82 c 1
 -21 1 l 1
 -120 1 l 1
 207 1012 l 1
385 146 m 1
 443 204 487 277 516 365 c 0
 531 406 540 444 542 480 c 1
 542 498 l 2
 542 521 538 542 531 561 c 0
 514 611 470 635 401 632 c 0
 338 632 283 609 235 563 c 0
 215 544 193 514 167 475 c 1
 141 432 122 390 109 348 c 0
 96 306 89 267 89 230 c 0
 89 203 92 179 98 158 c 0
 109 113 146 87 209 80 c 1
 280 80 338 102 385 146 c 1
EndSplineSet
MinimumDistance: x1,-1 
EndChar
StartChar: c
Encoding: 99 99 69
OldEncoding: 99
Width: 689
Flags: HW
HStem: 659 107<422 452.39>
Fore
474 268 m 1
 585 268 l 1
 564 208 536 159 499 120 c 0
 459 76 410 42 353 18 c 0
 288 -8 231 -19 182 -17 c 1
 133 -17 87 -2 43 27 c 0
 7 53 -16 90 -27 139 c 1
 -29 190 l 1
 -29 254 -17 319 6 386 c 0
 42 494 107 587 200 665 c 0
 276 730 360 764 452 766 c 0
 492 766 529 760 564 749 c 0
 597 738 620 722 635 701 c 1
 660 685 673 659 675 623 c 1
 675 599 l 2
 675 567 670 534 661 499 c 1
 545 499 l 1
 550 525 552 546 552 564 c 1
 550 590 l 1
 544 610 532 626 513 636 c 0
 484 651 454 659 423 659 c 0
 367 656 311 631 254 583 c 0
 207 544 168 484 138 402 c 0
 112 328 99 270 99 226 c 1
 101 206 l 1
 112 129 161 93 247 95 c 0
 274 95 305 103 339 120 c 0
 373 136 396 153 408 173 c 1
 437 205 459 237 474 268 c 1
EndSplineSet
EndChar
StartChar: d
Encoding: 100 100 70
OldEncoding: 100
Width: 725
Flags: HW
HStem: -2 21G<378.625 480.325> 630 121<365 385> 992 20G<692.765 809.155>
VStem: -80 134<194 230.1>
DStem: 692.765 1012.06 809.155 1012.06 572.985 641.42 480.325 -1.5498
Fore
693 1012 m 1
 809 1012 l 1
 480 -2 l 1
 379 -2 l 1
 406 84 l 1
 361 46 319 17 279 -4 c 0
 243 -23 198 -32 145 -32 c 0
 89 -32 43 -22 6 -2 c 0
 -34 23 -61 64 -73 124 c 0
 -78 146 -80 170 -80 195 c 0
 -80 237 -75 276 -63 313 c 1
 -60 331 -55 351 -47 371 c 0
 -30 426 -4 479 29 531 c 1
 60 582 97 624 138 656 c 0
 221 719 303 751 383 751 c 0
 444 751 492 736 527 707 c 0
 551 686 566 664 573 641 c 1
 693 1012 l 1
68 144 m 1
 90 99 134 78 200 80 c 0
 226 80 257 87 290 102 c 0
 318 114 344 133 367 158 c 0
 416 211 453 274 478 345 c 1
 491 388 498 432 501 475 c 1
 501 493 l 2
 501 526 498 548 492 561 c 0
 474 607 433 630 370 630 c 0
 300 630 242 607 193 561 c 0
 141 511 103 445 78 361 c 1
 62 316 54 272 54 230 c 0
 54 199 59 171 68 144 c 1
EndSplineSet
EndChar
StartChar: e
Encoding: 101 101 71
OldEncoding: 101
Width: 728
Flags: HW
HStem: -17 102<215 247.21> 333 104<162 562> 671 95<459.65 499.2>
VStem: -22 123<197 233.815>
Fore
654 333 m 1
 122 333 l 1
 113 308 107 281 104 252 c 1
 101 234 l 1
 101 209 104 189 110 175 c 0
 135 115 180 85 247 85 c 0
 280 85 311 90 340 102 c 0
 371 116 394 130 411 143 c 0
 427 156 443 173 460 194 c 0
 476 215 486 230 490 238 c 1
 609 238 l 1
 578 179 541 130 497 93 c 1
 460 58 417 32 368 13 c 1
 319 -7 269 -17 217 -17 c 0
 166 -17 122 -7 83 13 c 0
 43 34 15 63 -3 102 c 0
 -15 132 -22 165 -22 199 c 0
 -22 251 -11 309 11 374 c 0
 52 497 113 591 194 656 c 0
 285 730 387 766 499 766 c 1
 526 764 553 758 578 749 c 0
 606 739 627 727 640 712 c 1
 661 695 674 678 680 661 c 0
 692 631 700 598 704 562 c 5
 704 550 l 2
 704 526 701 501 696 475 c 0
 688 444 674 397 654 333 c 1
161 437 m 1
 562 437 l 1
 573 464 578 495 578 530 c 2
 578 537 l 1
 576 571 572 594 565 606 c 1
 562 622 552 636 534 647 c 0
 506 663 481 671 460 671 c 0
 388 673 328 652 280 606 c 1
 263 595 242 573 217 539 c 0
 197 512 179 478 161 437 c 1
EndSplineSet
MinimumDistance: x3,-1 
EndChar
StartChar: f
Encoding: 102 102 72
OldEncoding: 102
Width: 358
Flags: HW
HStem: -1 21G<-67.3701 49.0195> 621 106<70 125 289 365> 913 102<433 463>
DStem: 133.77 621.195 252.42 621.195 -67.3701 -1.43457 49.0195 -1.43457 208.35 850.585 319.09 833.635 168.8 727.415 287.45 727.415
Fore
-67 -1 m 1
 134 621 l 1
 37 621 l 1
 72 727 l 1
 169 727 l 1
 208 851 l 2
 223 898 251 937 292 968 c 0
 330 996 358 1010 377 1010 c 1
 396 1013 416 1015 435 1015 c 0
 460 1015 480 1013 495 1010 c 1
 463 913 l 1
 420 913 389 908 368 899 c 1
 344 884 327 862 319 834 c 2
 287 727 l 1
 403 727 l 1
 365 621 l 1
 252 621 l 1
 49 -1 l 1
 -67 -1 l 1
EndSplineSet
MinimumDistance: x12,-1 
EndChar
StartChar: g
Encoding: 103 103 73
OldEncoding: 103
Width: 726
Flags: HW
HStem: 654 128<451.18 481.69> 740 20G<682.83 795.83>
VStem: -88 128<-115 -104> 5 130<220 247>
Fore
683 760 m 1
 796 760 l 1
 599 154 l 1
 583 103 560 42 528 -29 c 1
 503 -78 472 -122 433 -163 c 0
 396 -200 351 -227 296 -244 c 0
 247 -258 205 -267 169 -272 c 1
 95 -272 42 -265 12 -251 c 0
 -25 -235 -51 -216 -64 -194 c 1
 -80 -173 -88 -150 -88 -124 c 2
 -88 -121 l 1
 -88 -115 l 2
 -88 -93 -86 -73 -81 -52 c 1
 40 -52 l 1
 38 -75 l 1
 38 -84 l 1
 40 -103 l 1
 40 -111 44 -118 51 -126 c 0
 59 -136 71 -146 86 -154 c 0
 105 -165 134 -170 172 -170 c 0
 210 -170 247 -164 285 -152 c 1
 323 -134 348 -118 359 -103 c 1
 375 -89 391 -66 407 -33 c 0
 435 19 457 70 473 119 c 1
 376 37 284 -4 197 -2 c 0
 146 1 102 23 65 64 c 1
 33 89 14 127 7 179 c 1
 5 221 l 1
 5 260 12 303 25 349 c 0
 46 414 72 473 102 526 c 0
 140 589 175 636 208 667 c 0
 231 688 270 713 325 742 c 1
 381 768 433 782 482 782 c 0
 562 780 619 743 652 672 c 1
 683 760 l 1
424 166 m 0
 481 212 525 283 559 380 c 0
 574 425 581 469 581 513 c 2
 581 524 l 2
 581 559 575 586 563 605 c 1
 561 613 548 624 526 638 c 1
 504 649 479 654 451 654 c 0
 369 654 301 618 248 548 c 0
 220 512 191 457 160 383 c 1
 143 327 135 281 135 246 c 0
 135 223 138 203 144 188 c 0
 166 136 204 110 259 110 c 0
 321 108 376 127 424 166 c 0
EndSplineSet
MinimumDistance: x43,-1 
EndChar
StartChar: h
Encoding: 104 104 74
OldEncoding: 104
Width: 736
Flags: HW
HStem: -1 21G<-103.005 12.2549 356.905 475.555> 642 107<382.895 482.335> 990 20G<224.695 341.085>
VStem: 531 131<563.825 607.895>
DStem: 224.695 1010.17 341.085 1010.17 -103.005 -1.1748 220.175 639.535 224.695 1010.17 164.805 473.425 -103.005 -1.1748 12.2549 -1.1748 519.625 496.025 652.965 551.395 356.905 -1.1748 475.555 -1.1748
Fore
-103 -1 m 1
 225 1010 l 1
 341 1010 l 1
 220 640 l 1
 268 679 320 709 376 730 c 1
 429 743 464 749 482 749 c 0
 510 749 546 740 591 723 c 0
 632 705 655 679 660 644 c 1
 662 608 l 1
 662 585 659 566 653 551 c 1
 476 -1 l 1
 357 -1 l 1
 520 496 l 2
 527 518 531 540 531 564 c 0
 531 593 521 613 500 624 c 1
 466 636 427 642 383 642 c 1
 346 635 301 614 248 580 c 1
 205 549 177 513 165 473 c 1
 12 -1 l 1
 -103 -1 l 1
EndSplineSet
MinimumDistance: x8,-1 
EndChar
StartChar: i
Encoding: 105 105 75
OldEncoding: 105
Width: 290
Flags: HW
HStem: -1 21G<-88.5449 26.7148> 990 20G<239.155 355.545>
DStem: 148.755 727.675 265.145 727.675 -88.5449 -1.1748 26.7148 -1.1748 239.155 1010.17 355.545 1010.17 192.825 866.665 309.215 866.665
Fore
265 728 m 1
 27 -1 l 1
 -89 -1 l 1
 149 728 l 1
 265 728 l 1
356 1010 m 1
 309 867 l 1
 193 867 l 1
 239 1010 l 1
 356 1010 l 1
EndSplineSet
EndChar
StartChar: j
Encoding: 106 106 76
OldEncoding: 106
Width: 296
Flags: HW
HStem: 725 20G<207.3 324.82> 1008 20G<296.57 415.22>
DStem: 207.3 745.095 324.82 745.095 -72.9404 -118.225 35.54 -143.085 296.57 1027.59 415.22 1027.59 250.24 884.085 368.89 884.085
Fore
250 884 m 1
 297 1028 l 1
 415 1028 l 1
 369 884 l 1
 250 884 l 1
-249 -287 m 1
 -216 -185 l 1
 -145 -178 l 2
 -125 -176 -109 -168 -99 -156 c 0
 -85 -141 -77 -129 -73 -118 c 2
 207 745 l 1
 325 745 l 1
 36 -143 l 1
 26 -169 10 -196 -13 -222 c 1
 -40 -248 -73 -266 -112 -278 c 0
 -140 -284 -185 -287 -249 -287 c 1
EndSplineSet
EndChar
StartChar: k
Encoding: 107 107 77
OldEncoding: 107
Width: 656
Flags: HW
HStem: -1 21G<-118.605 -4.47461 351.475 494.985> 990 20G<207.965 323.225>
DStem: 207.965 1010.17 323.225 1010.17 -118.605 -1.1748 134.515 424.835 207.965 1010.17 85.9248 272.285 -118.605 -1.1748 -4.47461 -1.1748 240.735 387.545 353.735 475.685 351.475 -1.1748 494.985 -1.1748 541.315 727.675 691.605 727.675 134.515 424.835 353.735 475.685
Fore
208 1010 m 1
 323 1010 l 1
 135 425 l 1
 541 728 l 1
 692 728 l 1
 354 476 l 1
 495 -1 l 1
 351 -1 l 1
 241 388 l 1
 86 272 l 1
 -4 -1 l 1
 -119 -1 l 1
 208 1010 l 1
EndSplineSet
EndChar
StartChar: l
Encoding: 108 108 78
OldEncoding: 108
Width: 289
Flags: HW
HStem: -1 21G<-86.5449 28.7148> 990 20G<241.155 357.545>
DStem: 241.155 1010.17 357.545 1010.17 -86.5449 -1.1748 28.7148 -1.1748
Fore
-87 -1 m 1
 241 1010 l 1
 358 1010 l 1
 29 -1 l 1
 -87 -1 l 1
EndSplineSet
EndChar
StartChar: m
Encoding: 109 109 79
OldEncoding: 109
Width: 1093
Flags: HW
HStem: 657 107<408.705 484.415 824.545 887.825>
DStem: 148.805 742.69 179.315 483.92 -86.2354 13.8398 29.0254 13.8398 503.625 537.03 609.845 508.78 334.125 13.8398 450.515 13.8398 923.985 534.77 1056.2 583.36 755.615 13.8398 873.135 13.8398
Fore
-86 14 m 1
 149 743 l 1
 265 743 l 1
 235 650 l 1
 281 697 316 725 339 734 c 0
 382 754 431 764 484 764 c 0
 538 764 576 755 599 736 c 0
 622 715 639 688 649 655 c 1
 696 694 l 1
 706 704 718 713 733 722 c 2
 774 745 l 1
 814 758 852 764 888 764 c 0
 953 764 996 756 1017 740 c 1
 1031 733 1041 720 1047 703 c 1
 1057 686 1063 667 1065 646 c 1
 1065 639 l 2
 1065 616 1062 598 1056 583 c 1
 873 14 l 1
 756 14 l 1
 924 535 l 2
 926 542 927 553 927 566 c 0
 927 627 893 657 825 657 c 0
 776 657 733 643 696 615 c 0
 657 586 629 550 610 509 c 1
 451 14 l 1
 334 14 l 1
 504 537 l 1
 508 553 510 567 510 579 c 0
 510 631 477 657 409 657 c 0
 363 657 318 641 274 608 c 0
 225 571 193 529 179 484 c 1
 29 14 l 1
 -86 14 l 1
EndSplineSet
MinimumDistance: x16,-1 
EndChar
StartChar: n
Encoding: 110 110 80
OldEncoding: 110
Width: 731
Flags: HW
DStem: 168.97 742.673 173.49 400.283 -67.2002 13.8232 49.1904 13.8232 559.95 521.193 694.42 581.083 393.84 13.8232 511.36 13.8232
Fore
169 743 m 1
 285 743 l 1
 255 650 l 1
 300 693 336 720 363 731 c 1
 409 755 462 766 522 764 c 0
 571 764 609 758 635 745 c 1
 658 731 676 711 690 687 c 0
 697 672 701 655 701 636 c 0
 701 620 699 601 694 581 c 1
 511 14 l 1
 394 14 l 1
 560 521 l 1
 567 540 570 556 570 570 c 1
 566 595 l 1
 557 617 544 633 528 641 c 0
 508 652 485 657 458 657 c 0
 404 657 350 637 297 597 c 0
 246 559 205 494 173 400 c 1
 49 14 l 1
 -67 14 l 1
 169 743 l 1
EndSplineSet
MinimumDistance: x8,-1 
EndChar
StartChar: o
Encoding: 111 111 81
OldEncoding: 111
Width: 729
Flags: HW
HStem: -17 119<209 247.925> 650 116<425 466.015>
Fore
-18 126 m 0
 -23 147 -26 170 -26 197 c 0
 -26 243 -15 302 7 374 c 1
 42 477 87 560 144 623 c 1
 193 674 245 711 299 733 c 0
 352 755 408 766 466 766 c 0
 519 766 567 754 610 731 c 1
 649 707 674 671 685 623 c 0
 693 596 697 571 697 546 c 0
 697 497 686 439 665 374 c 0
 635 278 589 196 528 126 c 0
 484 78 434 42 378 18 c 0
 318 -5 263 -17 211 -17 c 0
 156 -17 108 -5 67 18 c 0
 26 41 -2 77 -18 126 c 0
248 102 m 0
 286 102 323 111 359 129 c 0
 396 147 429 175 456 212 c 0
 500 270 529 324 544 374 c 0
 557 418 563 458 563 493 c 1
 561 539 l 1
 558 576 544 604 519 623 c 0
 494 641 463 650 426 650 c 0
 392 650 354 641 312 625 c 1
 272 604 237 576 208 539 c 1
 158 446 l 2
 142 418 132 394 126 374 c 0
 115 343 109 302 109 252 c 2
 109 212 l 1
 116 175 131 148 155 129 c 0
 181 111 212 102 248 102 c 0
EndSplineSet
EndChar
StartChar: p
Encoding: 112 112 82
OldEncoding: 112
Width: 732
Flags: HW
HStem: -272 21G<-135.415 -17.8945> -2 121<293 312> 740 20G<200.195 301.895>
VStem: 622 137<518 554.45>
DStem: 200.195 760.11 301.895 760.11 -135.415 -271.58 271.385 667.45 200.195 760.11 105.275 110.36 -135.415 -271.58 -17.8945 -271.58
Fore
-18 -272 m 1
 -135 -272 l 1
 200 760 l 1
 302 760 l 1
 271 667 l 1
 297 693 340 722 399 753 c 1
 438 772 483 782 534 782 c 0
 588 782 633 771 668 751 c 0
 712 725 739 684 751 626 c 0
 756 605 759 581 759 554 c 0
 759 518 753 478 741 436 c 2
 728 383 l 1
 710 325 684 270 651 219 c 0
 617 165 579 124 538 93 c 0
 455 30 374 -2 295 -2 c 0
 234 -2 186 13 152 43 c 0
 127 63 112 86 105 110 c 1
 -18 -272 l 1
607 605 m 0
 588 652 544 674 476 672 c 0
 458 672 428 664 388 649 c 1
 357 632 331 613 311 592 c 0
 257 534 221 472 200 404 c 0
 187 365 180 324 178 281 c 1
 178 270 l 2
 178 234 181 207 187 188 c 1
 198 165 215 148 237 137 c 1
 257 125 280 119 306 119 c 0
 378 119 437 142 483 188 c 0
 534 237 572 303 596 385 c 1
 613 435 622 479 622 519 c 0
 622 552 617 580 607 605 c 0
EndSplineSet
EndChar
StartChar: q
Encoding: 113 113 83
OldEncoding: 113
Width: 721
Flags: HW
HStem: -272 21G<350.475 466.865> -2 121<211.485 277.025> 672 110<465 482> 740 20G<700.775 800.215>
VStem: -3 139<215 253.87>
DStem: 473.645 110.36 800.215 760.11 350.475 -271.58 466.865 -271.58 700.775 760.11 800.215 760.11 670.265 667.45 466.865 -271.58
Fore
467 -272 m 1
 350 -272 l 1
 474 110 l 1
 452 86 422 63 383 43 c 0
 330 13 273 -2 211 -2 c 0
 133 -2 72 30 30 93 c 0
 8 127 -3 168 -3 217 c 0
 -3 266 7 319 27 378 c 2
 48 436 l 1
 79 509 118 572 163 626 c 0
 209 681 263 722 326 751 c 0
 374 771 425 782 480 782 c 0
 535 782 575 772 598 753 c 0
 631 727 655 698 670 667 c 1
 701 760 l 1
 800 760 l 1
 467 -272 l 1
293 605 m 1
 230 544 184 470 156 383 c 0
 143 339 136 296 136 254 c 0
 136 228 139 206 145 188 c 0
 163 142 207 119 277 119 c 0
 303 119 333 125 365 137 c 0
 390 147 416 164 443 188 c 1
 487 232 522 286 549 351 c 1
 557 365 563 382 569 402 c 0
 582 446 589 486 589 524 c 0
 589 550 586 573 580 592 c 1
 578 613 565 631 543 647 c 0
 518 664 492 672 467 672 c 0
 402 674 344 652 293 605 c 1
EndSplineSet
EndChar
StartChar: r
Encoding: 114 114 84
OldEncoding: 114
Width: 431
Flags: HW
HStem: 641 123<467 496>
DStem: 176.915 742.69 295.565 742.69 -59.2549 13.8398 258.275 629.69 176.915 742.69 181.435 393.52 -59.2549 13.8398 59.3945 13.8398
Fore
-59 14 m 1
 177 743 l 1
 296 743 l 1
 258 630 l 1
 289 664 327 697 371 727 c 1
 410 749 443 762 468 764 c 1
 536 764 l 1
 497 641 l 1
 447 641 409 636 381 625 c 0
 330 605 290 578 261 544 c 0
 230 506 203 456 181 394 c 1
 59 14 l 1
 -59 14 l 1
EndSplineSet
MinimumDistance: x2,-1 
EndChar
StartChar: s
Encoding: 115 115 85
OldEncoding: 115
Width: 655
Flags: HW
VStem: -52 124<133.284 166.054> 437 120<233.854 284.704> 514 123<578.504 622.574>
Fore
-38 230 m 1
 75 230 l 1
 72 175 l 1
 72 166 l 2
 72 153 78 140 90 127 c 0
 100 114 122 102 154 90 c 1
 171 87 205 85 256 85 c 1
 305 94 338 104 355 115 c 1
 369 121 385 134 401 155 c 1
 417 171 427 187 432 203 c 1
 437 234 l 1
 437 261 419 282 383 296 c 1
 322 312 l 2
 282 322 258 329 251 331 c 2
 189 349 l 2
 167 355 150 362 138 369 c 1
 94 388 72 421 72 469 c 0
 72 492 78 519 87 548 c 0
 108 615 151 668 216 707 c 0
 281 746 351 766 427 766 c 0
 568 766 637 718 637 623 c 0
 637 599 633 572 624 541 c 1
 508 541 l 1
 512 555 514 567 514 579 c 0
 514 594 510 608 501 623 c 0
 487 643 447 654 379 656 c 1
 306 652 251 627 214 581 c 0
 209 575 203 564 198 546 c 1
 194 517 l 1
 194 500 201 487 216 479 c 2
 253 460 l 1
 302 446 l 1
 369 425 l 1
 435 414 485 395 520 369 c 0
 544 352 557 324 557 285 c 0
 557 255 551 224 540 190 c 1
 525 152 499 118 464 87 c 1
 427 52 388 28 348 14 c 0
 302 -5 256 -15 209 -17 c 0
 156 -19 110 -16 70 -7 c 0
 -11 11 -52 58 -52 133 c 0
 -52 162 -47 194 -38 230 c 1
EndSplineSet
MinimumDistance: x20,-1 
EndChar
StartChar: t
Encoding: 116 116 86
OldEncoding: 116
Width: 361
Flags: HW
HStem: 628 106<82 151 319 381>
DStem: 151.255 628.28 268.775 628.28 -27.2852 76.8398 104.925 120.91 250.695 931.12 365.955 931.12 185.155 734.5 303.805 734.5
Fore
366 931 m 1
 304 734 l 1
 417 734 l 1
 382 628 l 1
 269 628 l 1
 105 121 l 1
 103 107 l 1
 103 89 119 80 151 80 c 1
 207 85 l 1
 174 -17 l 1
 144 -24 101 -27 46 -27 c 1
 14 -23 -8 -9 -21 15 c 1
 -28 34 -32 47 -32 56 c 1
 -27 77 l 1
 151 628 l 1
 50 628 l 1
 83 734 l 1
 185 734 l 1
 251 931 l 1
 366 931 l 1
EndSplineSet
EndChar
StartChar: u
Encoding: 117 117 87
OldEncoding: 117
Width: 725
Flags: HW
HStem: -16 112<151.95 193.76> 726 20G<167.77 284.16 628.81 746.33>
DStem: 167.77 745.81 284.16 745.81 -20.9404 164.99 114.66 229.4 628.81 745.81 746.33 745.81 501.12 350.31 509.03 16.96
Fore
509 17 m 1
 393 17 l 1
 419 96 l 1
 376 55 339 28 309 15 c 0
 259 -6 207 -16 152 -16 c 0
 104 -16 68 -10 41 1 c 1
 -2 28 -24 69 -24 123 c 0
 -24 142 -23 156 -21 165 c 1
 168 746 l 1
 284 746 l 1
 115 229 l 1
 109 214 106 196 106 176 c 0
 106 151 115 130 134 114 c 0
 150 102 170 96 194 96 c 0
 228 96 256 98 277 103 c 1
 341 124 389 156 423 198 c 0
 455 237 481 288 501 350 c 2
 629 746 l 1
 746 746 l 1
 509 17 l 1
EndSplineSet
EndChar
StartChar: v
Encoding: 118 118 88
OldEncoding: 118
Width: 640
Flags: HW
HStem: 724 20G<80.9102 209.73 610.88 743.09>
VStem: 81 127<154.219 736>
Fore
224 15 m 1
 97 15 l 1
 81 744 l 1
 210 744 l 1
 208 154 l 1
 611 744 l 1
 743 744 l 1
 224 15 l 1
EndSplineSet
MinimumDistance: x4,-1 
EndChar
StartChar: w
Encoding: 119 119 89
OldEncoding: 119
Width: 931
Flags: HW
HStem: 724 20G<60.5947 189.415 474.175 617.685 902.445 1034.66>
DStem: 474.175 743.925 480.955 567.645 148.735 176.665 162.295 15.0752
Fore
32 15 m 1
 61 744 l 1
 189 744 l 1
 149 177 l 1
 474 744 l 1
 618 744 l 1
 569 177 l 1
 902 744 l 1
 1035 744 l 1
 580 15 l 1
 452 15 l 1
 481 568 l 1
 162 15 l 1
 32 15 l 1
EndSplineSet
MinimumDistance: x11,-1 
EndChar
StartChar: x
Encoding: 120 120 90
OldEncoding: 120
Width: 654
Flags: HW
HStem: 724 20G<120.2 252.41 603.84 736.05>
DStem: 120.2 743.925 252.41 743.925 245.63 387.975 345.07 487.415 245.63 387.975 276.14 288.535 -134.05 15.0752 -1.83984 15.0752 276.14 288.535 373.32 390.235 367.67 15.0752 499.88 15.0752 603.84 743.925 736.05 743.925 345.07 487.415 373.32 390.235
Fore
276 289 m 1
 -2 15 l 1
 -134 15 l 1
 246 388 l 1
 120 744 l 1
 252 744 l 1
 345 487 l 1
 604 744 l 1
 736 744 l 1
 373 390 l 1
 500 15 l 1
 368 15 l 1
 276 289 l 1
EndSplineSet
EndChar
StartChar: y
Encoding: 121 121 91
OldEncoding: 121
Width: 651
Flags: HW
HStem: -270 113<-73.085 -16.585> 741 20G<154.045 277.215 665.935 790.235>
VStem: 152 125<212 754>
DStem: 151.785 21.1953 790.235 761.345 70.4248 -95.1953 165.345 -137.005 154.045 761.345 277.215 761.345 151.785 21.1953 281.735 211.035 665.935 761.345 790.235 761.345 281.735 211.035 165.345 -137.005
Fore
666 761 m 1
 790 761 l 1
 165 -137 l 1
 129 -191 83 -230 26 -252 c 0
 -5 -264 -38 -270 -73 -270 c 0
 -99 -270 -120 -265 -135 -255 c 1
 -98 -146 l 1
 -81 -154 -53 -157 -17 -157 c 1
 16 -152 45 -132 70 -95 c 2
 152 21 l 1
 154 761 l 1
 277 761 l 1
 282 211 l 1
 666 761 l 1
EndSplineSet
EndChar
StartChar: z
Encoding: 122 122 92
OldEncoding: 122
Width: 655
Flags: HW
HStem: 15 115<97 478> 629 115<155 499>
DStem: 511.96 628.665 665.64 642.225 -80.1602 109.995 81.4297 130.335
Fore
700 744 m 1
 666 642 l 1
 81 130 l 1
 514 130 l 1
 478 15 l 1
 -110 15 l 1
 -80 110 l 1
 512 629 l 1
 119 629 l 1
 156 744 l 1
 700 744 l 1
EndSplineSet
EndChar
StartChar: braceleft
Encoding: 123 123 93
OldEncoding: 123
Width: 427
Flags: HW
DStem: 55.9502 128.595 166.69 152.325 -20.8896 -109.835 88.7197 -92.8848 292.12 857.445 391.56 843.885 215.28 622.405 310.2 596.415
Fore
12 325 m 1
 42 422 l 1
 88 432 125 453 151 483 c 1
 173 513 195 559 215 622 c 2
 292 857 l 2
 309 907 334 947 368 978 c 0
 405 1011 435 1027 458 1027 c 2
 562 1031 l 1
 533 939 l 1
 467 932 l 2
 448 930 432 922 421 909 c 0
 410 895 401 873 392 844 c 1
 310 596 l 2
 290 535 265 487 234 453 c 1
 207 426 175 399 137 374 c 1
 155 358 170 334 180 303 c 0
 186 290 188 274 188 256 c 0
 188 231 181 197 167 152 c 2
 89 -93 l 1
 79 -118 74 -138 74 -154 c 1
 76 -161 l 1
 79 -173 89 -181 107 -183 c 2
 167 -190 l 1
 140 -280 l 1
 37 -278 l 1
 15 -276 -4 -259 -21 -227 c 0
 -28 -210 -32 -192 -32 -174 c 0
 -32 -156 -28 -135 -21 -110 c 1
 56 129 l 1
 73 182 81 222 81 250 c 1
 79 268 l 1
 74 297 52 316 12 325 c 1
EndSplineSet
MinimumDistance: x11,-1 
EndChar
StartChar: bar
Encoding: 124 124 94
OldEncoding: 124
Width: 339
Flags: HW
HStem: 1007 20G<330.695 414.315>
DStem: 330.695 1027.33 414.315 1027.33 -95.3154 -282.335 -11.6953 -282.335
Fore
414 1027 m 1
 -12 -282 l 1
 -95 -282 l 1
 331 1027 l 1
 414 1027 l 1
EndSplineSet
EndChar
StartChar: braceright
Encoding: 125 125 95
OldEncoding: 125
Width: 447
Flags: HW
VStem: 193 102<499 514>
DStem: 64.6055 152.325 161.785 128.595 -14.4951 -92.8848 82.6846 -109.835 288.345 843.885 397.955 857.445 210.375 596.415 321.115 622.405
Fore
367 422 m 1
 335 325 l 1
 286 316 251 297 228 268 c 0
 205 240 183 193 162 129 c 2
 83 -110 l 1
 71 -143 55 -171 36 -195 c 0
 21 -215 -1 -235 -28 -256 c 1
 -48 -268 -67 -276 -83 -278 c 1
 -186 -280 l 1
 -158 -190 l 1
 -94 -183 l 2
 -75 -181 -59 -173 -47 -158 c 0
 -34 -143 -23 -121 -14 -93 c 1
 65 152 l 2
 84 213 112 263 149 300 c 0
 183 335 213 359 237 374 c 1
 226 393 l 1
 218 403 210 419 204 442 c 1
 197 455 193 475 193 501 c 2
 193 508 l 1
 193 513 l 2
 193 538 199 566 210 596 c 1
 288 844 l 1
 298 872 303 890 303 899 c 1
 301 909 l 2
 298 922 288 930 270 932 c 2
 210 939 l 1
 240 1031 l 1
 339 1027 l 1
 357 1025 370 1017 381 1003 c 0
 397 981 405 961 407 943 c 1
 409 921 l 1
 409 905 405 884 398 857 c 1
 321 622 l 1
 304 563 295 522 295 499 c 1
 297 483 l 1
 303 453 327 432 367 422 c 1
EndSplineSet
MinimumDistance: x32,-1 
EndChar
StartChar: asciitilde
Encoding: 126 126 96
OldEncoding: 126
Width: 762
Flags: HW
HStem: 371 95<474.585 509.615> 522 88<214.685 242.935>
DStem: 256.495 500.105 309.605 590.505 375.145 405.185 457.635 482.025
Fore
104 405 m 1
 30 405 l 1
 56 479 89 531 128 561 c 1
 167 594 205 610 243 610 c 0
 272 610 294 603 310 591 c 2
 458 482 l 2
 471 471 489 466 510 466 c 0
 528 466 544 471 558 480 c 0
 576 492 594 523 611 572 c 1
 683 572 l 1
 661 511 632 462 594 427 c 0
 555 390 515 371 475 371 c 0
 442 371 409 383 375 405 c 1
 256 500 l 1
 247 514 234 522 215 522 c 0
 195 522 174 511 153 489 c 0
 131 468 115 440 104 405 c 1
EndSplineSet
MinimumDistance: x5,-1 
EndChar
StartChar: uni0E10.descless
Encoding: 128 63232 97
OldEncoding: 63232
Width: 692
Flags: HW
HStem: -1 21G<327.015 442.275> 198 70<168 190.285> 411 71<237 262.605> 652 85<662.625 693.135> 721 79<413 437>
VStem: 65 75<292.715 318.705>
DStem: 468.265 380.855 567.705 385.375 408.375 191.015 442.275 -1.08496
Fore
263 482 m 0
 292 482 317 474 338 458 c 0
 360 440 373 418 378 390 c 1
 408 191 l 1
 468 381 l 2
 479 413 484 441 484 464 c 0
 484 478 482 489 477 498 c 0
 467 519 437 538 389 555 c 0
 347 568 295 580 234 591 c 1
 182 603 140 610 109 613 c 1
 155 662 208 707 269 747 c 1
 327 782 383 800 435 800 c 0
 468 800 494 797 515 792 c 0
 550 780 573 772 584 767 c 2
 643 744 l 1
 660 739 677 737 693 737 c 0
 721 737 750 743 780 756 c 1
 771 675 l 1
 731 660 695 652 663 652 c 0
 641 652 623 654 610 659 c 2
 542 684 l 1
 473 712 l 2
 457 718 438 721 415 721 c 0
 393 721 366 715 334 703 c 1
 305 689 288 678 283 670 c 1
 327 659 l 1
 404 635 l 1
 475 617 l 2
 541 598 579 573 588 540 c 1
 590 513 l 2
 593 485 585 443 568 385 c 1
 442 -1 l 1
 327 -1 l 1
 332 87 l 1
 329 149 l 1
 321 214 315 254 311 268 c 1
 298 248 277 231 250 217 c 0
 222 204 196 198 170 198 c 0
 125 198 95 212 80 240 c 0
 70 257 65 275 65 293 c 0
 65 305 67 320 73 339 c 0
 87 381 111 415 144 441 c 0
 179 469 218 482 263 482 c 0
190 268 m 0
 214 268 234 275 250 288 c 0
 269 303 281 320 285 339 c 1
 290 367 l 1
 285 390 l 1
 278 404 263 411 239 411 c 0
 218 411 198 404 179 390 c 1
 160 373 148 356 142 339 c 1
 140 319 l 1
 140 307 142 297 146 290 c 0
 153 275 168 268 190 268 c 0
EndSplineSet
MinimumDistance: x30,-1 
EndChar
StartChar: uni0E34.left
Encoding: 129 63233 98
OldEncoding: 63233
Width: 0
Flags: HW
DStem: -510.315 989.115 -510.315 989.115 -599.585 986.855 -431.215 986.855
Fore
-374 1170 m 1
 -273 1156 -213 1117 -193 1051 c 0
 -175 998 -167 947 -167 899 c 1
 -169 841 l 1
 -279 881 l 1
 -316 893 -370 904 -440 913 c 0
 -479 918 -521 920 -566 920 c 0
 -630 920 -678 919 -707 916 c 0
 -695 916 -725 912 -796 903 c 1
 -774 949 -739 993 -692 1035 c 0
 -649 1077 -598 1110 -540 1135 c 0
 -488 1158 -432 1170 -374 1170 c 1
-413 1098 m 1
 -461 1098 -508 1086 -553 1061 c 0
 -601 1037 -634 1010 -650 982 c 1
 -600 987 l 1
 -510 989 l 1
 -431 987 l 1
 -374 982 -330 973 -299 960 c 0
 -267 946 -248 936 -241 929 c 1
 -253 1026 -310 1082 -413 1098 c 1
EndSplineSet
EndChar
StartChar: uni0E35.left
Encoding: 130 63234 99
OldEncoding: 63234
Width: 0
Flags: HW
HStem: 915 67<-573.502 -525.009>
DStem: -518.165 983.785 -518.165 983.785 -610.825 981.525 -439.065 981.525 -158.825 1257.25 -71.8154 1257.25 -219.845 1074.19 -178.035 935.195
Fore
-220 1074 m 1
 -159 1257 l 1
 -72 1257 l 5
 -178 935 l 1
 -178 935 l 1
 -177 935 -176 924 -176 900 c 1
 -180 836 l 1
 -208 848 -244 861 -287 875 c 0
 -326 887 -381 898 -451 908 c 0
 -490 913 -531 915 -574 915 c 2
 -715 910 l 1
 -805 898 l 1
 -780 946 -745 991 -701 1032 c 0
 -657 1072 -607 1105 -551 1130 c 0
 -497 1153 -441 1165 -381 1165 c 1
 -345 1160 -314 1151 -289 1136 c 0
 -269 1127 -252 1114 -238 1100 c 0
 -230 1092 -224 1083 -220 1074 c 1
-423 1092 m 1
 -456 1092 -488 1086 -520 1074 c 0
 -554 1062 -582 1047 -604 1030 c 1
 -629 1014 -647 997 -659 977 c 1
 -611 982 l 1
 -518 984 l 1
 -439 982 l 1
 -383 977 -340 968 -308 954 c 0
 -282 944 -263 934 -251 924 c 1
 -254 961 -266 997 -289 1032 c 1
 -315 1066 -360 1085 -423 1092 c 1
EndSplineSet
EndChar
StartChar: uni0E36.left
Encoding: 131 63235 100
OldEncoding: 63235
Width: 0
Flags: HW
HStem: 914 67<-574.06 -525.045> 1208 62<-175 -154.89>
DStem: -518.75 983.005 -518.75 983.005 -611.41 980.745 -439.65 980.745
Fore
-70 1146 m 0
 -79 1116 -95 1089 -119 1067 c 0
 -143 1043 -168 1029 -194 1025 c 1
 -189 1012 -184 986 -179 948 c 1
 -174 902 l 1
 -174 881 -176 858 -181 835 c 1
 -209 847 -244 860 -287 875 c 0
 -327 887 -382 898 -452 907 c 0
 -490 912 -531 914 -574 914 c 2
 -715 910 l 1
 -806 897 l 1
 -767 975 -709 1040 -629 1091 c 1
 -556 1143 -486 1168 -419 1168 c 0
 -394 1168 -373 1166 -357 1162 c 0
 -338 1156 -326 1152 -320 1148 c 1
 -311 1178 -290 1206 -257 1230 c 1
 -226 1257 -193 1270 -155 1270 c 0
 -114 1270 -87 1258 -75 1233 c 0
 -66 1219 -62 1204 -62 1186 c 0
 -62 1177 -65 1164 -70 1146 c 0
-174 1208 m 0
 -193 1208 -209 1202 -223 1191 c 0
 -235 1180 -245 1167 -252 1150 c 1
 -254 1133 l 1
 -254 1125 -252 1117 -248 1111 c 0
 -240 1098 -228 1091 -211 1091 c 0
 -197 1091 -181 1098 -163 1111 c 0
 -148 1123 -139 1136 -137 1150 c 1
 -132 1171 l 1
 -137 1191 l 1
 -143 1202 -155 1208 -174 1208 c 0
-424 1091 m 1
 -456 1091 -489 1085 -521 1073 c 0
 -555 1061 -583 1047 -605 1029 c 1
 -629 1014 -648 996 -660 976 c 1
 -611 981 l 1
 -519 983 l 1
 -440 981 l 1
 -384 976 -340 967 -309 954 c 0
 -282 943 -263 933 -252 923 c 1
 -254 959 -268 994 -292 1029 c 0
 -315 1062 -359 1082 -424 1091 c 1
EndSplineSet
EndChar
StartChar: uni0E37.left
Encoding: 132 63236 101
OldEncoding: 63236
Width: 0
Flags: HW
HStem: 915 67<-587.502 -537.99>
DStem: -532.165 983.785 -532.165 983.785 -624.825 981.525 -453.065 981.525 -344.585 1257.25 -258.705 1257.25 -377.355 1162.33 -298.255 1134.08 -172.825 1257.25 -85.8154 1257.25 -233.845 1071.92 -192.035 932.935
Fore
-192 933 m 1
 -191 933 -190 929 -190 922 c 1
 -194 836 l 1
 -222 848 -258 861 -301 875 c 0
 -340 887 -395 898 -465 908 c 0
 -504 913 -545 915 -588 915 c 2
 -729 910 l 1
 -819 898 l 1
 -792 951 -757 997 -715 1035 c 1
 -671 1077 -623 1109 -572 1132 c 1
 -521 1157 -473 1169 -426 1169 c 0
 -409 1169 -393 1167 -377 1162 c 1
 -345 1257 l 1
 -259 1257 l 1
 -298 1134 l 1
 -266 1120 -244 1099 -234 1072 c 1
 -173 1257 l 1
 -86 1257 l 1
 -192 933 l 1
-437 1092 m 1
 -486 1092 -533 1080 -578 1056 c 0
 -624 1031 -655 1005 -673 977 c 1
 -625 982 l 1
 -532 984 l 1
 -453 982 l 1
 -397 977 -354 968 -322 954 c 0
 -296 944 -277 934 -265 924 c 1
 -278 1020 -335 1076 -437 1092 c 1
EndSplineSet
EndChar
StartChar: ellipsis
Encoding: 133 8230 102
OldEncoding: 8230
Width: 1087
Flags: HW
Fore
847 58 m 4
 838 8 803 -20 741 -27 c 5
 687 -27 662 1 666 58 c 5
 681 119 718 150 778 150 c 4
 803 150 822 141 836 123 c 4
 848 107 852 85 847 58 c 4
493 58 m 4
 484 8 449 -20 387 -27 c 5
 333 -27 308 1 313 58 c 5
 326 119 363 150 423 150 c 4
 448 150 468 141 482 123 c 5
 494 105 498 83 493 58 c 4
139 58 m 5
 129 1 93 -27 32 -27 c 4
 -28 -27 -52 1 -41 58 c 4
 -27 119 9 150 70 150 c 4
 130 150 153 119 139 58 c 5
EndSplineSet
EndChar
StartChar: uni0E48.low_left
Encoding: 134 63237 103
OldEncoding: 63237
Width: 0
Flags: W
DStem: -198 1219 -109 1219 -311 869 -222 869
Fore
-311 869 m 5
 -198 1219 l 5
 -109 1219 l 5
 -222 869 l 5
 -311 869 l 5
EndSplineSet
EndChar
StartChar: uni0E49.low_left
Encoding: 135 63238 104
OldEncoding: 63238
Width: 0
Flags: W
HStem: 973 60<-504 -492> 1159 67<-450 -428>
VStem: -405 79<1119 1135>
Fore
-333 1092 m 4
 -348 1045 -368 1008 -390 980 c 5
 -419 950 -437 932 -443 927 c 5
 -416 927 -385 931 -351 938 c 4
 -317 946 -284 961 -251 985 c 4
 -184 1031 -133 1109 -99 1216 c 5
 -4 1216 l 5
 -58 1052 -150 944 -280 892 c 4
 -346 866 -413 854 -481 854 c 4
 -507 854 -533 856 -560 860 c 6
 -611 869 l 5
 -597 875 -579 886 -558 902 c 4
 -533 920 -511 944 -490 976 c 4
 -491 974 -496 973 -504 973 c 6
 -527 971 l 6
 -540 971 -551 973 -560 976 c 4
 -597 987 -615 1012 -615 1050 c 4
 -615 1065 -613 1080 -608 1097 c 4
 -596 1133 -572 1164 -538 1189 c 4
 -505 1213 -468 1226 -428 1226 c 4
 -385 1226 -355 1212 -339 1186 c 4
 -330 1170 -326 1153 -326 1135 c 4
 -326 1122 -328 1108 -333 1092 c 4
-450 1159 m 4
 -468 1159 -486 1153 -504 1141 c 4
 -517 1131 -528 1116 -536 1097 c 5
 -538 1077 l 5
 -534 1055 l 5
 -527 1040 -513 1033 -492 1033 c 4
 -478 1033 -466 1037 -456 1043 c 4
 -445 1049 -434 1057 -425 1066 c 5
 -416 1078 -411 1088 -410 1097 c 6
 -405 1119 l 5
 -405 1127 -407 1135 -412 1143 c 4
 -418 1153 -431 1159 -450 1159 c 4
EndSplineSet
EndChar
StartChar: uni0E4A.low_left
Encoding: 136 63239 105
OldEncoding: 63239
Width: 0
Flags: W
HStem: 849 42<-569 -554> 993 41<-523 -509> 1092 63<-487 -468 -335 -300>
VStem: -295 68<1058 1081>
Fore
-569 849 m 4
 -605 851 -629 868 -640 900 c 4
 -646 915 -649 931 -649 949 c 4
 -649 966 -645 988 -638 1014 c 5
 -624 1052 -602 1086 -571 1116 c 5
 -539 1142 -505 1155 -470 1155 c 4
 -455 1155 -441 1153 -428 1147 c 4
 -419 1142 -410 1135 -402 1127 c 4
 -396 1121 -393 1117 -393 1116 c 5
 -393 1116 l 5
 -384 1125 -372 1133 -358 1141 c 4
 -340 1150 -321 1155 -300 1155 c 4
 -262 1155 -240 1143 -233 1118 c 4
 -229 1107 -227 1094 -227 1081 c 4
 -227 1061 -231 1039 -240 1014 c 5
 -251 976 -271 943 -302 915 c 5
 -251 940 l 6
 -231 951 -213 965 -196 981 c 4
 -168 1011 -150 1042 -141 1072 c 4
 -137 1082 -134 1103 -132 1134 c 5
 -55 1160 l 5
 -55 1142 -59 1121 -66 1097 c 4
 -85 1038 -117 986 -161 942 c 4
 -221 883 -309 854 -423 854 c 5
 -419 858 -405 871 -381 891 c 4
 -369 902 -355 917 -340 937 c 4
 -324 958 -313 979 -307 999 c 4
 -299 1026 -295 1045 -295 1058 c 6
 -295 1067 l 5
 -298 1084 -311 1092 -335 1092 c 4
 -351 1092 -366 1087 -381 1076 c 5
 -412 1048 l 5
 -419 1060 l 6
 -423 1067 -430 1074 -439 1081 c 4
 -449 1088 -463 1092 -481 1092 c 4
 -498 1092 -515 1086 -532 1074 c 5
 -547 1059 -558 1041 -564 1021 c 5
 -541 1030 l 5
 -509 1034 l 5
 -480 1034 -460 1025 -448 1006 c 4
 -444 997 -441 987 -441 975 c 4
 -441 963 -444 951 -448 937 c 4
 -456 914 -471 894 -494 877 c 4
 -520 859 -545 849 -569 849 c 4
-523 993 m 4
 -538 993 -552 988 -564 979 c 5
 -577 966 -585 954 -587 942 c 6
 -589 928 l 5
 -585 907 l 5
 -580 896 -570 891 -554 891 c 4
 -538 891 -524 896 -514 907 c 4
 -501 917 -492 929 -488 942 c 5
 -483 961 l 5
 -488 979 l 5
 -494 988 -506 993 -523 993 c 4
EndSplineSet
EndChar
StartChar: uni0E4B.low_left
Encoding: 137 63240 106
OldEncoding: 63240
Width: 0
Flags: W
HStem: 1025 76<-476 -346 -238 -108>
DStem: -346 1025 -260 1025 -397 869 -311 869 -272 1255 -186 1255 -320 1101 -238 1101
Fore
-346 1025 m 5
 -501 1025 l 5
 -475 1101 l 5
 -320 1101 l 5
 -272 1255 l 5
 -186 1255 l 5
 -238 1101 l 5
 -82 1101 l 5
 -108 1025 l 5
 -260 1025 l 5
 -311 869 l 5
 -397 869 l 5
 -346 1025 l 5
EndSplineSet
EndChar
StartChar: uni0E4C.low_left
Encoding: 138 63241 107
OldEncoding: 63241
Width: 0
Flags: W
HStem: 849 75<-344 -319> 1039 62<-282 -261>
VStem: -476 112<953 965>
Fore
-379 1043 m 1
 -371 1055 -358 1066 -340 1078 c 0
 -317 1094 -291 1101 -261 1101 c 0
 -225 1103 -200 1092 -185 1067 c 0
 -175 1049 -170 1034 -170 1021 c 0
 -170 1007 -173 994 -178 981 c 0
 -189 947 -210 917 -240 891 c 0
 -273 863 -308 849 -344 849 c 4
 -399 847 -437 862 -457 895 c 1
 -470 912 -476 931 -476 953 c 0
 -476 970 -473 990 -465 1014 c 0
 -434 1101 -379 1161 -300 1191 c 0
 -258 1210 -206 1220 -145 1224 c 0
 -75 1230 -28 1236 -6 1242 c 0
 23 1252 45 1277 58 1317 c 1
 139 1317 l 1
 128 1278 107 1248 77 1224 c 1
 49 1200 19 1183 -13 1173 c 0
 -56 1160 -104 1152 -157 1150 c 0
 -223 1145 -270 1138 -298 1127 c 0
 -328 1116 -355 1088 -379 1043 c 1
-282 1039 m 0
 -300 1039 -317 1034 -333 1023 c 0
 -345 1013 -355 999 -362 981 c 1
 -364 965 l 1
 -364 956 -362 949 -358 942 c 0
 -350 930 -337 924 -319 924 c 0
 -303 924 -287 930 -273 942 c 1
 -256 952 -247 965 -245 981 c 1
 -243 999 l 1
 -245 1023 l 1
 -251 1034 -263 1039 -282 1039 c 0
EndSplineSet
EndChar
StartChar: uni0E48.low
Encoding: 139 63242 108
OldEncoding: 63242
Width: 0
Flags: W
DStem: 56 1219 145 1219 -58 869 28 869
Fore
-58 869 m 5
 56 1219 l 5
 145 1219 l 5
 28 869 l 5
 -58 869 l 5
EndSplineSet
EndChar
StartChar: uni0E49.low
Encoding: 140 63243 109
OldEncoding: 63243
Width: 0
Flags: HW
HStem: 1122 67<-110 -86.9102>
Fore
22 1092 m 4
 6 1043 -14 1006 -35 980 c 4
 -59 955 -76 937 -88 927 c 5
 -61 927 -30 931 4 938 c 4
 35 945 67 961 101 985 c 4
 171 1034 223 1111 256 1216 c 5
 351 1216 l 5
 297 1051 206 943 79 892 c 4
 15 866 -53 854 -126 854 c 4
 -152 854 -177 856 -199 860 c 6
 -250 869 l 5
 -245 872 -227 883 -197 902 c 5
 -174 920 -153 945 -135 976 c 5
 -146 973 l 5
 -172 971 l 6
 -184 971 -195 973 -204 976 c 4
 -241 987 -259 1012 -259 1050 c 4
 -259 1065 -257 1080 -252 1097 c 4
 -241 1132 -219 1163 -186 1189 c 5
 -152 1213 -115 1226 -75 1226 c 4
 -32 1226 -3 1212 13 1186 c 5
 25 1172 30 1155 30 1135 c 4
 30 1121 28 1107 22 1092 c 4
-98 1159 m 4
 -117 1159 -134 1153 -148 1141 c 4
 -163 1129 -174 1114 -179 1097 c 5
 -181 1077 l 5
 -177 1055 l 5
 -172 1040 -159 1033 -137 1033 c 4
 -117 1033 -99 1040 -84 1055 c 5
 -70 1065 -59 1078 -51 1097 c 5
 -49 1117 l 5
 -53 1141 l 5
 -61 1153 -76 1159 -98 1159 c 4
EndSplineSet
EndChar
StartChar: uni0E4A.low
Encoding: 141 63244 110
OldEncoding: 63244
Width: 0
Flags: W
HStem: 849 42<-244 -230> 993 41<-197 -184> 1092 63<-162 -142 -10 25>
VStem: -327 58<926 949> 30 66<1058 1083> 194 76<1134 1160>
Fore
-244 849 m 4
 -279 851 -304 868 -317 900 c 4
 -324 914 -327 930 -327 949 c 4
 -327 963 -323 985 -315 1014 c 5
 -298 1055 -275 1089 -246 1116 c 5
 -214 1142 -180 1155 -144 1155 c 4
 -130 1155 -116 1153 -103 1147 c 5
 -77 1127 l 6
 -70 1121 -67 1117 -67 1116 c 5
 -67 1116 l 5
 -58 1125 -47 1133 -32 1141 c 4
 -15 1150 4 1155 25 1155 c 4
 63 1155 85 1143 92 1118 c 5
 96 1083 l 5
 96 1065 93 1042 85 1014 c 4
 74 979 54 946 25 915 c 5
 74 940 l 6
 96 952 113 966 127 981 c 4
 155 1013 173 1044 182 1074 c 4
 190 1097 194 1117 194 1134 c 5
 270 1160 l 5
 270 1142 267 1121 259 1097 c 4
 240 1038 209 986 164 942 c 5
 102 883 14 854 -98 854 c 5
 -58 891 l 5
 -45 901 -30 916 -14 937 c 4
 -1 955 10 976 18 999 c 4
 26 1026 30 1045 30 1058 c 6
 30 1067 l 5
 27 1084 14 1092 -10 1092 c 4
 -28 1092 -43 1087 -56 1076 c 6
 -87 1048 l 5
 -93 1060 l 6
 -98 1067 -105 1074 -114 1081 c 4
 -124 1088 -138 1092 -156 1092 c 4
 -174 1092 -190 1086 -204 1074 c 4
 -222 1058 -235 1040 -242 1021 c 5
 -216 1030 l 5
 -184 1034 l 5
 -155 1034 -135 1025 -123 1006 c 4
 -118 997 -116 987 -116 975 c 4
 -116 963 -118 951 -123 937 c 4
 -130 914 -146 894 -169 877 c 4
 -195 859 -220 849 -244 849 c 4
-197 993 m 4
 -216 993 -230 988 -242 979 c 5
 -251 969 -259 956 -264 942 c 5
 -269 926 l 5
 -269 921 -266 914 -262 907 c 4
 -257 896 -247 891 -230 891 c 4
 -213 891 -199 896 -188 907 c 4
 -176 917 -167 929 -162 942 c 5
 -160 961 l 5
 -162 979 l 5
 -169 988 -181 993 -197 993 c 4
EndSplineSet
EndChar
StartChar: uni0E4B.low
Encoding: 142 63245 111
OldEncoding: 63245
Width: 0
Flags: W
HStem: 1025 76<-151 -18 93 220>
DStem: -18 1025 68 1025 -69 869 17 869 53 1255 141 1255 4 1101 93 1101
Fore
-18 1025 m 5
 -173 1025 l 5
 -150 1101 l 5
 4 1101 l 5
 53 1255 l 5
 141 1255 l 5
 93 1101 l 5
 245 1101 l 5
 220 1025 l 5
 68 1025 l 5
 17 869 l 5
 -69 869 l 5
 -18 1025 l 5
EndSplineSet
EndChar
StartChar: uni0E4C.low
Encoding: 143 63246 112
OldEncoding: 63246
Width: 0
Flags: W
HStem: 849 75<-125 -99> 1039 62<-63 -42>
VStem: -255 112<953 963>
Fore
-161 1043 m 1
 -154 1052 -141 1063 -121 1078 c 1
 -97 1094 -70 1101 -42 1101 c 0
 -5 1103 21 1092 36 1067 c 1
 46 1055 51 1040 51 1023 c 0
 51 1009 47 995 41 981 c 1
 29 947 9 917 -22 891 c 0
 -55 863 -89 849 -125 849 c 4
 -180 847 -217 862 -238 893 c 0
 -250 910 -255 930 -255 955 c 0
 -255 976 -252 996 -245 1014 c 0
 -217 1101 -163 1160 -81 1191 c 0
 -39 1210 13 1220 76 1222 c 0
 139 1224 185 1230 215 1240 c 0
 244 1250 266 1275 279 1317 c 1
 360 1317 l 1
 349 1278 328 1248 298 1224 c 1
 270 1200 240 1183 206 1173 c 0
 163 1160 116 1152 64 1150 c 0
 -2 1145 -49 1138 -77 1127 c 0
 -106 1117 -134 1089 -161 1043 c 1
-63 1039 m 0
 -82 1039 -98 1034 -112 1023 c 0
 -124 1013 -134 999 -141 981 c 1
 -143 963 l 1
 -143 954 -141 946 -137 940 c 0
 -131 929 -118 924 -99 924 c 0
 -84 924 -69 930 -53 942 c 0
 -37 953 -28 966 -26 981 c 1
 -22 999 l 1
 -26 1023 l 1
 -32 1034 -44 1039 -63 1039 c 0
EndSplineSet
EndChar
StartChar: uni0E0D.descless
Encoding: 144 63247 113
OldEncoding: 63247
Width: 1025
Flags: HW
HStem: -14 71<131 156.59> -0 84<361 457 567 699> 199 72<200.66 225.52> 729 72<471 505> 766 20G<998.44 1095.62>
VStem: 24 77<77 105.915> 629 102<632 659.615>
DStem: 123.82 408.755 223.26 414.405 33.4199 129.645 172.41 260.725 618.76 578.255 715.94 578.255 457.17 83.3154 554.35 83.3154 715.94 578.255 998.44 786.175 554.35 83.3154 792.78 149.985 998.44 786.175 1095.62 786.175 792.78 149.985 889.96 149.985
Fore
33 130 m 1
 124 409 l 1
 154 499 205 556 276 578 c 1
 267 587 249 600 223 618 c 0
 204 631 171 644 124 657 c 1
 151 683 197 713 263 748 c 0
 332 783 412 801 501 801 c 0
 654 801 731 754 731 660 c 0
 731 635 726 608 716 578 c 2
 554 84 l 1
 698 84 l 2
 730 84 751 88 762 97 c 1
 773 103 783 121 793 150 c 2
 998 786 l 1
 1096 786 l 1
 890 150 l 1
 878 111 862 78 844 53 c 0
 827 31 807 17 784 11 c 0
 755 3 718 -0 672 -0 c 2
 334 -0 l 1
 362 84 l 1
 457 84 l 1
 619 578 l 2
 626 599 629 617 629 634 c 0
 629 655 622 675 607 691 c 0
 583 716 545 729 492 729 c 0
 421 729 346 709 267 671 c 1
 279 667 301 656 332 638 c 0
 357 624 381 602 404 574 c 1
 391 574 376 571 358 565 c 0
 335 558 311 543 285 521 c 1
 258 493 238 457 223 414 c 2
 172 261 l 1
 182 268 200 271 226 271 c 0
 271 271 300 257 314 229 c 0
 321 210 325 194 325 180 c 0
 325 162 322 145 316 130 c 0
 305 92 283 59 249 30 c 0
 215 1 177 -14 133 -14 c 0
 92 -14 62 -1 42 26 c 0
 30 42 24 60 24 79 c 0
 24 95 27 112 33 130 c 1
157 57 m 0
 179 57 199 64 216 79 c 0
 232 92 242 109 249 130 c 1
 252 150 l 1
 252 160 250 169 247 178 c 1
 237 192 222 199 201 199 c 0
 178 199 158 192 142 178 c 0
 125 164 113 148 106 130 c 1
 101 106 l 1
 101 94 104 85 110 79 c 1
 117 64 132 57 157 57 c 0
EndSplineSet
EndChar
StartChar: quoteleft
Encoding: 145 8216 114
OldEncoding: 8216
Width: 300
Flags: HW
Fore
178 840 m 0
 196 904 230 953 279 989 c 0
 325 1021 373 1041 423 1048 c 5
 441 1048 450 1045 450 1039 c 2
 450 1037 l 1
 439 1026 l 1
 351 986 l 1
 316 967 292 943 279 914 c 1
 298 918 l 1
 326 923 l 1
 370 918 392 898 392 863 c 0
 392 853 390 840 386 826 c 0
 377 799 361 776 339 757 c 1
 315 738 287 729 258 729 c 0
 199 729 170 752 170 799 c 0
 170 811 173 825 178 840 c 0
EndSplineSet
EndChar
StartChar: quoteright
Encoding: 146 8217 115
OldEncoding: 8217
Width: 299
Flags: HW
Fore
312 932 m 4
 309 866 287 810 247 764 c 4
 211 722 169 692 122 673 c 5
 104 668 94 669 93 675 c 5
 92 677 l 5
 101 691 l 5
 177 750 l 5
 206 776 224 805 230 837 c 5
 213 829 l 5
 187 817 l 5
 143 811 116 826 108 860 c 4
 106 870 105 883 106 898 c 4
 108 926 118 952 135 976 c 5
 155 1000 179 1015 208 1022 c 4
 265 1036 299 1020 309 975 c 4
 312 962 313 948 312 932 c 4
EndSplineSet
EndChar
StartChar: quotedblleft
Encoding: 147 8220 116
OldEncoding: 8220
Width: 460
Flags: HW
Fore
87 853 m 4
 108 916 145 963 196 996 c 4
 242 1025 291 1043 343 1049 c 5
 361 1048 370 1044 369 1037 c 5
 369 1035 l 5
 358 1024 l 5
 336 1018 306 1006 267 989 c 4
 233 973 208 951 193 922 c 5
 211 925 l 5
 239 929 l 5
 284 921 305 900 302 864 c 4
 302 853 299 841 293 828 c 4
 284 801 267 779 244 762 c 4
 221 744 194 736 161 738 c 4
 103 741 75 765 78 811 c 4
 78 823 81 837 87 853 c 4
341 840 m 4
 363 902 399 950 450 982 c 4
 496 1011 545 1029 597 1035 c 5
 616 1034 625 1029 624 1023 c 5
 624 1020 l 5
 618 1014 613 1011 611 1010 c 4
 588 1004 559 993 523 975 c 4
 487 959 462 937 446 909 c 5
 466 912 l 5
 493 915 l 5
 538 908 559 886 558 851 c 4
 557 842 554 830 548 815 c 4
 538 788 521 765 498 748 c 4
 475 731 447 723 417 724 c 4
 358 727 330 752 332 798 c 4
 333 810 336 824 341 840 c 4
EndSplineSet
EndChar
StartChar: quotedblright
Encoding: 148 8221 117
OldEncoding: 8221
Width: 465
Flags: HW
Fore
566 919 m 4
 548 855 514 805 464 771 c 4
 420 739 372 719 321 710 c 5
 303 710 294 713 294 720 c 6
 294 722 l 5
 305 733 l 5
 327 741 356 754 393 773 c 4
 427 791 451 815 464 844 c 5
 446 840 l 5
 418 835 l 5
 373 840 351 860 351 895 c 4
 351 906 354 919 358 932 c 4
 367 959 383 982 404 1001 c 4
 426 1020 453 1029 486 1029 c 4
 544 1029 573 1006 573 960 c 4
 573 948 570 934 566 919 c 4
312 919 m 4
 294 855 260 805 210 771 c 4
 166 739 118 719 67 710 c 5
 48 710 38 713 38 720 c 6
 38 722 l 5
 45 729 49 733 51 733 c 4
 73 741 102 754 138 773 c 4
 172 791 196 815 210 844 c 5
 191 840 l 5
 164 835 l 5
 118 840 96 860 96 895 c 4
 96 904 99 916 104 932 c 4
 113 959 128 982 150 1001 c 4
 172 1020 199 1029 230 1029 c 4
 289 1029 318 1006 318 960 c 4
 318 948 316 934 312 919 c 4
EndSplineSet
EndChar
StartChar: bullet
Encoding: 149 8226 118
OldEncoding: 8226
Width: 370
Flags: HW
Fore
112 208 m 0
 51 208 9 228 -16 268 c 1
 -27 289 -32 313 -32 343 c 0
 -32 364 -29 385 -23 405 c 0
 -10 441 8 473 30 500 c 0
 56 529 87 554 123 574 c 0
 158 593 197 602 238 602 c 0
 280 602 313 593 338 574 c 0
 361 556 375 532 380 502 c 1
 382 477 l 1
 382 455 377 431 368 405 c 0
 352 351 321 304 273 266 c 0
 228 228 174 208 112 208 c 0
EndSplineSet
EndChar
StartChar: endash
Encoding: 150 8211 119
OldEncoding: 8211
Width: 1090
Flags: HW
HStem: 349 58<-29 1053>
Fore
-46 349 m 1
 -27 407 l 1
 1070 407 l 1
 1053 349 l 1
 -46 349 l 1
EndSplineSet
EndChar
StartChar: emdash
Encoding: 151 8212 120
OldEncoding: 8212
Width: 2183
Flags: HW
HStem: 349 58<-95 2143>
Fore
-113 349 m 1
 -94 407 l 1
 2161 407 l 1
 2144 349 l 1
 -113 349 l 1
EndSplineSet
EndChar
StartChar: uni0E31.left
Encoding: 152 63248 121
OldEncoding: 63248
Width: 0
Flags: HW
HStem: 1107 67<-392 -368.605>
VStem: -338 75<1064 1085.51>
Fore
-548 1021 m 1
 -537 1066 -515 1102 -482 1130 c 1
 -450 1159 -412 1174 -369 1174 c 0
 -324 1174 -294 1160 -278 1134 c 1
 -268 1121 -263 1105 -263 1086 c 0
 -263 1072 -266 1057 -270 1039 c 1
 -285 1001 -309 968 -345 942 c 1
 -308 935 l 1
 -268 931 l 1
 -196 933 -126 954 -58 995 c 0
 10 1034 63 1086 101 1151 c 1
 174 1112 l 1
 144 1065 104 1022 55 984 c 0
 2 945 -54 912 -115 887 c 0
 -179 862 -240 849 -299 849 c 0
 -377 849 -442 863 -493 889 c 1
 -533 913 -553 945 -553 986 c 1
 -548 1021 l 1
-433 973 m 0
 -412 973 -393 979 -378 993 c 0
 -361 1005 -349 1020 -343 1039 c 1
 -338 1065 l 1
 -338 1073 -340 1081 -345 1088 c 0
 -352 1101 -368 1107 -391 1107 c 0
 -412 1107 -429 1101 -444 1088 c 0
 -462 1073 -473 1057 -477 1039 c 2
 -482 1019 l 1
 -482 1008 -479 1000 -475 993 c 0
 -468 979 -454 973 -433 973 c 0
EndSplineSet
MinimumDistance: x4,-1 
EndChar
StartChar: uni0E4D.left
Encoding: 153 63249 122
OldEncoding: 63249
Width: 0
Flags: HW
HStem: 908 66<-273 -251.99> 1128 64<-200.01 -179.67>
VStem: -376 67<1003 1028.53>
Fore
-272 908 m 4
 -315 908 -345 922 -363 952 c 4
 -372 969 -376 987 -376 1005 c 4
 -376 1020 -374 1035 -370 1051 c 4
 -359 1087 -335 1120 -297 1148 c 5
 -265 1178 -226 1192 -180 1192 c 4
 -135 1192 -105 1178 -89 1151 c 4
 -80 1135 -76 1118 -76 1100 c 4
 -76 1082 -79 1066 -85 1051 c 5
 -96 1013 -119 979 -154 949 c 5
 -190 922 -229 908 -272 908 c 4
-200 1128 m 4
 -226 1128 -247 1120 -266 1104 c 4
 -284 1090 -298 1072 -305 1051 c 5
 -309 1029 l 5
 -309 1015 -307 1004 -301 996 c 4
 -291 981 -275 974 -252 974 c 4
 -226 974 -205 981 -186 996 c 4
 -167 1013 -154 1032 -147 1051 c 5
 -142 1077 l 5
 -145 1086 l 5
 -148 1101 -154 1111 -164 1117 c 5
 -174 1124 -186 1128 -200 1128 c 4
EndSplineSet
MinimumDistance: x13,-1 
EndChar
StartChar: uni0E47.left
Encoding: 154 63250 123
OldEncoding: 63250
Width: 0
Flags: HW
HStem: 844 53<-284 -265.395> 956 73<-465 -441.675> 1104 64<-281 -244>
Fore
-283 844 m 0
 -305 844 -323 849 -338 861 c 0
 -355 874 -371 888 -386 905 c 2
 -425 943 l 1
 -438 951 -451 956 -464 956 c 0
 -498 953 -526 939 -548 912 c 1
 -574 872 -589 848 -592 839 c 1
 -619 858 -637 884 -645 918 c 1
 -650 965 l 1
 -650 985 -646 1006 -638 1029 c 0
 -632 1051 -622 1070 -608 1087 c 1
 -564 1147 -495 1177 -400 1177 c 1
 -340 1175 l 1
 -308 1170 -276 1168 -245 1168 c 0
 -201 1168 -167 1176 -143 1191 c 0
 -118 1205 -99 1231 -87 1270 c 1
 -13 1270 l 1
 -31 1210 -61 1166 -104 1140 c 0
 -144 1116 -203 1104 -279 1104 c 0
 -310 1104 -345 1106 -384 1110 c 1
 -440 1110 -480 1105 -506 1093 c 0
 -538 1081 -558 1061 -566 1034 c 0
 -570 1022 -573 1008 -573 992 c 1
 -568 960 l 1
 -563 966 -548 981 -522 1004 c 1
 -501 1021 -474 1029 -442 1029 c 0
 -415 1029 -392 1023 -374 1011 c 1
 -362 1000 -351 988 -342 976 c 1
 -309 1027 -267 1053 -215 1053 c 0
 -181 1053 -159 1043 -148 1022 c 1
 -143 1009 -140 997 -140 985 c 1
 -146 951 l 1
 -155 920 -172 895 -196 877 c 0
 -223 855 -252 844 -283 844 c 0
-265 897 m 0
 -247 897 -232 903 -221 914 c 1
 -211 922 -203 935 -199 951 c 1
 -196 971 l 1
 -199 987 l 1
 -206 997 -217 1002 -230 1002 c 0
 -248 1002 -262 997 -274 987 c 0
 -289 976 -298 964 -303 951 c 1
 -305 934 l 1
 -305 927 -303 921 -298 914 c 1
 -294 903 -283 897 -265 897 c 0
EndSplineSet
EndChar
StartChar: uni0E48.left
Encoding: 155 63251 124
OldEncoding: 63251
Width: 0
Flags: W
DStem: -63 1580 25 1580 -151 1309 -63 1309
Fore
-151 1309 m 5
 -63 1580 l 5
 25 1580 l 5
 -63 1309 l 5
 -151 1309 l 5
EndSplineSet
EndChar
StartChar: uni0E49.left
Encoding: 156 63252 125
OldEncoding: 63252
Width: 0
Flags: W
HStem: 1570 60<-257 -235>
VStem: -213 70<1531 1548>
Fore
-150 1508 m 5
 -161 1470 -178 1437 -201 1411 c 5
 -222 1385 -238 1369 -250 1363 c 5
 -196 1367 l 6
 -175 1370 -157 1374 -143 1378 c 4
 -126 1384 -103 1396 -76 1413 c 4
 -39 1438 -11 1468 8 1501 c 4
 24 1528 41 1568 61 1621 c 5
 144 1621 l 5
 99 1478 18 1382 -96 1332 c 4
 -155 1307 -217 1295 -282 1295 c 5
 -356 1299 l 5
 -398 1309 l 5
 -387 1314 -370 1323 -349 1337 c 4
 -325 1354 -306 1376 -291 1404 c 5
 -303 1401 l 5
 -323 1399 l 5
 -352 1404 l 5
 -386 1416 -402 1438 -402 1471 c 4
 -402 1483 -400 1498 -396 1515 c 5
 -386 1540 -374 1559 -361 1573 c 4
 -346 1590 -327 1605 -305 1617 c 5
 -283 1626 -260 1630 -235 1630 c 4
 -197 1630 -171 1619 -157 1596 c 4
 -147 1580 -143 1564 -143 1548 c 4
 -143 1534 -145 1521 -150 1508 c 5
-257 1570 m 4
 -274 1570 -289 1565 -303 1555 c 5
 -316 1540 -325 1527 -330 1515 c 5
 -332 1494 l 5
 -328 1475 l 5
 -320 1463 -308 1457 -291 1457 c 4
 -276 1457 -260 1463 -242 1475 c 5
 -228 1488 -219 1501 -217 1515 c 5
 -213 1531 l 5
 -213 1540 -215 1548 -219 1555 c 4
 -225 1565 -238 1570 -257 1570 c 4
EndSplineSet
EndChar
StartChar: uni0E4A.left
Encoding: 157 63253 126
OldEncoding: 63253
Width: 0
Flags: W
HStem: 1288 42<-383 -369> 1432 42<-337 -322> 1531 62<-302 -282 -147 -112>
VStem: -108 69<1496 1524>
Fore
-383 1288 m 4
 -418 1290 -441 1308 -452 1341 c 4
 -458 1356 -461 1373 -461 1392 c 4
 -461 1414 -458 1434 -452 1452 c 4
 -435 1496 -413 1529 -386 1551 c 5
 -355 1579 -322 1593 -284 1593 c 4
 -267 1593 -253 1591 -244 1587 c 4
 -231 1578 -221 1571 -216 1565 c 6
 -207 1554 l 5
 -202 1559 -190 1568 -172 1580 c 5
 -154 1589 -134 1593 -112 1593 c 4
 -63 1593 -39 1570 -39 1524 c 4
 -39 1506 -43 1482 -52 1452 c 4
 -64 1417 -83 1384 -110 1353 c 5
 -61 1379 l 6
 -41 1390 -24 1403 -10 1419 c 5
 19 1446 38 1477 47 1512 c 5
 58 1575 l 5
 135 1598 l 5
 135 1587 132 1568 124 1540 c 5
 102 1477 70 1424 27 1381 c 4
 -30 1324 -116 1295 -233 1295 c 5
 -223 1303 -211 1314 -196 1330 c 5
 -181 1342 -167 1357 -154 1376 c 5
 -137 1396 -125 1417 -119 1438 c 4
 -111 1463 -108 1483 -108 1496 c 6
 -108 1505 l 5
 -110 1522 -123 1531 -147 1531 c 4
 -163 1531 -178 1525 -194 1514 c 4
 -204 1507 -215 1498 -225 1487 c 5
 -227 1494 -233 1503 -242 1514 c 5
 -248 1525 -265 1531 -293 1531 c 4
 -310 1531 -327 1525 -344 1512 c 4
 -357 1501 -368 1483 -377 1459 c 5
 -353 1468 l 6
 -342 1472 -331 1474 -322 1474 c 4
 -293 1474 -272 1465 -260 1448 c 4
 -256 1441 -253 1431 -253 1417 c 4
 -253 1406 -256 1392 -260 1376 c 4
 -266 1357 -282 1336 -307 1315 c 5
 -332 1297 -358 1288 -383 1288 c 4
-337 1432 m 4
 -352 1432 -365 1426 -377 1415 c 4
 -389 1404 -397 1393 -399 1381 c 5
 -401 1366 l 5
 -399 1346 l 5
 -395 1335 -384 1330 -369 1330 c 4
 -351 1330 -336 1335 -325 1346 c 5
 -315 1352 -307 1364 -300 1381 c 5
 -297 1399 l 5
 -302 1417 l 5
 -309 1427 -320 1432 -337 1432 c 4
EndSplineSet
EndChar
StartChar: uni0E4B.left
Encoding: 158 63254 127
OldEncoding: 63254
Width: 0
Flags: W
HStem: 1422 79<-234 -115 -2 119>
DStem: -115 1422 -26 1422 -152 1309 -62 1309 -52 1617 36 1617 -90 1501 -2 1501
Fore
-115 1422 m 5
 -258 1422 l 5
 -233 1501 l 5
 -90 1501 l 5
 -52 1617 l 5
 36 1617 l 5
 -2 1501 l 5
 144 1501 l 5
 119 1422 l 5
 -26 1422 l 5
 -62 1309 l 5
 -152 1309 l 5
 -115 1422 l 5
EndSplineSet
EndChar
StartChar: uni0E4C.left
Encoding: 159 63255 128
OldEncoding: 63255
Width: 0
Flags: W
HStem: 1237 62<-293 -272>
VStem: -200 58<1364 1383>
Fore
-315 1403 m 5
 -307 1415 -297 1425 -286 1434 c 4
 -272 1443 -250 1449 -220 1452 c 5
 -187 1449 -164 1439 -151 1420 c 4
 -145 1409 -142 1396 -142 1383 c 4
 -142 1369 -145 1357 -149 1345 c 4
 -159 1316 -176 1292 -200 1272 c 4
 -229 1249 -260 1237 -293 1237 c 4
 -339 1235 -370 1248 -388 1277 c 5
 -397 1288 -401 1304 -401 1325 c 4
 -401 1342 -398 1359 -392 1378 c 4
 -369 1452 -323 1503 -253 1531 c 4
 -222 1544 -179 1551 -123 1553 c 4
 -74 1556 -34 1562 -3 1573 c 5
 23 1579 42 1600 54 1637 c 5
 124 1637 l 5
 112 1603 94 1576 71 1556 c 5
 45 1535 19 1522 -6 1515 c 5
 -37 1503 -79 1496 -131 1494 c 4
 -177 1491 -216 1485 -246 1475 c 4
 -272 1466 -295 1442 -315 1403 c 5
-240 1396 m 4
 -272 1396 -293 1380 -302 1348 c 5
 -304 1334 l 5
 -302 1315 l 5
 -297 1304 -287 1299 -272 1299 c 4
 -256 1299 -242 1304 -231 1313 c 5
 -219 1325 -209 1336 -202 1348 c 5
 -200 1364 l 5
 -200 1370 -202 1377 -205 1383 c 4
 -211 1392 -223 1396 -240 1396 c 4
EndSplineSet
EndChar
StartChar: uni0E01
Encoding: 161 3585 130
OldEncoding: 3585
Width: 794
Flags: HW
HStem: -1 21G<-44.9805 52.2002 447.7 544.88> 716 84<462 489>
VStem: 633 104<593.295 628.325>
DStem: 82.71 389.895 182.15 394.415 -44.9805 -1.08496 52.2002 -1.08496 626.24 544.705 723.42 544.705 447.7 -1.08496 544.88 -1.08496
Fore
75 617 m 1
 109 650 163 689 235 732 c 0
 311 777 395 800 490 800 c 0
 546 800 596 791 640 772 c 0
 683 755 712 726 728 686 c 0
 734 672 737 652 737 628 c 0
 737 603 732 576 723 545 c 1
 545 -1 l 1
 448 -1 l 1
 626 545 l 1
 631 562 633 578 633 593 c 0
 633 610 631 624 626 635 c 0
 614 662 594 682 566 695 c 0
 538 709 505 716 465 716 c 0
 382 716 302 691 226 640 c 1
 234 638 254 630 288 615 c 1
 314 600 337 580 357 555 c 1
 335 549 305 535 267 513 c 0
 228 490 200 450 182 394 c 2
 52 -1 l 1
 -45 -1 l 1
 83 390 l 1
 99 438 119 474 143 496 c 0
 168 520 196 538 226 549 c 1
 219 558 203 570 178 587 c 0
 150 605 115 615 75 617 c 1
EndSplineSet
MinimumDistance: x5,-1 
EndChar
StartChar: uni0E02
Encoding: 162 3586 131
OldEncoding: 3586
Width: 797
Flags: HW
HStem: -1 84<86 185 283 409> 462 73<143.11 187.18> 726 75<346.541 364> 765 20G<705.85 803.03>
VStem: 55 81<557.135 586.515> 441 93<634 656>
DStem: 275.32 359.385 367.98 345.825 184.92 82.5352 282.1 82.5352 705.85 785.395 803.03 785.395 500.19 149.205 597.37 149.205
Fore
353 801 m 0
 401 801 440 791 472 772 c 1
 502 751 521 726 527 695 c 0
 532 681 534 668 534 654 c 0
 534 634 531 615 525 598 c 0
 515 565 505 542 495 529 c 0
 484 515 468 497 446 476 c 1
 400 423 l 1
 391 409 380 383 368 346 c 2
 282 83 l 1
 408 83 l 2
 438 83 458 87 470 96 c 0
 479 101 489 119 500 149 c 1
 706 785 l 1
 803 785 l 1
 597 149 l 1
 575 84 550 43 523 27 c 1
 495 8 447 -1 379 -1 c 2
 59 -1 l 1
 88 83 l 1
 185 83 l 1
 275 359 l 2
 286 392 296 414 305 427 c 0
 318 445 333 462 349 478 c 1
 369 495 385 512 397 529 c 0
 408 542 420 563 432 591 c 1
 438 608 441 625 441 640 c 0
 441 661 437 677 428 688 c 0
 411 713 383 726 347 726 c 1
 310 721 l 1
 322 719 335 708 349 688 c 0
 357 678 361 666 361 652 c 0
 361 631 357 611 349 591 c 1
 336 550 311 519 273 496 c 0
 236 474 193 462 143 462 c 1
 84 469 55 501 55 557 c 0
 55 580 60 606 70 635 c 1
 96 686 137 727 192 756 c 0
 250 785 304 801 353 801 c 0
234 679 m 0
 211 679 192 672 176 659 c 0
 157 642 145 625 139 608 c 1
 136 587 l 1
 136 577 139 568 143 559 c 0
 149 544 164 535 187 535 c 0
 212 535 233 544 249 559 c 0
 267 574 278 590 282 608 c 1
 287 635 l 1
 282 659 l 1
 275 672 259 679 234 679 c 0
EndSplineSet
EndChar
StartChar: uni0E03
Encoding: 163 3587 132
OldEncoding: 3587
Width: 851
Flags: HW
HStem: -1 84<140 238 344 469> 350 72<105 132.33> 765 20G<759.48 856.66>
VStem: -7 86<466 473> 232 79<522.105 544.705>
DStem: 375.28 506.285 470.2 500.635 238.55 82.5352 335.73 82.5352 759.48 785.395 856.66 785.395 553.82 149.205 651 149.205
Fore
592 652 m 1
 585 633 577 620 570 613 c 2
 535 582 l 1
 522 574 509 564 497 549 c 0
 486 538 477 522 470 501 c 2
 336 83 l 1
 461 83 l 2
 491 83 512 87 523 96 c 0
 532 101 543 119 554 149 c 1
 759 785 l 1
 857 785 l 1
 651 149 l 1
 628 84 604 43 576 27 c 1
 550 8 502 -1 433 -1 c 2
 114 -1 l 1
 141 83 l 1
 239 83 l 1
 375 506 l 2
 385 536 395 557 406 571 c 0
 416 583 427 594 440 606 c 1
 488 633 l 2
 500 640 508 648 512 659 c 1
 512 670 l 2
 512 678 508 689 501 703 c 1
 487 718 476 726 468 728 c 1
 349 663 l 1
 260 728 l 1
 226 721 196 704 170 677 c 0
 145 653 129 630 121 608 c 1
 124 611 133 616 148 624 c 0
 158 630 176 633 201 633 c 0
 242 631 272 619 292 598 c 0
 304 583 311 565 311 545 c 0
 311 527 307 510 301 492 c 0
 285 447 258 412 220 388 c 0
 181 363 143 350 106 350 c 0
 63 350 30 368 7 403 c 1
 -2 425 -7 446 -7 469 c 0
 -7 492 -2 518 7 545 c 0
 21 585 37 618 55 644 c 1
 80 689 119 727 172 758 c 0
 222 786 262 800 292 800 c 1
 375 737 l 1
 484 800 l 1
 521 787 551 768 572 744 c 0
 589 724 598 704 598 684 c 1
 592 652 l 1
179 566 m 0
 154 566 134 559 119 545 c 1
 100 531 88 514 84 494 c 2
 79 474 l 1
 79 464 81 454 86 445 c 0
 93 430 108 422 132 422 c 0
 155 422 174 429 190 443 c 1
 210 465 223 482 227 494 c 1
 232 522 l 1
 232 530 230 538 225 545 c 0
 216 559 201 566 179 566 c 0
EndSplineSet
EndChar
StartChar: uni0E04
Encoding: 164 3588 133
OldEncoding: 3588
Width: 799
Flags: HW
HStem: -1 21G<17.7246 112.645 448.255 547.695> 327 69<306 330.735> 727 79<444 478.765>
VStem: 631 104<588.385 621.155>
DStem: 64.0547 139.775 229.035 354.475 17.7246 -1.47461 112.645 -1.47461 620.015 523.975 721.715 533.015 448.255 -1.47461 547.695 -1.47461
Fore
141 519 m 0
 135 502 132 482 132 460 c 1
 134 425 l 1
 139 367 l 1
 139 341 l 1
 161 415 l 1
 179 470 209 517 252 557 c 1
 294 594 343 612 400 612 c 0
 443 612 473 598 490 570 c 1
 498 553 501 536 501 519 c 0
 501 500 498 483 492 469 c 1
 480 428 458 395 426 369 c 0
 391 341 351 327 307 327 c 0
 266 327 240 336 229 354 c 1
 113 -1 l 1
 18 -1 l 1
 64 140 l 1
 74 167 79 191 79 213 c 1
 76 232 l 2
 75 246 67 278 53 330 c 0
 41 370 35 403 32 429 c 1
 32 440 l 2
 32 461 38 489 48 524 c 0
 69 587 102 637 145 677 c 1
 192 721 244 753 302 774 c 0
 361 796 420 806 479 806 c 0
 568 806 638 782 689 734 c 0
 720 705 735 667 735 621 c 0
 735 593 731 564 722 533 c 1
 548 -1 l 1
 448 -1 l 1
 620 524 l 1
 628 549 631 570 631 588 c 0
 631 622 620 651 599 674 c 0
 565 710 514 727 446 727 c 0
 382 727 320 710 261 674 c 0
 201 638 161 587 141 519 c 0
377 540 m 0
 353 540 333 533 317 519 c 0
 301 507 289 490 282 469 c 1
 278 445 l 1
 278 435 280 427 284 420 c 1
 290 404 306 396 331 396 c 0
 354 396 374 404 391 420 c 0
 409 435 420 451 423 469 c 1
 428 493 l 1
 423 519 l 1
 417 533 401 540 377 540 c 0
EndSplineSet
MinimumDistance: x27,-1 
EndChar
StartChar: uni0E05
Encoding: 165 3589 134
OldEncoding: 3589
Width: 799
Flags: HW
HStem: -1 21G<19.5947 114.515 452.385 549.565> 328 69<307 332.605> 540 72<377 401.535>
VStem: 432 75<493.855 519.845> 642 97<611 643>
DStem: 65.9248 140.165 230.905 354.865 19.5947 -1.08496 114.515 -1.08496 343.905 718.725 359.725 800.085 406.055 667.875 467.075 709.685 624.145 524.365 723.585 533.405 452.385 -1.08496 549.565 -1.08496 626.405 800.085 595.895 718.725 467.075 709.685 441.085 635.105
Fore
48 524 m 0
 66 578 105 630 165 681 c 0
 224 733 289 772 360 800 c 1
 467 710 l 1
 626 800 l 1
 702 757 739 698 739 624 c 0
 739 594 734 564 724 533 c 1
 550 -1 l 1
 452 -1 l 1
 624 524 l 2
 633 553 639 582 642 612 c 1
 642 628 l 1
 644 643 643 655 638 666 c 1
 636 675 630 684 620 695 c 0
 606 707 598 715 596 719 c 1
 441 635 l 1
 441 635 l 1
 441 636 429 647 406 668 c 1
 344 719 l 1
 286 694 243 666 214 635 c 0
 181 599 157 561 143 520 c 0
 137 503 134 483 134 460 c 1
 136 425 l 1
 141 367 l 1
 141 341 l 1
 163 416 l 1
 182 473 212 520 254 557 c 1
 299 594 348 612 402 612 c 0
 445 612 475 599 492 571 c 0
 502 553 507 536 507 520 c 0
 507 502 503 485 496 469 c 1
 485 430 462 397 428 370 c 0
 393 342 353 328 309 328 c 0
 268 328 242 337 231 355 c 1
 115 -1 l 1
 20 -1 l 1
 66 140 l 1
 76 167 81 192 81 214 c 1
 78 233 l 2
 77 246 69 279 55 330 c 0
 43 370 37 403 34 429 c 1
 34 441 l 2
 34 466 39 493 48 524 c 0
379 540 m 0
 355 540 335 533 319 520 c 0
 302 507 291 490 284 469 c 1
 279 445 l 1
 279 435 282 427 286 420 c 1
 292 405 308 397 333 397 c 0
 356 397 376 405 392 420 c 1
 409 434 421 450 428 469 c 1
 432 494 l 1
 432 504 430 513 425 520 c 0
 418 533 403 540 379 540 c 0
EndSplineSet
MinimumDistance: x5,-1 
EndChar
StartChar: uni0E06
Encoding: 166 3590 135
OldEncoding: 3590
Width: 996
Flags: HW
HStem: -14 80<183 207.875> -0 21G<651.965 749.145> 351 72<118 142.335> 567 67<188.665 212.395> 766 20G<906.215 1003.39>
VStem: 6 86<465 471> 80 86<89 117.215> 524 84<669 684.475>
DStem: 309.575 270.895 406.755 266.375 256.465 105.915 358.165 119.475 385.285 507.065 480.205 501.415 332.175 342.085 429.355 342.085 906.215 786.175 1003.39 786.175 705.075 163.545 749.145 -0.304688
Fore
332 342 m 1
 385 507 l 1
 399 541 409 562 416 571 c 0
 423 583 437 595 455 609 c 1
 499 634 l 2
 511 641 518 649 522 660 c 1
 524 671 l 1
 524 679 521 690 513 704 c 1
 501 718 489 726 478 729 c 1
 360 664 l 1
 272 729 l 1
 241 723 210 706 180 678 c 0
 152 650 135 627 129 609 c 1
 159 625 l 2
 169 631 187 634 212 634 c 0
 252 632 282 619 303 596 c 0
 315 584 321 567 321 545 c 0
 321 534 317 516 310 492 c 0
 295 448 268 413 230 388 c 0
 191 364 154 351 120 351 c 0
 72 351 39 369 20 404 c 0
 11 425 6 447 6 470 c 0
 6 491 11 516 20 545 c 0
 29 576 44 610 67 645 c 0
 96 691 134 729 182 759 c 1
 232 787 272 801 303 801 c 1
 383 738 l 1
 497 801 l 1
 532 788 560 769 582 744 c 0
 599 726 608 706 608 684 c 0
 608 675 606 664 601 653 c 0
 596 635 588 622 577 613 c 0
 568 604 557 594 543 583 c 1
 526 571 514 561 506 550 c 1
 496 539 487 523 480 501 c 2
 429 342 l 1
 481 338 525 325 562 305 c 1
 598 288 630 266 656 238 c 0
 682 210 698 185 705 164 c 1
 906 786 l 1
 1003 786 l 1
 749 -0 l 1
 652 -0 l 1
 656 35 l 1
 656 57 651 80 641 104 c 0
 620 146 591 181 553 210 c 0
 512 239 463 258 407 266 c 1
 358 119 l 1
 342 77 320 44 293 22 c 0
 264 -2 228 -14 184 -14 c 0
 139 -14 109 3 92 37 c 0
 84 54 80 72 80 90 c 0
 80 108 84 130 92 155 c 0
 110 207 139 251 180 284 c 0
 225 321 276 340 332 342 c 1
173 88 m 0
 180 74 191 66 208 66 c 0
 230 66 246 80 256 106 c 1
 310 271 l 1
 280 271 252 260 224 238 c 1
 200 213 183 186 175 159 c 0
 169 145 166 131 166 117 c 0
 166 104 168 95 173 88 c 0
189 567 m 0
 165 567 146 560 131 545 c 1
 113 533 101 516 94 495 c 1
 92 472 l 1
 92 462 94 453 98 444 c 0
 107 430 121 423 142 423 c 0
 165 423 186 430 206 444 c 1
 220 457 230 474 237 495 c 1
 242 523 l 1
 237 545 l 1
 228 560 212 567 189 567 c 0
EndSplineSet
EndChar
StartChar: uni0E07
Encoding: 167 3591 136
OldEncoding: 3591
Width: 625
Flags: HW
HStem: -16 87<247 269> 512 71<398 425> 724 72<468 491.67>
VStem: 297 75<610 631.755>
DStem: 26.1104 492.765 116.51 534.575 142.5 53.1953 237.42 97.2646 447.6 521.015 588.85 653.225 315.39 108.565 410.31 101.785
Fore
315 109 m 1
 448 521 l 1
 438 515 422 512 399 512 c 0
 357 512 327 527 311 556 c 0
 302 572 297 590 297 611 c 0
 297 624 300 639 304 655 c 0
 318 696 343 730 376 757 c 0
 410 784 449 796 492 796 c 0
 521 796 545 790 564 778 c 0
 581 765 591 749 596 727 c 1
 598 706 l 1
 598 687 595 669 589 653 c 1
 410 102 l 1
 399 66 378 36 346 14 c 0
 317 -6 284 -16 249 -16 c 0
 222 -16 201 -10 184 0 c 0
 166 11 152 28 142 53 c 1
 26 493 l 1
 117 535 l 1
 237 97 l 1
 240 80 250 71 269 71 c 0
 279 71 288 75 297 81 c 0
 306 90 312 99 315 109 c 1
469 724 m 0
 449 724 429 718 410 704 c 1
 391 684 379 668 374 655 c 1
 372 632 l 1
 372 622 374 614 379 607 c 0
 387 591 402 583 425 583 c 0
 450 583 471 591 487 607 c 0
 505 622 516 638 520 655 c 2
 524 676 l 1
 524 685 522 694 518 704 c 1
 507 718 491 724 469 724 c 0
EndSplineSet
MinimumDistance: x11,-1 
EndChar
StartChar: uni0E08
Encoding: 168 3592 137
OldEncoding: 3592
Width: 741
Flags: HW
HStem: -1 21G<394.56 491.74> 496 77<315 339.19> 726 75<414 440>
VStem: 145 75<382 405.715> 580 102<603.465 626.065>
DStem: 570.84 540.185 668.02 540.185 498.52 318.705 491.74 -1.08496
Fore
339 573 m 0
 386 573 421 557 443 524 c 0
 466 491 480 450 487 401 c 2
 499 319 l 1
 571 540 l 1
 577 561 580 582 580 603 c 0
 580 632 572 656 555 675 c 0
 523 709 477 726 416 726 c 0
 312 728 216 685 127 598 c 1
 80 646 l 1
 118 688 169 724 233 754 c 0
 298 785 367 801 441 801 c 0
 500 801 550 790 591 770 c 0
 633 748 660 719 673 681 c 0
 679 667 682 649 682 626 c 0
 682 600 677 571 668 540 c 1
 492 -1 l 1
 395 -1 l 1
 407 37 418 84 425 142 c 1
 427 222 l 1
 425 279 l 1
 421 321 413 352 401 372 c 1
 392 358 375 341 350 321 c 0
 326 300 292 288 247 286 c 0
 208 286 179 300 161 328 c 0
 150 343 145 361 145 383 c 0
 145 401 148 418 154 434 c 0
 169 477 193 510 226 533 c 0
 261 560 299 573 339 573 c 0
317 496 m 0
 292 496 272 489 256 476 c 0
 241 462 229 446 222 427 c 1
 220 406 l 1
 220 394 222 385 226 379 c 1
 233 363 248 355 270 355 c 0
 291 355 310 362 328 376 c 0
 344 390 355 407 363 427 c 1
 367 452 l 1
 367 462 365 470 360 476 c 1
 353 489 338 496 317 496 c 0
EndSplineSet
MinimumDistance: x14,-1 
EndChar
StartChar: uni0E09
Encoding: 169 3593 138
OldEncoding: 3593
Width: 856
Flags: HW
HStem: -0 21G<58.4297 155.61> 266 69<99 123.97> 479 71<170.3 192.9> 724 77<488 517>
VStem: -4 73<360.165 383.895> 223 73<434.745 458.475> 652 102<605 629.105>
DStem: 546.59 260.725 643.77 260.725 488.96 78.7949 586.14 83.3154 639.25 540.965 736.43 540.965 572.58 337.565 669.76 337.565
Fore
288 404 m 2
 211 169 l 1
 257 214 316 252 387 284 c 1
 456 313 518 331 573 338 c 1
 639 541 l 2
 648 565 652 587 652 607 c 0
 652 634 644 657 628 675 c 0
 600 708 554 724 491 724 c 0
 439 724 388 711 336 684 c 1
 290 663 246 632 206 592 c 1
 160 640 l 1
 208 688 261 726 321 755 c 0
 386 785 452 801 517 801 c 0
 608 801 674 778 716 731 c 0
 741 704 754 670 754 629 c 0
 754 600 748 571 736 541 c 1
 670 338 l 1
 716 329 748 309 765 278 c 1
 771 263 774 245 774 225 c 0
 774 206 770 183 762 155 c 0
 747 106 718 66 677 35 c 1
 637 2 596 -14 551 -14 c 0
 523 -14 503 -6 491 11 c 0
 485 19 482 30 482 44 c 0
 482 55 484 67 489 79 c 1
 547 261 l 1
 478 248 420 229 371 203 c 1
 322 179 275 146 230 104 c 0
 194 69 169 34 156 -0 c 1
 58 -0 l 1
 147 275 l 1
 138 269 123 266 100 266 c 0
 57 266 26 281 10 309 c 0
 1 326 -4 343 -4 360 c 0
 -4 377 -1 393 3 409 c 0
 14 447 37 481 73 509 c 0
 107 536 147 550 193 550 c 0
 237 550 267 536 283 509 c 0
 292 492 296 475 296 458 c 0
 296 441 294 423 288 404 c 2
170 479 m 0
 148 479 128 472 109 458 c 1
 93 443 81 426 75 406 c 1
 69 384 l 1
 69 374 72 365 78 356 c 0
 84 342 100 335 124 335 c 0
 145 335 165 342 184 356 c 1
 200 373 211 390 219 406 c 1
 223 435 l 1
 223 443 221 451 217 458 c 0
 209 472 194 479 170 479 c 0
688 155 m 1
 692 172 695 187 695 201 c 1
 692 229 l 1
 686 248 669 258 644 261 c 1
 586 83 l 1
 584 71 l 1
 584 65 588 62 595 62 c 0
 613 62 630 71 648 90 c 0
 666 109 679 130 688 155 c 1
EndSplineSet
MinimumDistance: x14,-1 
EndChar
StartChar: uni0E0A
Encoding: 170 3594 139
OldEncoding: 3594
Width: 793
Flags: HW
HStem: -4 84<73 172 269 395> 460 73<129.78 173.85> 723 75<333.231 348>
VStem: 42 81<554.6 583.98> 598 104<514 542.17>
DStem: 261.99 356.85 354.65 343.29 171.59 80 268.77 80 582.91 449.51 688 468.72 485.73 146.67 582.91 146.67
Fore
629 628 m 1
 638 628 650 625 664 619 c 1
 678 611 689 595 697 573 c 1
 702 542 l 1
 702 523 697 498 688 469 c 1
 583 147 l 1
 562 83 538 43 512 25 c 0
 482 6 433 -4 366 -4 c 2
 46 -4 l 1
 74 80 l 1
 172 80 l 1
 262 357 l 2
 273 389 282 412 291 425 c 0
 300 438 315 455 335 476 c 1
 356 493 372 510 384 526 c 0
 397 544 409 564 419 588 c 0
 425 606 428 622 428 637 c 0
 428 658 424 674 415 686 c 0
 396 711 369 723 333 723 c 1
 296 718 l 1
 309 716 322 705 335 686 c 0
 343 676 347 664 347 650 c 0
 347 628 343 608 335 588 c 0
 323 549 297 518 260 494 c 0
 223 471 180 460 130 460 c 1
 71 466 42 498 42 555 c 0
 42 577 46 603 55 633 c 1
 83 685 124 725 178 753 c 0
 236 783 290 798 340 798 c 0
 374 798 406 791 437 778 c 0
 462 768 482 751 498 727 c 0
 512 707 518 684 518 659 c 1
 543 659 583 671 638 695 c 0
 696 718 759 767 828 842 c 1
 882 798 l 1
 839 743 794 702 746 677 c 1
 687 650 648 633 629 628 c 1
507 588 m 1
 501 565 491 544 477 524 c 0
 460 501 445 484 433 473 c 1
 386 418 l 1
 373 396 363 371 355 343 c 1
 269 80 l 1
 393 80 l 2
 422 80 444 85 456 94 c 0
 466 100 476 117 486 147 c 2
 583 450 l 1
 593 474 598 496 598 515 c 0
 598 564 567 588 507 588 c 1
222 677 m 0
 198 677 178 670 163 656 c 0
 145 641 134 624 128 605 c 1
 123 584 l 1
 123 575 125 566 130 557 c 0
 136 541 150 533 174 533 c 0
 199 533 219 541 236 557 c 0
 253 571 265 587 271 605 c 1
 276 633 l 1
 276 642 273 650 269 656 c 0
 262 670 247 677 222 677 c 0
EndSplineSet
MinimumDistance: x3,-1 
EndChar
StartChar: uni0E0B
Encoding: 171 3595 140
OldEncoding: 3595
Width: 846
Flags: HW
HStem: -5 84<124 222 328 452> 347 72<89 116.48>
VStem: -23 86<458 469> 216 78<517 540.87>
DStem: 359.43 502.45 454.35 496.8 222.7 78.7002 319.88 78.7002 641.93 467.42 739.11 467.42 536.84 145.37 634.02 145.37
Fore
583 671 m 1
 619 680 663 698 713 724 c 0
 770 752 828 798 887 863 c 1
 943 817 l 1
 912 783 878 751 839 722 c 1
 798 696 764 678 737 666 c 0
 699 650 679 641 676 640 c 1
 695 638 716 626 739 604 c 0
 750 593 755 576 755 553 c 0
 756 534 751 506 739 467 c 1
 634 145 l 1
 613 82 589 41 563 23 c 0
 533 4 484 -5 417 -5 c 2
 97 -5 l 1
 126 79 l 1
 223 79 l 1
 359 502 l 1
 370 537 385 563 404 580 c 0
 422 598 445 615 472 629 c 0
 484 636 492 644 496 655 c 1
 496 666 l 2
 496 673 492 684 484 699 c 0
 474 713 463 722 452 724 c 1
 333 660 l 1
 243 724 l 1
 210 717 180 700 153 673 c 0
 129 649 112 626 104 604 c 1
 132 620 l 2
 142 626 160 629 185 629 c 0
 226 627 256 615 276 594 c 0
 288 580 294 562 294 541 c 0
 294 524 291 507 285 488 c 0
 269 444 242 409 203 384 c 0
 165 359 127 347 90 347 c 0
 45 347 12 364 -9 400 c 1
 -18 421 -23 443 -23 465 c 0
 -23 489 -18 514 -9 541 c 0
 0 569 16 603 40 640 c 0
 71 688 109 726 155 754 c 1
 205 782 246 796 278 796 c 1
 359 733 l 1
 468 796 l 1
 503 788 527 776 541 759 c 0
 559 739 570 719 574 701 c 1
 583 671 l 1
 583 671 l 1
554 604 m 1
 519 578 l 1
 499 567 486 557 479 548 c 0
 466 526 458 509 454 497 c 2
 320 79 l 1
 444 79 l 2
 477 79 498 83 510 92 c 0
 517 97 526 114 537 145 c 1
 642 467 l 1
 649 492 653 512 653 527 c 0
 653 579 620 604 554 604 c 1
163 562 m 0
 141 562 121 555 102 541 c 0
 85 527 74 510 68 490 c 1
 63 470 l 1
 63 460 66 450 70 441 c 0
 78 426 94 419 116 419 c 0
 138 419 158 426 176 439 c 1
 192 456 204 473 211 490 c 1
 216 518 l 1
 216 527 214 534 209 541 c 0
 199 555 184 562 163 562 c 0
EndSplineSet
MinimumDistance: x7,-1 
EndChar
StartChar: uni0E0C
Encoding: 172 3596 141
OldEncoding: 3596
Width: 1032
Flags: HW
HStem: -14 71<76 98.2002> -0 21G<689.19 786.37> 199 72<143 170.52> 729 72<407 451> 766 20G<943.44 1040.62>
VStem: -31 76<77 105.915> 573 102<632 659.615>
DStem: 71.0801 408.755 168.26 414.405 -21.5801 129.645 119.67 260.725 448.5 222.305 541.16 209.875 406.69 92.3555 501.61 87.835 563.76 578.255 660.94 578.255 468.84 288.975 566.02 286.715 660.94 578.255 943.44 786.175 566.02 286.715 735.52 140.945 943.44 786.175 1040.62 786.175 735.52 140.945 786.37 -0.304688
Fore
168 414 m 1
 120 261 l 1
 127 268 144 271 171 271 c 0
 212 271 241 257 259 229 c 1
 266 210 270 194 270 180 c 0
 270 162 267 145 261 130 c 0
 250 94 227 61 191 30 c 0
 158 1 120 -14 78 -14 c 0
 36 -14 6 -1 -15 26 c 0
 -25 41 -31 58 -31 79 c 0
 -31 95 -28 112 -22 130 c 2
 71 409 l 1
 100 500 151 556 221 578 c 1
 211 589 194 602 171 618 c 0
 151 630 117 643 69 657 c 1
 94 683 141 713 208 748 c 0
 275 783 354 801 444 801 c 0
 598 801 675 754 675 660 c 0
 675 636 670 608 661 578 c 1
 566 287 l 1
 602 280 636 264 668 238 c 0
 700 213 723 180 736 141 c 1
 943 786 l 1
 1041 786 l 1
 786 -0 l 1
 689 -0 l 1
 687 24 683 48 675 71 c 0
 668 94 654 120 633 148 c 0
 614 172 583 193 541 210 c 1
 502 88 l 1
 481 20 439 -14 376 -14 c 0
 337 -14 312 2 300 32 c 1
 294 44 290 59 290 79 c 0
 290 97 294 118 303 143 c 0
 314 183 336 217 367 245 c 0
 397 272 430 287 469 289 c 1
 564 578 l 2
 570 596 573 615 573 634 c 0
 573 656 566 675 552 691 c 1
 528 716 488 729 434 729 c 0
 364 729 290 709 212 671 c 1
 221 668 243 657 277 638 c 0
 302 624 326 602 349 574 c 1
 336 574 321 571 303 565 c 0
 284 559 260 544 230 521 c 1
 200 490 180 454 168 414 c 1
407 92 m 1
 448 222 l 1
 409 214 382 185 367 134 c 1
 363 106 l 1
 363 98 363 94 365 92 c 0
 369 80 375 74 383 74 c 0
 391 74 399 80 407 92 c 1
98 57 m 0
 122 57 143 64 159 79 c 0
 176 93 187 110 193 130 c 1
 195 150 l 1
 195 162 193 171 189 178 c 0
 182 192 167 199 145 199 c 0
 123 199 103 192 85 178 c 1
 69 164 57 148 50 130 c 1
 45 106 l 1
 45 95 47 86 52 79 c 0
 62 64 77 57 98 57 c 0
EndSplineSet
EndChar
StartChar: uni0E0D
Encoding: 173 3597 142
OldEncoding: 3597
Width: 1025
Flags: HW
HStem: -372 69<431.237 454> 8 71<131 156.59> 22 84<361 458 567 699> 220 72<200.66 225.52> 750 72<471 505>
VStem: 24 77<99 127.755> 629 102<654 681.455>
DStem: 123.82 430.595 223.26 436.245 33.4199 151.485 172.41 282.565 618.76 600.095 715.94 600.095 457.17 105.155 554.35 105.155 715.94 600.095 998.44 808.015 554.35 105.155 792.78 171.825 998.44 808.015 1095.62 808.015 792.78 171.825 889.96 171.825
Fore
813 -60 m 1
 794 -127 762 -185 718 -233 c 1
 678 -281 632 -316 583 -337 c 1
 533 -360 484 -372 435 -372 c 0
 369 -372 319 -355 285 -321 c 1
 260 -300 247 -273 247 -242 c 0
 247 -227 249 -212 254 -197 c 0
 266 -163 288 -129 320 -96 c 1
 354 -67 395 -53 444 -55 c 0
 484 -55 511 -69 526 -96 c 0
 533 -110 536 -126 536 -145 c 0
 536 -160 534 -176 528 -191 c 0
 523 -209 511 -231 492 -256 c 1
 477 -272 457 -288 431 -303 c 1
 481 -303 534 -287 589 -256 c 0
 641 -227 684 -162 718 -60 c 1
 813 -60 l 1
33 151 m 1
 124 431 l 1
 154 521 205 577 276 600 c 1
 267 609 249 622 223 640 c 0
 204 652 171 666 124 679 c 1
 151 705 197 735 263 770 c 0
 332 805 412 822 501 822 c 0
 654 822 731 776 731 681 c 0
 731 657 726 629 716 600 c 2
 554 106 l 1
 698 106 l 2
 730 106 751 110 762 119 c 1
 773 125 783 142 793 172 c 2
 998 808 l 1
 1096 808 l 1
 890 172 l 1
 878 133 862 100 844 75 c 0
 827 53 807 39 784 33 c 0
 755 25 718 22 672 22 c 2
 334 22 l 1
 362 106 l 1
 457 106 l 1
 619 600 l 2
 626 620 629 639 629 655 c 0
 629 677 622 697 607 713 c 0
 583 738 545 750 492 750 c 0
 421 750 346 731 267 693 c 1
 279 689 301 678 332 660 c 0
 357 646 381 624 404 596 c 1
 391 596 376 593 358 587 c 0
 335 580 311 565 285 542 c 1
 258 515 238 479 223 436 c 2
 172 283 l 1
 182 289 200 292 226 292 c 0
 271 292 300 279 314 251 c 0
 321 232 325 216 325 202 c 0
 325 184 322 167 316 151 c 0
 305 114 283 81 249 52 c 0
 215 23 177 8 133 8 c 0
 92 8 62 21 42 48 c 0
 30 64 24 82 24 101 c 0
 24 117 27 134 33 151 c 1
371 -254 m 0
 392 -254 410 -248 424 -235 c 1
 439 -225 450 -210 455 -191 c 1
 457 -171 l 1
 455 -148 l 1
 448 -135 434 -129 413 -129 c 0
 394 -129 377 -135 362 -148 c 1
 346 -159 335 -174 327 -191 c 1
 323 -210 l 1
 323 -221 326 -229 332 -235 c 1
 340 -248 353 -254 371 -254 c 0
157 79 m 0
 179 79 199 86 216 101 c 0
 232 113 242 130 249 151 c 1
 252 172 l 1
 252 182 250 191 247 200 c 1
 237 214 222 220 201 220 c 0
 178 220 158 214 142 200 c 0
 125 186 113 170 106 151 c 1
 101 128 l 1
 101 116 104 107 110 101 c 1
 117 86 132 79 157 79 c 0
EndSplineSet
EndChar
StartChar: uni0E0E
Encoding: 174 3598 143
OldEncoding: 3598
Width: 881
Flags: HW
HStem: -142 85<144 176.22> 8 71<56 83.5596> 221 72<126 150.23> 739 84<613 644>
VStem: -44 75<103.296 130.416> 789 103<616.315 653.605>
DStem: 236.11 412.916 335.55 417.436 194.3 282.966 247.41 147.365 779.64 567.726 874.56 567.726 516.35 -244.744 569.46 -373.564
Fore
194 283 m 1
 236 413 l 2
 245 442 258 469 276 494 c 1
 296 520 313 537 327 545 c 0
 343 556 362 565 382 572 c 1
 378 578 361 591 331 610 c 0
 303 628 269 638 229 640 c 1
 259 671 313 709 389 755 c 1
 468 801 553 823 643 823 c 0
 737 823 806 801 850 758 c 1
 878 732 892 697 892 654 c 0
 892 629 886 600 875 568 c 1
 569 -374 l 1
 475 -374 l 1
 458 -333 433 -296 400 -263 c 0
 381 -243 357 -223 329 -203 c 1
 305 -244 264 -284 208 -323 c 0
 152 -362 97 -380 42 -378 c 0
 -6 -378 -40 -363 -58 -332 c 1
 -68 -317 -74 -297 -74 -274 c 0
 -74 -257 -70 -237 -62 -214 c 0
 -47 -165 -16 -126 31 -96 c 0
 74 -70 122 -57 176 -57 c 0
 218 -57 262 -65 311 -82 c 1
 333 -45 l 1
 364 22 l 1
 446 4 l 1
 412 -71 l 1
 382 -119 l 1
 414 -137 444 -159 470 -184 c 1
 495 -210 510 -230 516 -245 c 1
 780 568 l 1
 786 583 789 599 789 616 c 0
 789 634 786 648 780 658 c 1
 768 685 748 705 720 718 c 0
 692 732 659 739 620 739 c 0
 539 739 459 714 382 663 c 1
 393 660 413 652 442 638 c 0
 467 625 491 605 514 578 c 1
 491 573 461 559 424 536 c 0
 383 511 354 472 336 417 c 2
 247 147 l 1
 236 107 213 74 178 50 c 1
 144 22 104 8 58 8 c 0
 15 8 -14 22 -31 50 c 0
 -40 66 -44 84 -44 103 c 0
 -44 121 -41 137 -35 152 c 0
 -23 190 0 223 35 251 c 0
 71 279 110 293 150 293 c 0
 170 293 185 290 194 283 c 1
137 -276 m 0
 165 -265 190 -247 214 -221 c 1
 259 -163 l 1
 218 -149 180 -142 146 -142 c 0
 81 -142 42 -166 28 -214 c 1
 24 -249 l 1
 26 -275 47 -288 88 -288 c 0
 103 -288 119 -284 137 -276 c 0
84 79 m 0
 108 79 128 87 143 101 c 0
 163 118 175 135 181 152 c 1
 183 174 l 1
 183 185 181 194 176 200 c 0
 167 214 151 221 128 221 c 0
 105 221 86 214 70 200 c 0
 51 184 39 168 35 152 c 1
 31 130 l 1
 31 119 33 110 37 103 c 1
 43 87 59 79 84 79 c 0
EndSplineSet
EndChar
StartChar: uni0E0F
Encoding: 175 3599 144
OldEncoding: 3599
Width: 882
Flags: HW
HStem: -179 76<82 102> 8 71<57 84.4053> 221 72<127 151.075> 739 84<615 645>
VStem: -87 88<-287.695 -262.835> -43 75<103.285 130.405> 790 103<616.305 653.595>
DStem: 236.955 412.905 336.395 417.425 195.145 282.955 248.255 147.355 435.835 -147.575 410.975 -244.755 301.365 -253.795 250.515 -378.095 780.485 567.715 875.405 567.715 512.675 -258.315 570.305 -373.575
Fore
195 283 m 1
 237 413 l 2
 246 442 259 469 277 494 c 1
 297 520 314 537 327 545 c 0
 344 556 362 565 383 572 c 1
 379 578 362 591 332 610 c 0
 304 628 270 638 230 640 c 1
 260 671 313 709 390 755 c 1
 469 800 553 823 644 823 c 0
 738 823 807 801 851 758 c 1
 878 732 893 697 893 654 c 0
 893 629 887 600 875 568 c 1
 570 -374 l 1
 475 -374 l 1
 411 -245 l 1
 251 -378 l 1
 246 -356 239 -336 230 -316 c 1
 204 -267 l 1
 188 -286 162 -309 128 -336 c 0
 92 -364 51 -378 5 -378 c 0
 -32 -378 -59 -364 -75 -336 c 0
 -83 -322 -87 -306 -87 -288 c 0
 -87 -272 -83 -250 -75 -223 c 1
 -60 -186 -36 -155 -4 -133 c 1
 28 -113 63 -103 102 -103 c 0
 145 -103 183 -116 214 -142 c 1
 224 -131 238 -108 257 -73 c 1
 275 -44 292 -13 306 22 c 1
 385 4 l 1
 376 -16 357 -52 330 -101 c 1
 293 -157 272 -189 265 -196 c 1
 267 -196 280 -215 301 -254 c 1
 436 -148 l 1
 513 -258 l 1
 780 568 l 1
 787 583 790 599 790 616 c 0
 790 634 787 648 780 658 c 1
 768 685 748 705 721 718 c 0
 693 732 660 739 621 739 c 0
 540 739 460 714 383 663 c 1
 394 660 414 652 443 638 c 0
 467 625 492 605 515 578 c 1
 492 573 461 559 425 536 c 0
 384 511 354 472 336 417 c 2
 248 147 l 1
 237 107 214 74 179 50 c 1
 145 22 104 8 58 8 c 0
 16 8 -13 22 -30 50 c 0
 -39 66 -43 84 -43 103 c 0
 -43 121 -40 137 -34 152 c 0
 -22 190 1 223 36 251 c 0
 72 279 110 293 151 293 c 0
 174 293 189 290 195 283 c 1
75 -290 m 0
 90 -282 109 -267 131 -247 c 1
 162 -210 l 1
 143 -189 118 -179 87 -179 c 0
 51 -179 24 -193 8 -221 c 1
 3 -237 1 -251 1 -263 c 0
 1 -287 14 -300 40 -302 c 0
 51 -302 63 -298 75 -290 c 0
84 79 m 0
 109 79 129 87 144 101 c 0
 164 118 176 135 182 152 c 1
 184 174 l 1
 184 185 182 194 177 200 c 0
 168 214 152 221 128 221 c 0
 106 221 87 214 71 200 c 0
 52 184 40 168 36 152 c 1
 32 130 l 1
 32 119 34 110 38 103 c 1
 44 87 60 79 84 79 c 0
EndSplineSet
EndChar
StartChar: uni0E10
Encoding: 176 3600 145
OldEncoding: 3600
Width: 702
Flags: HW
HStem: -269 53<334 340> -246 63<-40 -16.0801> -105 59<372.64 390.72> 224 70<250 275.46> 437 71<320 344.39> 678 85<743 774.92> 747 79<497 520>
VStem: 148 77<318.52 344.51>
DStem: 550.05 406.66 649.49 411.18 490.16 216.82 525.19 24.7197
Fore
344 508 m 0
 373 508 399 500 421 484 c 0
 442 466 455 444 460 416 c 1
 490 217 l 1
 550 407 l 1
 563 443 569 471 569 490 c 0
 569 505 566 516 560 524 c 0
 549 545 520 563 474 581 c 1
 428 595 376 607 320 617 c 1
 265 629 223 636 194 638 c 1
 243 692 295 737 351 773 c 1
 411 808 467 826 518 826 c 0
 552 826 578 823 596 818 c 0
 628 808 651 800 666 793 c 2
 726 769 l 1
 742 765 758 763 775 763 c 0
 802 763 831 769 863 782 c 1
 856 700 l 1
 814 685 777 678 744 678 c 0
 726 678 709 680 691 685 c 1
 627 710 l 1
 555 738 l 2
 540 744 521 747 497 747 c 0
 477 747 451 741 419 729 c 1
 390 715 373 704 368 696 c 1
 409 685 l 1
 486 661 l 1
 557 643 l 2
 625 623 664 598 673 566 c 1
 675 539 l 1
 675 508 667 465 649 411 c 2
 525 25 l 1
 409 25 l 1
 414 51 417 80 417 113 c 0
 417 132 415 152 411 175 c 0
 403 240 397 280 393 294 c 1
 381 275 361 258 333 243 c 0
 306 230 279 224 252 224 c 0
 208 224 178 238 161 265 c 0
 152 281 148 299 148 319 c 0
 148 335 151 351 157 365 c 1
 168 406 191 439 227 467 c 1
 260 494 299 508 344 508 c 0
320 -318 m 2
 323 -315 328 -308 333 -295 c 1
 342 -269 l 1
 335 -269 l 1
 320 -271 l 1
 281 -271 256 -260 245 -239 c 0
 237 -224 234 -210 234 -198 c 0
 234 -186 236 -174 240 -163 c 0
 249 -132 268 -105 296 -82 c 0
 324 -58 356 -46 391 -46 c 0
 425 -46 449 -57 463 -77 c 0
 469 -87 472 -100 472 -117 c 0
 472 -133 469 -149 463 -163 c 1
 421 -300 l 1
 415 -313 408 -326 400 -339 c 1
 394 -345 383 -353 368 -362 c 2
 326 -384 l 1
 245 -424 l 1
 176 -366 l 1
 64 -419 l 1
 48 -336 l 1
 6 -388 -44 -413 -102 -410 c 0
 -155 -410 -181 -387 -181 -341 c 0
 -181 -323 -178 -306 -172 -291 c 0
 -159 -259 -138 -233 -109 -214 c 0
 -79 -193 -48 -183 -16 -183 c 0
 13 -183 39 -193 62 -211 c 1
 69 -202 79 -185 92 -161 c 1
 134 -57 l 1
 205 -57 l 1
 182 -130 147 -200 99 -267 c 1
 117 -322 l 1
 150 -309 l 1
 203 -283 l 1
 278 -341 l 1
 320 -318 l 2
338 -216 m 0
 356 -216 371 -211 384 -200 c 1
 397 -186 405 -173 409 -161 c 1
 411 -141 l 1
 407 -121 l 1
 401 -111 389 -105 373 -105 c 0
 352 -105 337 -111 326 -121 c 0
 314 -132 305 -146 298 -161 c 1
 296 -176 l 1
 300 -200 l 1
 306 -211 319 -216 338 -216 c 0
275 294 m 0
 296 294 316 300 335 314 c 1
 352 331 363 348 368 365 c 1
 373 393 l 1
 368 416 l 1
 360 430 344 437 322 437 c 0
 301 437 281 430 261 416 c 1
 245 402 234 385 227 365 c 1
 225 345 l 1
 225 332 227 323 231 316 c 0
 238 301 253 294 275 294 c 0
-40 -246 m 0
 -60 -246 -76 -252 -86 -262 c 0
 -99 -275 -107 -288 -111 -300 c 1
 -113 -313 l 1
 -109 -331 l 1
 -103 -343 -91 -348 -73 -348 c 0
 -58 -348 -44 -343 -31 -333 c 1
 -16 -324 -4 -315 4 -304 c 2
 20 -283 l 1
 19 -278 13 -271 2 -260 c 0
 -7 -251 -21 -246 -40 -246 c 0
EndSplineSet
MinimumDistance: x30,-1 
EndChar
StartChar: uni0E11
Encoding: 177 3601 146
OldEncoding: 3601
Width: 1026
Flags: HW
HStem: -1 21G<203.435 300.615 679.165 776.345> 350 72<97 124.335> 697 88<848.665 883.695>
VStem: -15 86<466 473> 224 79<522.105 544.705> 506 86<669 683.695>
DStem: 369.545 506.285 464.465 500.635 203.435 -1.08496 422.655 376.335 879.175 607.985 976.355 607.985 679.165 -1.08496 776.345 -1.08496
Fore
203 -1 m 1
 370 506 l 2
 379 536 390 557 400 571 c 0
 410 583 421 594 434 606 c 1
 480 633 l 2
 495 640 503 649 504 659 c 1
 506 670 l 1
 506 679 502 690 493 703 c 1
 479 718 468 726 460 728 c 1
 341 663 l 1
 252 728 l 1
 218 721 188 704 162 677 c 0
 137 653 121 630 113 608 c 1
 116 611 125 616 140 624 c 0
 150 630 168 633 193 633 c 0
 234 631 264 619 284 598 c 0
 296 583 303 565 303 545 c 0
 303 527 299 510 293 492 c 0
 277 447 250 412 212 388 c 0
 173 363 135 350 98 350 c 0
 55 350 22 368 -1 403 c 1
 -10 425 -15 446 -15 469 c 0
 -15 492 -10 518 -1 545 c 0
 13 585 29 618 47 644 c 1
 72 689 111 727 164 758 c 0
 214 786 254 800 284 800 c 1
 367 737 l 1
 476 800 l 1
 513 787 543 768 564 744 c 1
 583 725 592 705 592 684 c 0
 592 673 590 663 584 652 c 1
 580 635 573 622 564 613 c 0
 553 601 540 591 527 582 c 0
 514 574 501 564 489 549 c 0
 480 540 472 524 464 501 c 2
 423 376 l 1
 527 515 l 1
 579 582 636 642 698 695 c 1
 764 755 826 785 884 785 c 0
 932 785 964 768 979 732 c 0
 985 718 988 700 988 679 c 0
 988 652 984 628 976 608 c 1
 776 -1 l 1
 679 -1 l 1
 879 608 l 2
 885 626 888 643 888 659 c 0
 888 684 875 697 849 697 c 0
 822 697 783 674 733 626 c 0
 679 576 623 515 566 443 c 0
 509 374 454 296 402 211 c 0
 357 139 323 68 301 -1 c 1
 203 -1 l 1
171 566 m 0
 146 566 126 559 111 545 c 1
 92 531 80 514 76 494 c 2
 71 474 l 1
 71 464 73 454 78 445 c 0
 85 430 100 422 124 422 c 0
 147 422 166 429 182 443 c 1
 202 465 215 482 219 494 c 1
 224 522 l 1
 224 530 222 538 217 545 c 0
 208 559 193 566 171 566 c 0
EndSplineSet
MinimumDistance: x41,-1 
EndChar
StartChar: uni0E12
Encoding: 178 3602 147
OldEncoding: 3602
Width: 1090
Flags: HW
HStem: -14 88<432 443> -0 21G<-10.7646 86.415 748.595 843.515> 527 71<367 392.645> 766 20G<1002.84 1097.76>
VStem: 6 85<387 419> 196 73<414.405 434.745> 422 72<481.075 501.415> 623 99<625 640>
DStem: 324.845 719.505 341.795 800.865 388.125 668.655 448.015 710.465 505.645 222.305 598.305 209.875 463.835 92.3555 558.755 87.835 602.825 520.625 700.005 520.625 525.985 288.975 623.165 286.715 607.345 800.865 576.835 719.505 448.015 710.465 422.025 635.885 1002.84 786.175 1097.76 786.175 794.925 140.945 843.515 -0.304688
Fore
526 289 m 1
 603 521 l 2
 616 561 623 597 623 631 c 2
 623 640 l 1
 621 669 605 695 577 720 c 1
 422 636 l 1
 422 636 l 1
 388 669 l 1
 325 720 l 1
 208 668 135 595 106 501 c 0
 96 473 91 440 91 402 c 0
 91 361 97 322 108 284 c 0
 117 247 121 218 121 199 c 1
 119 178 l 1
 203 269 l 2
 219 284 239 301 263 319 c 1
 235 328 215 345 203 373 c 0
 198 384 196 398 196 414 c 0
 196 427 198 442 203 458 c 0
 214 497 237 530 272 558 c 0
 307 585 347 598 393 598 c 0
 437 598 467 584 482 556 c 0
 490 538 494 519 494 501 c 0
 494 484 491 468 485 453 c 0
 478 432 468 413 457 395 c 1
 443 379 428 365 411 351 c 2
 358 309 l 1
 325 281 290 249 251 212 c 1
 218 183 188 150 161 115 c 0
 135 83 110 44 86 -0 c 1
 -11 -0 l 1
 7 19 20 40 27 62 c 0
 33 81 36 112 36 155 c 2
 36 169 l 2
 36 184 31 215 22 261 c 0
 14 302 8 345 6 388 c 1
 6 400 l 2
 6 433 12 472 24 516 c 1
 49 581 90 637 147 684 c 0
 207 735 272 774 342 801 c 1
 448 710 l 1
 607 801 l 1
 652 774 683 749 700 724 c 1
 715 699 722 673 722 645 c 2
 722 640 l 2
 722 607 715 567 700 521 c 2
 623 287 l 1
 654 281 687 264 722 238 c 0
 760 208 784 176 795 141 c 1
 1003 786 l 1
 1098 786 l 1
 844 -0 l 1
 749 -0 l 1
 733 110 683 180 598 210 c 1
 559 88 l 1
 538 20 497 -14 433 -14 c 0
 394 -14 369 2 358 32 c 1
 352 45 349 60 349 79 c 0
 349 95 352 117 360 143 c 0
 374 185 396 219 424 245 c 0
 454 272 488 287 526 289 c 1
369 527 m 0
 346 527 327 521 311 507 c 0
 292 490 280 472 274 455 c 1
 269 435 l 1
 269 423 272 414 276 406 c 0
 283 391 298 384 320 384 c 0
 346 384 367 391 382 404 c 0
 400 419 411 436 418 455 c 1
 422 481 l 1
 422 490 420 499 415 507 c 0
 408 521 393 527 369 527 c 0
464 92 m 1
 506 222 l 1
 467 214 440 185 424 134 c 1
 420 125 418 116 418 106 c 0
 418 100 419 95 422 92 c 1
 427 80 433 74 441 74 c 0
 449 74 456 80 464 92 c 1
EndSplineSet
EndChar
StartChar: uni0E13
Encoding: 179 3603 148
OldEncoding: 3603
Width: 1068
Flags: HW
HStem: -14 71<77 98> -0 21G<376.96 474.14> 199 72<144 171.3> 729 72<417 451> 766 20G<930.66 1027.84>
VStem: -30 76<78.9248 106.045> 574 102<632 659.745> 911 79<207.745 235.995>
DStem: 71.8604 408.885 169.04 414.535 -20.7998 129.775 120.45 260.855 564.54 578.385 661.72 578.385 376.96 -0.174805 529.51 169.325 661.72 578.385 930.66 786.305 529.51 169.325 784.89 333.175 756.64 254.075 858.34 266.505 699.01 71.0146 800.71 87.9648 930.66 786.305 1027.84 786.305 784.89 333.175 884.33 339.955
Fore
-21 130 m 2
 72 409 l 1
 101 500 151 557 222 578 c 1
 212 589 195 602 171 618 c 0
 152 630 118 643 70 657 c 1
 95 683 142 713 209 748 c 0
 276 783 354 801 445 801 c 0
 598 801 676 754 676 660 c 0
 676 636 671 609 662 578 c 1
 530 169 l 1
 612 254 698 308 785 333 c 1
 931 786 l 1
 1028 786 l 1
 884 340 l 1
 928 333 959 315 977 287 c 0
 986 273 990 256 990 236 c 0
 990 218 985 192 975 159 c 1
 953 100 924 57 887 30 c 0
 847 -1 806 -16 766 -16 c 0
 739 -16 719 -8 706 7 c 0
 698 16 694 29 694 44 c 1
 699 71 l 1
 757 254 l 1
 696 234 638 196 583 139 c 0
 529 84 493 37 474 -0 c 1
 377 -0 l 1
 565 578 l 2
 571 596 574 615 574 634 c 0
 574 656 567 676 553 691 c 1
 528 716 489 729 435 729 c 0
 365 729 291 709 213 671 c 1
 222 668 244 657 278 638 c 0
 303 624 327 602 350 574 c 1
 337 574 322 571 304 565 c 0
 285 559 261 544 231 521 c 1
 201 490 180 454 169 415 c 1
 120 261 l 1
 128 268 145 271 171 271 c 0
 213 271 242 257 259 229 c 1
 267 210 271 194 271 181 c 0
 271 163 268 146 262 130 c 0
 251 94 228 61 192 30 c 0
 158 1 121 -14 79 -14 c 0
 37 -14 6 -1 -14 26 c 0
 -25 41 -30 59 -30 79 c 0
 -30 95 -27 112 -21 130 c 2
801 88 m 1
 798 74 l 1
 798 66 802 62 810 62 c 0
 824 62 841 71 861 90 c 1
 879 105 893 128 902 159 c 0
 908 176 911 193 911 208 c 0
 911 241 894 260 858 267 c 1
 801 88 l 1
99 57 m 0
 123 57 143 65 160 79 c 0
 177 93 188 110 194 130 c 1
 196 150 l 1
 196 162 194 172 189 178 c 0
 183 192 168 199 145 199 c 0
 124 199 104 192 85 178 c 1
 70 164 58 148 50 130 c 1
 46 106 l 1
 46 95 48 86 53 79 c 0
 62 65 78 57 99 57 c 0
EndSplineSet
MinimumDistance: x12,-1 
EndChar
StartChar: uni0E14
Encoding: 180 3604 149
OldEncoding: 3604
Width: 800
Flags: HW
HStem: -1 21G<6.94531 104.125 448.775 548.215> 526 71<385 410.355> 732 72<469 503>
VStem: 23 88<389 415> 53 84<168.155 216.745> 636 102<614 639>
DStem: 620.535 524.105 717.715 519.585 448.775 -1.34473 548.215 -1.34473
Fore
130 511 m 0
 117 474 111 436 111 396 c 0
 111 360 116 324 126 288 c 0
 133 259 137 236 137 217 c 0
 137 200 135 184 130 168 c 1
 161 206 190 237 218 262 c 2
 280 318 l 1
 253 327 233 344 221 372 c 0
 215 382 213 396 213 413 c 0
 213 427 215 442 221 457 c 0
 232 496 255 529 289 557 c 0
 325 584 365 597 410 597 c 0
 455 597 485 583 500 555 c 0
 508 537 512 518 512 500 c 0
 512 482 509 466 502 452 c 1
 497 435 487 416 473 394 c 1
 456 375 441 360 428 350 c 0
 404 333 387 319 375 308 c 0
 327 267 292 234 269 211 c 1
 236 182 206 149 179 114 c 0
 152 82 127 43 104 -1 c 1
 7 -1 l 1
 26 21 38 41 44 61 c 0
 50 80 53 111 53 153 c 2
 53 168 l 2
 53 188 49 219 40 262 c 0
 33 299 27 341 23 390 c 1
 23 396 l 2
 23 436 30 475 44 515 c 0
 76 595 130 663 208 721 c 0
 285 776 381 804 495 804 c 0
 657 804 738 747 738 633 c 0
 738 602 731 564 718 520 c 1
 548 -1 l 1
 449 -1 l 1
 621 524 l 2
 631 556 636 587 636 617 c 0
 636 641 633 660 627 674 c 0
 615 713 563 732 473 732 c 0
 395 732 324 711 259 670 c 0
 193 627 150 574 130 511 c 0
387 526 m 0
 364 526 345 520 329 506 c 0
 311 490 298 473 292 454 c 1
 289 434 l 1
 294 405 l 1
 301 390 315 383 338 383 c 0
 364 383 384 390 400 403 c 0
 418 418 429 435 433 454 c 1
 437 480 l 1
 433 506 l 1
 426 520 411 526 387 526 c 0
EndSplineSet
MinimumDistance: x31,-1 
EndChar
StartChar: uni0E15
Encoding: 181 3605 150
OldEncoding: 3605
Width: 799
Flags: HW
HStem: -1 21G<8.81543 105.995 450.645 550.085> 527 71<387 412.225>
VStem: 26 85<386 415> 212 77<413.625 433.965>
DStem: 344.425 718.725 360.245 800.085 406.575 667.875 467.595 709.685 620.145 519.845 717.325 519.845 450.645 -1.08496 550.085 -1.08496 626.925 800.085 596.415 718.725 467.595 709.685 441.605 635.105
Fore
139 177 m 1
 219 267 l 1
 220 268 l 1
 280 319 l 1
 251 327 231 345 222 372 c 1
 216 382 212 396 212 414 c 0
 212 429 216 443 222 458 c 1
 234 496 257 529 291 557 c 0
 327 584 367 598 412 598 c 0
 457 598 486 584 501 555 c 0
 510 537 514 519 514 501 c 0
 514 483 511 466 504 452 c 1
 498 435 489 416 474 394 c 1
 458 375 443 360 430 350 c 0
 406 333 388 319 377 309 c 0
 329 267 294 235 271 211 c 1
 238 182 208 150 181 114 c 0
 154 82 129 43 106 -1 c 1
 9 -1 l 1
 27 19 39 39 46 61 c 0
 52 80 55 111 55 154 c 2
 55 168 l 2
 55 183 51 214 42 260 c 0
 33 301 28 344 26 388 c 1
 26 399 l 2
 26 432 32 471 44 515 c 1
 69 580 109 636 166 684 c 0
 227 734 292 773 360 800 c 1
 468 710 l 1
 627 800 l 1
 671 774 702 748 720 723 c 1
 735 698 742 672 742 644 c 2
 742 640 l 1
 739 602 731 562 717 520 c 2
 550 -1 l 1
 451 -1 l 1
 620 520 l 1
 635 564 643 601 643 631 c 2
 643 640 l 1
 640 668 625 695 596 719 c 1
 442 635 l 1
 442 635 l 1
 442 636 430 647 407 668 c 1
 344 719 l 1
 228 667 155 594 125 501 c 0
 115 472 111 439 111 401 c 0
 111 361 116 321 127 284 c 0
 137 246 141 217 141 198 c 1
 139 177 l 1
388 527 m 0
 366 527 347 520 331 506 c 0
 311 488 297 471 291 454 c 1
 289 434 l 1
 289 423 291 413 296 406 c 0
 303 391 317 383 340 383 c 0
 366 383 386 390 402 403 c 0
 420 419 431 435 435 454 c 1
 439 480 l 1
 435 506 l 1
 428 520 413 527 388 527 c 0
EndSplineSet
MinimumDistance: x33,-1 
EndChar
StartChar: uni0E16
Encoding: 182 3606 151
OldEncoding: 3606
Width: 792
Flags: HW
HStem: -14 71<95 116> -0 21G<447.685 544.865> 199 72<161 188.915> 717 84<462 489>
VStem: -10 76<78.7949 105.915> 633 104<593 629.105>
DStem: 82.6953 390.675 184.395 395.195 -0.924805 129.645 140.325 260.725 626.225 545.485 723.405 545.485 447.685 -0.304688 544.865 -0.304688
Fore
-1 130 m 1
 83 391 l 1
 96 434 116 469 145 497 c 0
 172 522 200 539 228 550 c 1
 223 556 207 568 180 587 c 0
 152 605 118 616 78 618 c 1
 111 650 164 689 238 733 c 0
 311 778 395 801 489 801 c 0
 546 801 596 791 640 773 c 0
 683 755 712 727 728 687 c 0
 734 672 737 653 737 629 c 0
 737 604 732 576 723 545 c 1
 545 -0 l 1
 448 -0 l 1
 626 545 l 1
 631 563 633 579 633 594 c 0
 633 611 631 625 626 636 c 0
 614 663 594 683 566 696 c 0
 538 710 505 717 465 717 c 0
 382 717 302 692 226 640 c 1
 237 639 257 631 288 616 c 0
 315 601 338 581 357 556 c 1
 334 550 304 536 268 514 c 0
 231 491 203 452 184 395 c 2
 140 261 l 1
 146 268 163 271 189 271 c 0
 230 271 260 257 277 229 c 0
 286 212 291 196 291 180 c 0
 291 162 288 145 282 130 c 0
 269 93 245 60 209 30 c 0
 176 1 138 -14 96 -14 c 0
 54 -14 24 -1 6 26 c 0
 -5 41 -10 58 -10 79 c 0
 -10 95 -7 112 -1 130 c 1
117 57 m 0
 141 57 161 64 178 79 c 0
 194 93 205 110 212 130 c 1
 216 150 l 1
 216 163 213 172 207 178 c 1
 200 192 186 199 163 199 c 0
 142 199 122 192 103 178 c 1
 87 164 76 148 68 130 c 1
 66 106 l 1
 66 95 68 86 73 79 c 0
 80 64 95 57 117 57 c 0
EndSplineSet
MinimumDistance: x10,-1 
EndChar
StartChar: uni0E17
Encoding: 183 3607 152
OldEncoding: 3607
Width: 839
Flags: HW
HStem: -1 21G<49.0195 146.2 523.62 623.06> 511 69<171 192.53> 698 88<697.64 729.28> 724 72<237 264.85>
VStem: 66 73<609 628.585> 732 99<658 681.695>
DStem: 218.52 517.845 357.51 652.315 49.0195 -0.825195 269.37 376.595 720.24 608.245 817.42 608.245 523.62 -0.825195 623.06 -0.825195
Fore
49 -1 m 1
 219 518 l 1
 203 513 188 511 172 511 c 0
 127 511 97 526 82 555 c 1
 71 570 66 589 66 611 c 0
 66 625 69 640 75 655 c 1
 86 693 109 726 144 754 c 0
 180 782 220 796 265 796 c 0
 291 796 313 789 332 777 c 0
 349 765 360 748 364 726 c 1
 367 705 l 1
 367 686 364 668 358 652 c 1
 269 377 l 1
 358 492 l 1
 387 532 428 579 480 633 c 0
 523 677 567 714 610 744 c 0
 651 772 691 786 729 786 c 0
 764 786 790 777 806 761 c 1
 820 743 829 721 831 693 c 1
 831 682 l 2
 831 660 826 635 817 608 c 1
 623 -1 l 1
 524 -1 l 1
 720 608 l 2
 728 631 732 648 732 659 c 0
 732 685 720 698 698 698 c 0
 671 698 631 674 579 626 c 0
 524 574 469 513 413 443 c 0
 350 364 295 287 248 212 c 0
 206 144 172 73 146 -1 c 1
 49 -1 l 1
239 724 m 0
 216 724 197 717 181 703 c 0
 162 685 149 668 144 652 c 1
 139 629 l 1
 139 619 142 611 146 604 c 0
 154 588 170 580 193 580 c 0
 217 580 237 588 252 604 c 1
 271 617 283 633 287 652 c 1
 292 677 l 1
 292 686 290 695 285 703 c 0
 278 717 263 724 239 724 c 0
EndSplineSet
EndChar
StartChar: uni0E18
Encoding: 184 3608 153
OldEncoding: 3608
Width: 706
Flags: HW
HStem: -1 84<-42 56 155 301> 657 78<643 663> 728 72<372 398>
VStem: 485 102<452.045 478.035>
DStem: 190.995 500.635 285.915 500.635 56.5254 82.5352 149.185 82.5352 471.235 385.375 566.155 383.115 394.395 149.205 491.575 149.205
Fore
228 661 m 1
 264 659 319 649 394 633 c 0
 464 618 520 587 562 540 c 0
 578 521 587 501 587 478 c 0
 587 462 580 431 566 383 c 1
 492 149 l 1
 470 86 447 45 420 27 c 0
 390 8 342 -1 275 -1 c 2
 -68 -1 l 1
 -41 83 l 1
 57 83 l 1
 191 501 l 1
 286 501 l 1
 149 83 l 1
 299 83 l 2
 331 83 353 87 364 96 c 1
 374 102 385 120 394 149 c 2
 471 385 l 2
 480 414 485 436 485 452 c 0
 485 471 477 488 462 503 c 0
 434 534 390 557 332 573 c 0
 277 588 214 596 142 596 c 1
 66 591 l 1
 88 624 129 668 189 723 c 1
 247 774 316 800 397 800 c 0
 444 800 496 789 554 767 c 0
 612 745 648 735 663 735 c 0
 693 735 722 742 751 756 c 1
 763 688 l 1
 717 667 677 657 644 657 c 0
 623 657 600 661 575 670 c 2
 503 697 l 1
 441 719 l 2
 423 725 400 728 374 728 c 0
 337 728 306 719 279 703 c 0
 255 687 238 673 228 661 c 1
EndSplineSet
MinimumDistance: x3,-1 
EndChar
StartChar: uni0E19
Encoding: 185 3609 154
OldEncoding: 3609
Width: 854
Flags: HW
HStem: 0 21G<52.1904 149.37> 512 71<174 197.96> 724 72<242.03 268.02> 767 20G<716.63 813.81>
VStem: 69 76<610 631.755> 699 78<208.005 236.255>
DStem: 221.69 518.755 362.94 653.225 52.1904 0.0849609 197.96 150.375 548.26 266.765 645.44 266.765 482.72 71.2754 586.68 88.2246 716.63 786.565 813.81 786.565 570.86 342.475 668.04 340.215
Fore
52 0 m 1
 222 519 l 1
 207 514 191 512 175 512 c 0
 130 512 100 527 85 556 c 1
 74 571 69 590 69 611 c 0
 69 626 72 640 78 655 c 1
 89 692 112 726 147 755 c 0
 183 783 224 796 268 796 c 0
 294 796 317 790 335 778 c 0
 351 766 363 749 370 727 c 1
 372 706 l 1
 372 687 369 669 363 653 c 1
 198 150 l 1
 312 256 436 320 571 342 c 1
 717 787 l 1
 814 787 l 1
 668 340 l 1
 717 333 749 316 763 287 c 1
 772 274 777 257 777 236 c 0
 777 216 772 190 763 159 c 1
 743 104 713 61 673 31 c 0
 633 -0 593 -16 553 -16 c 0
 526 -16 506 -8 492 7 c 0
 483 16 478 28 478 44 c 1
 483 71 l 1
 548 267 l 1
 491 257 435 234 379 199 c 0
 319 163 272 127 238 93 c 1
 203 60 173 29 149 0 c 1
 52 0 l 1
242 724 m 0
 219 724 200 718 184 704 c 0
 165 686 152 670 147 655 c 1
 145 632 l 1
 145 620 147 611 152 605 c 0
 158 590 174 583 198 583 c 0
 222 583 242 590 259 605 c 0
 273 619 284 636 291 655 c 1
 295 676 l 1
 295 686 293 696 288 704 c 0
 282 718 266 724 242 724 c 0
587 88 m 1
 584 77 l 1
 584 67 590 62 601 62 c 0
 613 62 629 72 648 90 c 0
 665 109 679 132 688 159 c 0
 695 176 699 192 699 208 c 0
 699 241 681 261 645 267 c 1
 587 88 l 1
EndSplineSet
MinimumDistance: x15,-1 
EndChar
StartChar: uni0E1A
Encoding: 186 3610 155
OldEncoding: 3610
Width: 853
Flags: HW
HStem: -1 84<-15 81 181 471> 511 69<175 196.625> 724 72<241 268.945> 766 20G<761.625 858.805>
VStem: 70 73<609 628.585>
DStem: 222.615 517.845 363.865 652.315 81.3652 82.7949 178.545 82.7949 761.625 785.655 858.805 785.655 555.965 149.465 653.145 149.465
Fore
81 83 m 1
 223 518 l 1
 208 513 192 511 176 511 c 0
 131 511 101 526 86 555 c 1
 75 570 70 589 70 611 c 0
 70 625 73 640 79 655 c 1
 90 693 113 726 148 754 c 0
 184 782 224 796 269 796 c 0
 295 796 318 789 336 777 c 0
 352 765 364 748 371 726 c 1
 373 705 l 1
 373 686 370 668 364 652 c 1
 179 83 l 1
 463 83 l 2
 493 83 514 87 525 96 c 0
 534 102 545 119 556 149 c 1
 762 786 l 1
 859 786 l 1
 653 149 l 1
 631 84 606 43 579 27 c 1
 552 9 504 -1 435 -1 c 2
 -42 -1 l 1
 -14 83 l 1
 81 83 l 1
243 724 m 0
 220 724 201 717 185 703 c 0
 166 685 153 668 148 652 c 1
 143 629 l 1
 143 619 146 611 150 604 c 0
 159 588 174 580 197 580 c 0
 221 580 241 588 257 604 c 1
 275 617 287 633 292 652 c 1
 296 677 l 1
 296 686 294 695 289 703 c 0
 283 717 267 724 243 724 c 0
EndSplineSet
EndChar
StartChar: uni0E1B
Encoding: 187 3611 156
OldEncoding: 3611
Width: 852
Flags: HW
HStem: -17 84<-59 38 136 426> 495 71<130 154.555> 708 72<198.625 224.615>
VStem: 26 76<593 615.05>
DStem: 178.285 502.05 319.535 636.52 37.0352 67 134.215 67 809.955 1054.62 907.135 1054.62 511.635 133.67 608.815 133.67
Fore
37 67 m 1
 178 502 l 1
 165 498 149 495 132 495 c 0
 87 495 57 510 42 539 c 1
 31 554 26 573 26 595 c 0
 26 609 29 624 35 639 c 1
 45 676 68 709 104 738 c 0
 140 766 180 780 225 780 c 0
 251 780 273 774 291 761 c 0
 308 750 320 733 326 710 c 1
 329 690 l 1
 329 670 326 652 320 637 c 1
 134 67 l 1
 419 67 l 2
 449 67 470 72 481 81 c 1
 492 87 502 104 512 134 c 2
 810 1055 l 1
 907 1055 l 1
 609 134 l 1
 587 70 562 30 534 12 c 0
 508 -7 460 -17 391 -17 c 2
 -86 -17 l 1
 -58 67 l 1
 37 67 l 1
199 708 m 0
 176 708 157 701 141 687 c 0
 121 669 109 653 104 639 c 1
 102 615 l 1
 102 604 104 595 108 588 c 0
 116 574 131 566 155 566 c 0
 176 566 197 574 216 588 c 1
 230 602 240 619 247 639 c 1
 252 659 l 1
 252 670 249 679 245 687 c 0
 238 701 223 708 199 708 c 0
EndSplineSet
EndChar
StartChar: uni0E1C
Encoding: 188 3612 157
OldEncoding: 3612
Width: 818
Flags: HW
HStem: -1 21G<-58.7002 38.4805 471.27 568.45> 511 69<245 270.13> 724 72<315 339.06> 766 20G<725.52 822.7>
VStem: 372 73<674.915 703.165>
DStem: 151.48 652.315 206.85 520.105 -58.7002 -0.825195 105.15 202.575 365.05 332.525 396.69 438.745 471.27 142.685 535.68 202.575 396.69 438.745 365.05 332.525 105.15 202.575 133.4 142.685 725.52 785.655 822.7 785.655 535.68 202.575 568.45 -0.825195
Fore
207 520 m 1
 105 203 l 1
 397 439 l 1
 536 203 l 1
 726 786 l 1
 823 786 l 1
 568 -1 l 1
 471 -1 l 1
 480 29 485 57 485 83 c 0
 485 107 480 127 471 143 c 2
 365 333 l 1
 133 143 l 1
 91 110 60 62 38 -1 c 1
 -59 -1 l 1
 151 652 l 2
 165 694 189 728 224 756 c 1
 260 783 298 796 339 796 c 0
 384 796 415 782 432 754 c 0
 441 737 445 720 445 703 c 0
 445 685 442 669 436 655 c 1
 425 615 402 580 367 552 c 0
 332 525 292 511 246 511 c 0
 231 511 218 514 207 520 c 1
270 580 m 0
 295 580 316 588 332 604 c 0
 350 620 363 636 370 652 c 1
 372 675 l 1
 372 685 370 695 365 703 c 0
 355 717 339 724 316 724 c 0
 294 724 274 717 258 703 c 1
 241 685 230 668 224 652 c 1
 219 631 l 1
 219 622 222 613 226 604 c 0
 232 588 247 580 270 580 c 0
EndSplineSet
EndChar
StartChar: uni0E1D
Encoding: 189 3613 158
OldEncoding: 3613
Width: 817
Flags: HW
HStem: -17 21G<-103.03 -5.84961 426.94 524.12> 495 71<201 228.06> 708 72<271 294.73>
VStem: 328 73<659.12 687.37>
DStem: 107.15 636.52 162.52 504.31 -103.03 -16.6201 60.8203 186.78 320.72 316.73 352.36 422.95 426.94 126.89 491.35 186.78 352.36 422.95 320.72 316.73 60.8203 186.78 89.0703 126.89 773.85 1054.62 871.03 1054.62 491.35 186.78 524.12 -16.6201
Fore
163 504 m 1
 61 187 l 1
 352 423 l 1
 491 187 l 1
 774 1055 l 1
 871 1055 l 1
 524 -17 l 1
 427 -17 l 1
 436 14 440 41 440 67 c 0
 440 91 436 111 427 127 c 2
 321 317 l 1
 89 127 l 1
 47 94 15 46 -6 -17 c 1
 -103 -17 l 1
 107 637 l 1
 123 679 147 714 179 740 c 1
 216 767 254 780 295 780 c 0
 340 780 371 766 387 738 c 0
 396 722 401 705 401 687 c 0
 401 669 398 653 392 639 c 1
 381 599 358 565 323 536 c 0
 288 509 248 495 202 495 c 0
 187 495 174 498 163 504 c 1
228 566 m 0
 253 566 273 574 288 590 c 1
 306 604 318 620 325 639 c 1
 328 659 l 1
 328 668 325 678 321 687 c 1
 310 701 294 708 272 708 c 0
 250 708 231 701 213 687 c 1
 198 670 186 654 179 639 c 1
 175 615 l 1
 175 605 177 597 182 590 c 1
 188 574 203 566 228 566 c 0
EndSplineSet
EndChar
StartChar: uni0E1E
Encoding: 190 3614 159
OldEncoding: 3614
Width: 938
Flags: HW
HStem: -1 21G<41.2852 138.465 606.285 703.465> 511 71<163 187.055> 724 72<230 257.115> 766 20G<860.535 957.715>
VStem: 58 76<609 630.845>
DStem: 210.785 517.845 352.035 652.315 41.2852 -0.825195 222.085 253.425 566.735 598.075 626.625 785.655 617.585 96.3555 687.645 251.165 626.625 785.655 566.735 598.075 222.085 253.425 187.055 96.3555 860.535 785.655 957.715 785.655 687.645 251.165 703.465 -0.825195
Fore
41 -1 m 1
 211 518 l 1
 196 513 180 511 164 511 c 0
 119 511 89 526 74 555 c 1
 64 570 58 589 58 611 c 0
 58 625 61 640 67 655 c 1
 79 693 102 726 136 754 c 0
 172 782 213 796 257 796 c 0
 283 796 306 789 324 777 c 0
 340 765 352 748 359 726 c 1
 361 705 l 1
 361 686 358 668 352 652 c 1
 222 253 l 1
 627 786 l 1
 688 251 l 1
 861 786 l 1
 958 786 l 1
 703 -1 l 1
 606 -1 l 1
 615 43 l 1
 618 76 l 1
 618 96 l 1
 567 598 l 1
 187 96 l 2
 181 87 171 70 158 43 c 1
 138 -1 l 1
 41 -1 l 1
231 724 m 0
 209 724 189 717 173 703 c 0
 154 685 141 669 136 655 c 1
 134 631 l 1
 134 620 136 611 141 604 c 0
 148 589 163 582 187 582 c 0
 212 582 232 589 247 604 c 0
 265 620 276 637 280 655 c 2
 284 675 l 1
 284 685 282 695 277 703 c 0
 271 717 255 724 231 724 c 0
EndSplineSet
EndChar
StartChar: uni0E1F
Encoding: 191 3615 160
OldEncoding: 3615
Width: 938
Flags: HW
HStem: -17 21G<-3.04492 94.1348 561.955 659.135> 495 69<119 140> 708 72<185 212.785>
VStem: 14 73<593 612.79>
DStem: 166.455 502.05 307.705 636.52 -3.04492 -16.6201 175.495 237.63 522.405 582.28 582.295 769.86 573.255 80.5596 643.315 235.37 582.295 769.86 522.405 582.28 175.495 237.63 142.725 80.5596 908.865 1054.62 1006.04 1054.62 643.315 235.37 659.135 -16.6201
Fore
-3 -17 m 1
 166 502 l 1
 153 498 137 495 120 495 c 0
 75 495 45 510 30 539 c 1
 19 554 14 573 14 595 c 0
 14 609 17 624 23 639 c 1
 33 676 56 709 92 738 c 0
 128 766 168 780 213 780 c 0
 239 780 261 774 279 761 c 0
 296 750 308 733 314 710 c 1
 317 690 l 1
 317 670 314 652 308 637 c 1
 175 238 l 1
 582 770 l 1
 643 235 l 1
 909 1055 l 1
 1006 1055 l 1
 659 -17 l 1
 562 -17 l 1
 571 27 l 1
 573 60 l 1
 573 81 l 1
 522 582 l 1
 143 81 l 2
 137 72 127 54 113 27 c 1
 94 -17 l 1
 -3 -17 l 1
187 708 m 0
 165 708 145 701 127 687 c 1
 110 671 98 654 92 637 c 1
 87 613 l 1
 87 603 90 595 94 588 c 0
 104 572 119 564 140 564 c 0
 165 564 186 572 201 588 c 1
 217 601 229 618 235 637 c 1
 240 661 l 1
 240 670 238 679 233 687 c 0
 226 701 211 708 187 708 c 0
EndSplineSet
EndChar
StartChar: uni0E20
Encoding: 192 3616 161
OldEncoding: 3616
Width: 886
Flags: HW
HStem: -14 71<0 23.6748> -0 21G<544.605 639.525> 199 72<69 93.7354> 717 84<554 586>
VStem: -101 73<80 108.175>
DStem: 179.615 390.675 279.055 395.195 137.805 260.725 190.915 125.125 720.885 545.485 815.805 545.485 544.605 -0.304688 639.525 -0.304688
Fore
138 261 m 1
 180 391 l 1
 189 423 201 450 216 472 c 1
 236 496 253 513 268 523 c 0
 287 534 305 543 323 550 c 1
 319 556 302 568 272 587 c 0
 244 605 211 616 171 618 c 1
 201 648 255 686 332 733 c 0
 410 778 495 801 586 801 c 0
 678 801 746 779 792 735 c 0
 818 710 832 676 832 631 c 0
 832 605 826 576 816 545 c 1
 640 -0 l 1
 545 -0 l 1
 721 545 l 1
 725 563 728 579 728 594 c 0
 730 611 728 625 721 636 c 1
 712 662 693 682 663 696 c 0
 635 710 601 717 562 717 c 0
 479 717 399 692 323 640 c 1
 331 639 351 631 385 616 c 1
 410 601 433 581 454 556 c 1
 431 550 401 536 365 514 c 0
 326 490 297 451 279 395 c 2
 191 125 l 1
 177 86 154 54 122 28 c 0
 87 0 47 -14 1 -14 c 0
 -43 -14 -74 0 -89 28 c 1
 -97 45 -101 63 -101 81 c 0
 -101 96 -98 112 -94 130 c 0
 -83 167 -60 200 -25 229 c 0
 11 257 51 271 94 271 c 0
 116 271 130 268 138 261 c 1
24 57 m 0
 47 57 68 64 87 79 c 0
 103 92 114 109 122 130 c 1
 127 152 l 1
 127 164 123 172 116 178 c 1
 107 192 92 199 70 199 c 0
 49 199 29 192 10 178 c 1
 -5 162 -17 145 -25 130 c 1
 -28 108 l 1
 -28 96 -25 87 -19 81 c 1
 -13 65 1 57 24 57 c 0
EndSplineSet
MinimumDistance: x11,-1 
EndChar
StartChar: uni0E21
Encoding: 193 3617 162
OldEncoding: 3617
Width: 850
Flags: HW
HStem: -14 80<38.8555 61.4551> -0 21G<506.675 603.855> 512 69<194 219.655> 724 72<264 288.585> 766 20G<760.925 858.105>
VStem: -65 85<90.3555 119.735> 94 75<606.765 631.625>
DStem: 163.155 271.155 258.075 266.635 110.045 106.175 209.485 119.735 242.255 518.625 383.505 653.095 186.885 342.345 284.065 342.345 760.925 786.435 858.105 786.435 559.785 163.805 603.855 -0.0449219
Fore
187 342 m 1
 242 519 l 1
 231 514 216 512 196 512 c 0
 154 512 125 525 108 553 c 1
 99 570 94 588 94 607 c 0
 94 623 96 639 101 655 c 0
 115 694 139 727 173 755 c 0
 208 783 246 796 289 796 c 0
 316 796 339 790 358 777 c 0
 375 766 386 749 390 727 c 1
 393 706 l 1
 393 687 390 669 384 653 c 1
 284 342 l 1
 335 338 379 325 416 305 c 1
 453 288 485 266 511 238 c 1
 533 211 549 186 560 164 c 1
 761 786 l 1
 858 786 l 1
 604 -0 l 1
 507 -0 l 1
 511 35 l 1
 511 58 506 81 494 104 c 0
 475 146 445 182 404 210 c 1
 365 240 316 258 258 267 c 1
 209 120 l 2
 195 78 174 45 145 23 c 0
 116 -2 80 -14 39 -14 c 0
 -8 -14 -39 3 -54 37 c 0
 -61 55 -65 72 -65 90 c 0
 -65 108 -61 130 -54 155 c 0
 -37 206 -8 249 34 285 c 0
 77 321 128 340 187 342 c 1
28 88 m 0
 35 74 46 66 61 66 c 0
 84 66 100 80 110 106 c 1
 163 271 l 1
 133 271 105 260 78 238 c 0
 54 216 37 189 28 159 c 0
 22 140 20 127 20 120 c 0
 20 109 22 99 28 88 c 0
266 724 m 0
 244 724 225 718 207 704 c 1
 191 686 179 669 173 653 c 1
 169 632 l 1
 169 623 171 614 176 605 c 0
 182 589 196 581 220 581 c 0
 245 581 265 589 282 605 c 0
 298 618 309 634 317 653 c 1
 321 678 l 1
 321 687 319 696 315 704 c 1
 304 718 288 724 266 724 c 0
EndSplineSet
EndChar
StartChar: uni0E22
Encoding: 194 3618 163
OldEncoding: 3618
Width: 759
Flags: HW
HStem: -1 84<53 375> 529 69<280 304.19> 732 68<348.26 369.73> 765 20G<668.05 765.23>
VStem: 87 97<504 519> 397 75<688.215 709.685>
DStem: -9.9502 191.015 87.2305 191.015 -73.2305 -1.08496 52.2002 82.5352 668.05 785.395 765.23 785.395 462.39 149.205 559.57 149.205
Fore
178 372 m 1
 135 387 108 413 96 450 c 0
 90 467 87 486 87 506 c 0
 87 524 91 547 99 573 c 0
 117 632 153 684 205 730 c 0
 258 777 313 800 370 800 c 0
 411 800 440 787 457 761 c 0
 467 744 472 727 472 710 c 0
 472 693 468 678 462 663 c 0
 450 624 427 593 395 568 c 0
 359 542 322 529 282 529 c 0
 253 529 232 534 218 545 c 0
 206 556 198 565 196 573 c 1
 188 549 184 530 184 518 c 0
 184 492 193 470 209 452 c 1
 239 426 274 414 315 414 c 1
 288 328 l 1
 235 328 192 315 158 290 c 0
 125 266 101 232 87 191 c 2
 52 83 l 1
 370 83 l 2
 400 83 421 87 432 96 c 0
 441 101 451 119 462 149 c 1
 668 785 l 1
 765 785 l 1
 560 149 l 1
 537 84 512 43 485 27 c 1
 457 8 409 -1 341 -1 c 2
 -73 -1 l 1
 -10 191 l 1
 1 228 17 260 39 286 c 0
 61 311 82 328 101 339 c 2
 149 365 l 1
 178 372 l 1
304 598 m 0
 349 600 379 623 392 666 c 1
 397 688 l 1
 397 699 395 707 390 714 c 0
 383 726 369 732 348 732 c 0
 328 732 309 726 293 714 c 0
 279 702 268 686 260 666 c 1
 256 644 l 1
 256 634 258 626 262 619 c 0
 271 605 285 598 304 598 c 0
EndSplineSet
EndChar
StartChar: uni0E23
Encoding: 195 3619 164
OldEncoding: 3619
Width: 672
Flags: HW
HStem: -14 71<251 276.57> 199 72<321 343.24> 653 85<618.96 649.47> 724 77<365 391.83>
VStem: 147 79<83.3154 105.915>
DStem: 424.6 381.635 524.04 386.155 387.31 262.985 438.16 125.125
Fore
524 386 m 1
 438 125 l 1
 425 84 401 50 365 22 c 0
 331 -2 294 -14 253 -14 c 0
 208 -14 177 1 160 30 c 0
 151 46 147 64 147 83 c 0
 147 98 150 112 156 127 c 0
 167 164 191 197 228 229 c 1
 264 257 303 271 343 271 c 0
 354 271 368 268 387 263 c 1
 425 382 l 1
 437 424 443 454 443 472 c 2
 443 477 l 1
 440 501 432 518 418 527 c 0
 401 536 378 546 348 556 c 0
 300 570 247 582 188 592 c 2
 68 613 l 1
 118 668 171 712 226 748 c 0
 284 783 339 801 392 801 c 0
 424 801 451 798 471 793 c 0
 506 781 529 773 540 768 c 2
 601 744 l 1
 617 740 633 738 649 738 c 0
 677 738 706 744 736 757 c 1
 727 675 l 1
 688 660 651 653 619 653 c 0
 596 653 577 655 564 660 c 2
 498 687 l 1
 427 715 l 2
 411 721 391 724 367 724 c 0
 345 724 318 718 286 706 c 1
 255 692 237 680 230 671 c 1
 230 671 l 1
 429 618 l 2
 497 600 535 575 544 541 c 1
 547 514 l 2
 549 486 541 443 524 386 c 1
277 57 m 0
 301 57 321 64 336 79 c 0
 354 94 365 111 371 130 c 1
 376 152 l 1
 376 163 374 171 369 178 c 0
 362 192 347 199 323 199 c 0
 300 199 281 192 265 178 c 0
 248 162 236 146 228 130 c 1
 226 106 l 1
 226 96 228 88 232 81 c 1
 239 65 253 57 277 57 c 0
EndSplineSet
MinimumDistance: x0,-1 
EndChar
StartChar: uni0E24
Encoding: 196 3620 165
OldEncoding: 3620
Width: 784
Flags: HW
HStem: 9 71<152 176.92> 221 72<219 245.85> 740 84<521 548>
VStem: 47 77<101.545 128.665>
DStem: 139.63 413.425 239.07 417.945 56.0098 152.395 195 283.475 683.16 568.235 780.34 568.235 373.54 -386.615 470.72 -386.615
Fore
56 152 m 1
 140 413 l 1
 152 455 172 490 202 520 c 1
 229 545 257 562 285 573 c 1
 279 581 263 593 237 610 c 0
 210 628 176 638 135 641 c 1
 174 677 226 716 292 756 c 0
 368 801 452 824 546 824 c 0
 603 824 654 814 700 795 c 0
 741 778 769 749 785 709 c 0
 792 696 795 677 795 652 c 0
 795 625 790 598 780 568 c 2
 471 -387 l 1
 374 -387 l 1
 683 568 l 1
 688 586 690 602 690 617 c 1
 693 632 691 646 683 659 c 1
 671 686 651 706 623 719 c 0
 595 733 562 740 524 740 c 0
 441 740 361 714 283 663 c 1
 296 661 317 653 345 638 c 0
 370 625 394 606 418 578 c 1
 394 573 364 559 327 537 c 0
 287 512 257 472 239 418 c 2
 195 283 l 1
 203 290 219 293 246 293 c 0
 291 293 320 280 334 252 c 0
 343 235 348 218 348 203 c 0
 348 185 345 168 339 152 c 0
 326 114 303 81 270 53 c 0
 236 24 197 9 153 9 c 0
 113 9 82 22 63 48 c 0
 52 64 47 81 47 102 c 0
 47 118 50 135 56 152 c 1
177 80 m 0
 200 80 219 87 235 102 c 0
 254 118 267 135 272 152 c 1
 274 173 l 1
 274 185 272 194 267 201 c 0
 258 215 242 221 221 221 c 0
 198 221 179 215 163 201 c 0
 145 187 133 170 128 152 c 1
 124 129 l 1
 124 117 126 108 131 102 c 0
 137 87 153 80 177 80 c 0
EndSplineSet
MinimumDistance: x11,-1 
EndChar
StartChar: uni0E25
Encoding: 197 3621 166
OldEncoding: 3621
Width: 763
Flags: HW
HStem: -14 69<92 116.285> -0 21G<420.255 517.435> 199 72<161 186.345>
VStem: 216 75<151 178.235> 608 102<603 629.105>
DStem: 595.405 540.965 692.585 540.965 507.265 270.895 517.435 -0.304688
Fore
288 497 m 1
 219 490 167 432 133 324 c 1
 112 252 l 1
 138 263 l 2
 148 268 164 271 186 271 c 0
 229 271 259 257 277 229 c 0
 286 212 291 195 291 178 c 0
 291 162 288 145 284 130 c 1
 265 84 240 50 209 28 c 1
 176 0 137 -14 94 -14 c 0
 48 -14 18 1 3 30 c 0
 -7 49 -13 71 -13 97 c 1
 -8 132 l 1
 5 191 23 257 47 329 c 0
 69 396 102 452 147 499 c 0
 190 545 241 571 299 578 c 1
 361 578 407 558 438 518 c 0
 468 478 487 430 494 375 c 1
 507 271 l 1
 595 541 l 1
 604 570 608 591 608 604 c 0
 608 633 598 657 580 675 c 0
 549 708 502 724 438 724 c 0
 335 724 239 682 151 599 c 1
 105 647 l 1
 139 686 190 721 258 755 c 1
 329 785 400 801 469 801 c 0
 558 801 625 778 670 733 c 1
 696 704 710 670 710 629 c 0
 710 600 704 571 693 541 c 1
 517 -0 l 1
 420 -0 l 1
 429 25 434 67 436 125 c 1
 436 139 l 2
 436 197 432 249 425 293 c 0
 416 345 400 394 374 439 c 0
 353 478 324 497 288 497 c 1
163 199 m 0
 139 199 119 192 103 178 c 0
 85 162 74 145 68 127 c 1
 63 104 l 1
 63 94 65 86 70 79 c 0
 77 63 93 55 116 55 c 0
 139 55 159 63 177 79 c 0
 193 92 204 109 211 127 c 1
 216 152 l 1
 216 163 213 171 209 178 c 0
 200 192 184 199 163 199 c 0
EndSplineSet
MinimumDistance: x28,-1 
EndChar
StartChar: uni0E26
Encoding: 198 3622 167
OldEncoding: 3622
Width: 879
Flags: HW
HStem: 9 71<57 84> 221 72<127 150.67> 740 84<611 645>
VStem: -44 75<103.805 130.925> 787 103<616.825 654.115>
DStem: 236.55 413.425 333.73 417.945 194.74 283.475 247.85 147.875 777.82 568.235 872.74 568.235 468.2 -386.615 565.38 -386.615
Fore
195 283 m 1
 237 413 l 1
 244 440 257 467 276 495 c 1
 296 520 313 537 327 546 c 0
 341 555 359 564 380 573 c 1
 374 581 358 593 331 610 c 0
 304 628 269 638 228 641 c 1
 266 675 320 714 389 756 c 1
 468 801 553 824 643 824 c 0
 738 824 806 802 850 758 c 0
 877 732 890 697 890 654 c 0
 890 629 884 601 873 568 c 1
 565 -387 l 1
 468 -387 l 1
 778 568 l 1
 784 583 787 599 787 617 c 0
 787 635 784 649 778 659 c 1
 769 686 750 706 720 719 c 1
 694 733 661 740 621 740 c 0
 538 740 458 714 380 663 c 1
 393 661 414 653 442 638 c 0
 466 625 490 605 512 578 c 1
 489 573 459 559 422 537 c 0
 381 512 352 472 334 418 c 1
 248 148 l 1
 237 107 214 75 179 51 c 1
 144 23 104 9 58 9 c 0
 16 9 -13 23 -29 51 c 0
 -39 66 -44 83 -44 104 c 0
 -44 119 -41 135 -37 152 c 1
 -23 192 2 225 35 252 c 0
 72 280 110 293 151 293 c 0
 174 293 189 290 195 283 c 1
84 80 m 0
 109 80 129 87 144 102 c 0
 161 117 173 134 179 152 c 1
 183 175 l 1
 183 186 181 194 177 201 c 0
 168 215 151 221 128 221 c 0
 105 221 86 215 70 201 c 0
 53 185 41 169 33 152 c 1
 31 131 l 1
 31 120 33 111 38 104 c 1
 44 88 59 80 84 80 c 0
EndSplineSet
EndChar
StartChar: uni0E27
Encoding: 199 3623 168
OldEncoding: 3623
Width: 719
Flags: HW
HStem: -14 71<326 349> 199 72<390 417.915> 724 77<399 429>
VStem: 224 71<80 105.915>
DStem: 548.995 540.965 643.915 540.965 461.985 262.985 512.835 129.645
Fore
644 541 m 1
 513 130 l 2
 501 91 479 58 447 30 c 1
 419 1 379 -14 328 -14 c 0
 283 -14 253 0 237 28 c 0
 228 44 224 61 224 81 c 0
 224 96 226 112 230 130 c 0
 241 167 264 200 299 229 c 0
 333 257 373 271 418 271 c 0
 431 271 446 268 462 263 c 1
 549 541 l 2
 557 568 561 591 561 609 c 0
 561 636 554 659 540 678 c 1
 513 709 467 724 401 724 c 0
 350 724 298 711 244 684 c 0
 198 662 155 631 116 592 c 1
 72 640 l 1
 92 661 123 688 167 720 c 1
 201 741 242 761 290 777 c 0
 336 793 382 801 427 801 c 0
 517 801 584 778 626 731 c 1
 649 703 661 669 661 629 c 0
 661 600 655 571 644 541 c 1
392 199 m 0
 371 199 352 192 337 178 c 0
 318 161 306 145 299 130 c 1
 295 106 l 1
 295 96 297 88 302 81 c 0
 310 65 325 57 348 57 c 0
 373 57 393 64 408 79 c 0
 425 93 436 110 441 130 c 1
 445 152 l 1
 441 178 l 1
 434 192 418 199 392 199 c 0
EndSplineSet
MinimumDistance: x0,-1 
EndChar
StartChar: uni0E28
Encoding: 200 3624 169
OldEncoding: 3624
Width: 792
Flags: HW
HStem: -3 21G<5.59961 100.52 438.39 535.57> 326 69<293 318.61> 538 72<364.94 387.54> 726 77<436 466>
DStem: 51.9297 138.215 216.91 352.915 5.59961 -3.03516 100.52 -3.03516 610.15 522.415 709.59 531.455 438.39 -3.03516 535.57 -3.03516
Fore
698 712 m 1
 740 761 l 1
 793 832 l 1
 864 788 l 1
 841 752 817 723 791 701 c 0
 762 675 739 654 721 640 c 1
 723 615 l 1
 723 590 719 562 710 531 c 1
 536 -3 l 1
 438 -3 l 1
 610 522 l 2
 614 534 618 551 621 573 c 1
 557 540 l 2
 531 527 508 518 489 513 c 1
 487 492 l 1
 480 460 l 1
 470 424 446 392 409 365 c 0
 374 339 336 326 295 326 c 0
 254 326 228 335 217 353 c 1
 101 -3 l 1
 6 -3 l 1
 52 138 l 2
 62 169 67 194 67 212 c 0
 67 220 65 226 63 231 c 1
 62 248 54 281 41 328 c 0
 29 368 23 401 20 427 c 1
 20 439 l 2
 20 459 26 487 36 522 c 0
 56 582 89 633 133 675 c 0
 178 718 230 750 288 770 c 0
 352 792 411 803 464 803 c 0
 574 803 652 773 698 712 c 1
608 638 m 1
 602 653 586 672 559 693 c 0
 533 715 493 726 438 726 c 0
 400 726 362 720 325 708 c 0
 288 696 250 674 210 640 c 0
 172 610 145 569 129 518 c 0
 123 501 120 481 120 458 c 1
 122 423 l 1
 127 365 l 1
 127 339 l 1
 149 414 l 1
 167 468 197 515 240 555 c 1
 282 592 331 610 388 610 c 0
 410 610 427 608 438 604 c 1
 452 595 461 588 467 580 c 2
 476 569 l 1
 496 575 517 584 540 596 c 1
 608 638 l 1
365 538 m 0
 342 538 321 531 304 518 c 0
 288 504 277 487 270 467 c 1
 266 443 l 1
 266 434 268 425 272 418 c 1
 278 403 294 395 319 395 c 0
 342 395 362 403 378 418 c 0
 396 433 408 449 414 467 c 1
 418 492 l 1
 418 502 416 511 411 518 c 0
 404 531 389 538 365 538 c 0
EndSplineSet
MinimumDistance: x7,-1 
EndChar
StartChar: uni0E29
Encoding: 201 3625 170
OldEncoding: 3625
Width: 872
Flags: HW
HStem: -1 84<-19 78 176 466> 511 69<171 192.4> 724 72<237 264.72> 766 20G<757.4 854.58>
VStem: 66 73<609 628.585> 539 70<464.735 482.815>
DStem: 218.39 517.845 359.64 652.315 77.1396 82.7949 174.32 82.7949 595.81 288.455 704.29 318.965 551.74 149.465 648.92 149.465 757.4 785.655 854.58 785.655 618.41 357.385 726.89 394.675
Fore
704 319 m 1
 649 149 l 1
 626 84 601 43 574 27 c 1
 548 9 500 -1 431 -1 c 2
 -46 -1 l 1
 -18 83 l 1
 77 83 l 1
 218 518 l 1
 203 513 188 511 172 511 c 0
 127 511 97 526 82 555 c 1
 71 570 66 589 66 611 c 0
 66 625 69 640 75 655 c 1
 86 693 109 726 144 754 c 0
 180 782 220 796 265 796 c 0
 291 796 313 789 331 777 c 0
 348 765 360 748 366 726 c 1
 369 705 l 1
 369 686 366 668 360 652 c 1
 174 83 l 1
 459 83 l 2
 489 83 510 87 521 96 c 0
 530 102 540 119 552 149 c 1
 596 288 l 1
 579 285 558 284 533 284 c 0
 470 286 420 299 382 321 c 0
 354 338 340 363 340 397 c 1
 345 439 l 1
 359 473 380 502 406 525 c 0
 435 551 470 564 512 564 c 0
 554 564 583 552 598 529 c 1
 606 514 609 499 609 483 c 0
 609 472 607 458 603 441 c 1
 588 402 566 373 537 355 c 1
 618 357 l 1
 757 786 l 1
 855 786 l 1
 727 395 l 1
 744 404 766 422 792 450 c 0
 817 476 837 511 852 555 c 1
 928 555 l 1
 905 484 875 434 839 404 c 0
 802 374 757 346 704 319 c 1
452 379 m 0
 467 379 479 382 488 388 c 0
 501 395 511 403 519 412 c 0
 525 419 530 429 535 441 c 1
 539 465 l 1
 539 474 537 481 533 485 c 1
 525 497 512 503 493 503 c 0
 476 503 458 497 440 485 c 0
 426 475 416 460 410 441 c 2
 406 423 l 1
 406 412 408 404 413 397 c 0
 420 385 433 379 452 379 c 0
239 724 m 0
 216 724 197 717 181 703 c 0
 162 685 149 668 144 652 c 1
 139 629 l 1
 139 619 142 611 146 604 c 0
 154 588 170 580 192 580 c 0
 217 580 237 588 252 604 c 1
 271 617 283 633 287 652 c 1
 292 677 l 1
 292 686 290 695 285 703 c 0
 278 717 263 724 239 724 c 0
EndSplineSet
MinimumDistance: x35,-1 
EndChar
StartChar: uni0E2A
Encoding: 202 3626 171
OldEncoding: 3626
Width: 759
Flags: HW
HStem: -18 69<76 100.24> -4 21G<403.08 500.26> 195 72<145 170.3> 720 77<420 453>
VStem: 200 75<147 174.53>
DStem: 579.36 537.26 676.54 537.26 491.22 267.19 500.26 -4.00977
Fore
147 195 m 0
 122 195 102 188 87 175 c 0
 69 159 58 143 52 124 c 1
 47 100 l 1
 47 90 49 82 54 75 c 1
 60 59 75 51 100 51 c 0
 125 51 145 59 160 75 c 1
 177 89 188 105 195 124 c 1
 200 149 l 1
 200 159 197 168 193 175 c 0
 186 188 171 195 147 195 c 0
584 632 m 1
 582 625 559 601 517 561 c 0
 474 522 450 498 447 489 c 1
 458 471 468 445 475 411 c 1
 487 327 l 1
 491 267 l 1
 579 537 l 2
 585 556 588 576 588 597 c 1
 584 632 l 1
425 544 m 2
 425 544 448 567 493 612 c 1
 561 676 l 1
 534 706 489 720 425 720 c 0
 320 720 223 679 135 595 c 1
 89 643 l 1
 123 682 174 718 241 751 c 1
 312 782 382 797 452 797 c 0
 521 797 578 783 623 755 c 1
 626 755 646 773 681 808 c 0
 716 844 738 862 747 862 c 1
 765 848 l 1
 790 822 l 2
 796 816 800 810 800 804 c 2
 800 802 l 1
 725 738 l 1
 691 714 674 701 674 698 c 1
 686 675 692 650 692 623 c 0
 692 601 687 573 677 537 c 1
 500 -4 l 1
 403 -4 l 1
 412 21 418 63 420 121 c 1
 420 135 l 2
 420 187 415 239 405 290 c 0
 396 349 380 397 357 436 c 1
 337 474 309 493 272 493 c 1
 201 486 148 429 114 320 c 1
 96 248 l 1
 122 259 l 2
 132 265 148 267 170 267 c 0
 213 267 243 253 260 225 c 0
 269 209 275 192 275 175 c 0
 275 156 271 140 265 126 c 0
 249 81 225 48 193 24 c 1
 158 -4 120 -18 78 -18 c 0
 32 -18 2 -3 -13 26 c 0
 -24 47 -30 69 -30 93 c 1
 -27 128 l 1
 -12 192 6 258 29 325 c 0
 54 393 88 450 131 495 c 0
 174 541 225 568 283 575 c 1
 330 575 363 569 383 556 c 1
 392 554 l 1
 413 549 l 1
 425 544 l 2
EndSplineSet
MinimumDistance: x36,-1 
EndChar
StartChar: uni0E2B
Encoding: 203 3627 172
OldEncoding: 3627
Width: 871
Flags: HW
HStem: -1 21G<48.1748 145.355 525.035 622.215> 511 69<170 191.685> 724 72<237 264.005 717.135 740.865>
VStem: 65 73<609 626.325> 536 81<603.725 633.105>
DStem: 217.675 517.845 358.925 652.315 48.1748 -0.825195 240.275 292.975 648.205 372.075 743.125 372.075 525.035 -0.825195 622.215 -0.825195
Fore
48 -1 m 1
 218 518 l 1
 203 513 187 511 171 511 c 0
 126 511 96 526 81 555 c 1
 70 570 65 589 65 611 c 0
 65 625 68 640 74 655 c 1
 85 693 108 726 143 754 c 0
 179 782 220 796 264 796 c 0
 290 796 313 789 331 777 c 0
 347 765 359 748 366 726 c 1
 368 705 l 1
 368 686 365 668 359 652 c 1
 240 293 l 1
 289 360 346 414 412 455 c 1
 480 499 530 528 562 540 c 1
 545 559 536 580 536 604 c 0
 536 622 540 638 547 652 c 1
 559 688 584 722 620 754 c 1
 656 782 696 796 741 796 c 0
 785 796 816 782 832 754 c 1
 841 736 845 719 845 703 c 0
 845 685 842 669 836 655 c 0
 828 630 814 606 794 582 c 1
 769 556 744 538 719 529 c 1
 731 525 742 510 752 485 c 1
 757 478 759 467 759 452 c 0
 759 428 754 401 743 372 c 1
 622 -1 l 1
 525 -1 l 1
 648 372 l 1
 657 397 662 418 662 436 c 0
 662 449 660 458 655 465 c 0
 646 481 637 492 627 496 c 1
 512 447 411 376 324 284 c 0
 237 192 180 107 154 30 c 1
 145 -1 l 1
 48 -1 l 1
717 726 m 0
 695 726 675 719 660 705 c 0
 639 690 626 673 620 655 c 1
 617 633 l 1
 617 624 620 615 624 606 c 0
 633 590 648 582 671 582 c 0
 696 582 716 590 731 606 c 1
 748 620 759 636 763 655 c 1
 768 679 l 1
 763 705 l 1
 757 719 741 726 717 726 c 0
238 724 m 0
 215 724 196 717 180 703 c 0
 161 685 148 668 143 652 c 1
 138 626 l 1
 138 618 141 611 145 604 c 0
 154 588 169 580 192 580 c 0
 217 580 237 588 252 604 c 1
 270 617 282 633 287 652 c 1
 291 677 l 1
 291 686 289 695 284 703 c 0
 278 717 262 724 238 724 c 0
EndSplineSet
MinimumDistance: x26,-1 
EndChar
StartChar: uni0E2C
Encoding: 204 3628 173
OldEncoding: 3628
Width: 930
Flags: HW
HStem: -27 20G<565.78 565.78> -7 21G<17.7305 114.91 565.78 665.22> 505 69<138 163.5> 717 72<208 232.43> 838 62<822 848.28>
VStem: 34 77<603 622.215>
DStem: 186.1 511.475 325.09 645.945 17.7305 -7.19531 196.27 244.795 526.23 548.765 591.77 745.385 584.99 89.9854 649.4 244.795 591.77 745.385 526.23 548.765 196.27 244.795 165.76 89.9854 781.61 650.465 883.31 668.545 649.4 244.795 665.22 -7.19531
Fore
18 -7 m 1
 186 511 l 1
 175 507 159 505 140 505 c 0
 95 505 66 519 50 549 c 1
 39 563 34 582 34 604 c 0
 34 618 37 633 43 648 c 0
 55 685 79 718 115 748 c 0
 151 776 190 789 232 789 c 0
 257 789 281 783 302 770 c 1
 317 760 327 743 332 719 c 1
 334 699 l 1
 334 679 331 662 325 646 c 1
 196 245 l 1
 592 745 l 1
 649 245 l 1
 782 650 l 1
 730 650 697 663 682 687 c 0
 672 701 667 716 667 733 c 0
 667 750 671 766 678 779 c 1
 689 813 711 842 744 865 c 0
 777 889 811 900 848 900 c 0
 881 900 906 888 923 863 c 1
 930 848 934 832 934 814 c 0
 934 798 931 782 925 766 c 1
 936 770 955 782 980 801 c 0
 1005 820 1028 846 1047 876 c 1
 1100 838 l 1
 1075 798 1039 762 992 728 c 0
 943 695 907 675 883 669 c 1
 665 -7 l 1
 566 -7 l 1
 566 -7 l 1
 570 11 l 1
 583 53 l 1
 585 90 l 1
 526 549 l 1
 166 90 l 1
 149 67 138 50 133 39 c 1
 115 -7 l 1
 18 -7 l 1
210 717 m 0
 186 717 166 710 150 697 c 0
 133 682 121 666 115 646 c 1
 111 622 l 1
 111 612 113 604 117 597 c 1
 123 582 139 574 164 574 c 0
 187 574 206 582 221 597 c 1
 239 611 252 627 258 646 c 1
 263 671 l 1
 263 680 261 689 256 697 c 0
 247 710 232 717 210 717 c 0
784 717 m 0
 800 717 817 723 835 735 c 1
 848 749 856 763 860 777 c 1
 864 801 l 1
 860 821 l 1
 853 832 841 838 823 838 c 0
 806 838 790 832 775 819 c 0
 761 808 751 794 744 777 c 1
 740 759 l 1
 740 751 742 744 747 735 c 0
 754 723 767 717 784 717 c 0
EndSplineSet
MinimumDistance: x28,-1 
EndChar
StartChar: uni0E2D
Encoding: 205 3629 174
OldEncoding: 3629
Width: 784
Flags: HW
HStem: -1 84<127 401> 279 71<191 213> 492 72<255 282.745>
VStem: 310 77<445.265 468.995> 625 99<603.465 626.065>
DStem: 90.6445 420.405 146.015 288.195 2.50488 149.205 99.6846 149.205 613.835 540.185 711.015 540.185 486.145 149.205 583.325 149.205
Fore
146 288 m 1
 100 149 l 1
 95 133 93 121 93 112 c 0
 93 104 94 99 97 96 c 0
 102 87 119 83 148 83 c 2
 391 83 l 2
 423 83 444 87 456 96 c 1
 466 102 476 120 486 149 c 2
 614 540 l 1
 621 567 625 588 625 603 c 0
 625 633 616 657 597 675 c 1
 567 709 520 726 456 726 c 0
 355 728 258 685 166 598 c 1
 123 646 l 1
 157 685 207 721 276 754 c 1
 346 785 415 800 484 800 c 0
 542 800 592 790 634 770 c 0
 676 748 703 719 716 681 c 0
 722 667 724 649 724 626 c 0
 724 600 720 571 711 540 c 1
 583 149 l 2
 562 86 539 45 512 27 c 0
 482 8 433 -1 366 -1 c 2
 123 -1 l 2
 79 -1 45 3 21 10 c 0
 0 17 -11 31 -13 52 c 1
 -16 63 l 1
 -16 81 -10 109 3 149 c 1
 91 420 l 1
 100 445 111 465 123 480 c 0
 143 506 164 525 188 538 c 1
 213 555 245 564 283 564 c 0
 326 564 356 550 373 522 c 0
 382 506 387 489 387 469 c 0
 387 452 384 437 378 423 c 1
 366 382 343 348 308 321 c 1
 274 293 236 279 192 279 c 0
 180 279 164 282 146 288 c 1
210 350 m 0
 233 350 253 358 271 374 c 1
 287 385 299 401 305 420 c 1
 310 445 l 1
 310 456 308 464 303 471 c 0
 296 485 281 492 257 492 c 0
 233 492 213 486 197 474 c 1
 180 459 169 442 162 423 c 1
 157 397 l 1
 157 387 160 379 164 372 c 0
 174 358 189 350 210 350 c 0
EndSplineSet
MinimumDistance: x18,-1 
EndChar
StartChar: uni0E2E
Encoding: 206 3630 175
OldEncoding: 3630
Width: 776
Flags: HW
HStem: -1 84<116 389> 202 70<152 177.31> 416 71<223.64 246.24> 524 79<344 389> 728 72<420 454>
DStem: 616.88 581.735 720.84 612.245 475.63 148.945 572.81 148.945
Fore
-8 149 m 1
 54 341 l 1
 65 373 87 406 120 438 c 0
 151 471 194 487 246 487 c 0
 291 487 321 473 337 445 c 0
 346 429 350 411 350 392 c 0
 350 378 348 363 343 346 c 0
 333 309 310 275 274 244 c 1
 238 216 198 202 154 202 c 0
 137 202 122 205 110 211 c 1
 89 149 l 1
 85 133 82 121 82 112 c 0
 82 104 84 99 87 96 c 0
 91 87 108 83 138 83 c 2
 381 83 l 2
 412 83 434 87 445 96 c 1
 456 102 466 120 476 149 c 2
 617 582 l 1
 593 567 557 553 508 542 c 0
 450 530 401 524 363 524 c 0
 291 524 232 536 184 559 c 0
 144 577 124 601 124 630 c 1
 129 656 l 1
 141 689 164 716 198 737 c 0
 234 758 276 774 323 785 c 0
 368 795 410 800 450 800 c 0
 507 800 555 793 593 781 c 0
 626 770 654 755 677 737 c 1
 696 723 705 715 705 714 c 1
 705 714 l 1
 743 742 779 772 814 804 c 1
 862 751 l 1
 830 719 801 694 776 677 c 2
 719 639 l 1
 722 636 723 632 723 626 c 1
 721 612 l 1
 573 149 l 1
 552 86 528 45 502 27 c 0
 471 8 423 -1 355 -1 c 2
 112 -1 l 2
 68 -1 34 2 10 10 c 0
 -10 17 -22 31 -24 52 c 1
 -26 63 l 1
 -26 80 -20 109 -8 149 c 1
387 603 m 0
 429 603 467 608 502 617 c 1
 540 624 568 632 584 639 c 2
 619 656 l 1
 613 666 595 682 566 703 c 1
 537 719 490 728 427 728 c 0
 381 728 339 722 299 712 c 0
 259 700 235 683 228 661 c 1
 226 652 l 1
 226 619 280 603 387 603 c 0
177 272 m 0
 200 272 219 279 235 292 c 1
 252 310 264 327 270 343 c 1
 274 372 l 1
 270 394 l 1
 260 408 245 416 224 416 c 0
 200 416 180 408 164 394 c 1
 146 382 133 365 126 343 c 1
 124 321 l 1
 124 309 126 299 131 292 c 0
 138 279 153 272 177 272 c 0
EndSplineSet
MinimumDistance: x35,-1 
EndChar
StartChar: uni0E2F
Encoding: 207 3631 176
OldEncoding: 3631
Width: 720
Flags: HW
HStem: 354 86<261 285> 522 67<235 254> 767 20G<632.325 729.505>
DStem: 544.185 517.08 729.505 787.15 459.435 254.92 556.615 245.88
Fore
318 802 m 0
 362 802 393 789 411 762 c 1
 418 743 422 727 422 711 c 0
 422 693 419 677 413 663 c 0
 400 625 378 593 345 566 c 0
 312 536 276 522 237 522 c 0
 214 522 198 525 188 531 c 2
 168 542 l 1
 170 513 181 490 200 471 c 0
 218 450 246 440 285 440 c 0
 328 440 372 456 418 489 c 0
 467 524 510 567 546 617 c 0
 586 670 615 727 632 787 c 1
 730 787 l 1
 557 246 l 1
 531 168 491 107 438 65 c 0
 384 23 311 -9 216 -30 c 1
 223 58 l 1
 298 75 351 97 383 124 c 1
 411 146 437 189 459 255 c 1
 544 517 l 1
 504 462 461 422 413 396 c 0
 361 368 311 354 263 354 c 0
 211 354 168 369 133 398 c 0
 96 429 77 467 77 515 c 2
 77 517 l 1
 81 546 86 574 93 600 c 0
 111 657 139 705 177 743 c 0
 214 782 261 802 318 802 c 0
253 589 m 0
 277 589 297 595 314 610 c 0
 330 624 342 641 348 661 c 1
 352 681 l 1
 352 693 350 702 345 709 c 0
 339 723 323 730 299 730 c 0
 276 730 257 723 241 709 c 0
 229 697 218 681 209 661 c 1
 204 635 l 1
 209 610 l 1
 216 595 231 589 253 589 c 0
EndSplineSet
EndChar
StartChar: uni0E30
Encoding: 208 3632 177
OldEncoding: 3632
Width: 603
Flags: HW
HStem: -1 88<46.7646 95.3555> 515 88<215.135 261.465> 737 63<255 278.415> 765 20G<546.225 643.405>
VStem: -76 77<107.395 133.385> 91 76<623.805 648.665> 142 76<179.715 197.795>
Fore
261 515 m 0
 189 515 141 530 116 559 c 1
 99 576 91 597 91 624 c 0
 91 635 93 648 98 663 c 0
 108 699 132 731 167 761 c 1
 204 787 241 800 278 800 c 0
 325 800 356 788 372 763 c 1
 380 746 385 730 385 714 c 0
 385 700 382 686 378 672 c 0
 367 643 348 616 321 591 c 1
 347 591 385 603 435 626 c 1
 484 652 521 705 546 785 c 1
 643 785 l 1
 624 723 597 674 562 637 c 1
 530 600 486 569 431 545 c 0
 382 525 325 515 261 515 c 0
95 -1 m 0
 24 -1 -24 14 -48 43 c 1
 -67 61 -76 83 -76 107 c 0
 -76 120 -74 133 -70 147 c 0
 -57 183 -33 215 0 242 c 0
 37 272 74 286 111 284 c 0
 141 284 166 277 186 262 c 0
 203 250 213 235 215 217 c 2
 218 198 l 1
 218 184 215 170 211 156 c 0
 202 127 183 101 155 76 c 1
 183 76 221 88 268 112 c 0
 316 135 354 188 380 270 c 1
 477 270 l 1
 455 208 427 158 394 122 c 0
 357 81 313 50 261 29 c 0
 216 9 160 -1 95 -1 c 0
91 222 m 0
 72 222 53 215 34 202 c 1
 19 190 9 173 5 154 c 2
 0 133 l 1
 0 123 3 114 7 107 c 0
 14 94 27 87 47 87 c 0
 69 87 88 93 104 105 c 1
 118 119 129 135 137 154 c 1
 142 180 l 1
 142 188 139 196 135 202 c 0
 126 215 111 222 91 222 c 0
257 737 m 0
 238 737 220 731 204 719 c 0
 190 707 179 690 171 670 c 1
 167 649 l 1
 167 639 169 631 173 624 c 0
 181 610 195 603 215 603 c 0
 236 603 255 610 271 624 c 1
 286 634 296 649 301 670 c 0
 306 681 308 690 308 697 c 0
 308 724 291 737 257 737 c 0
EndSplineSet
MinimumDistance: x23,-1 
EndChar
StartChar: uni0E31
Encoding: 209 3633 178
OldEncoding: 3633
Width: 0
Flags: HW
HStem: 1107 67<-266 -241.825>
Fore
-427 1021 m 1
 -414 1066 -391 1102 -358 1130 c 0
 -327 1159 -288 1174 -242 1174 c 0
 -200 1174 -171 1160 -154 1134 c 0
 -145 1118 -140 1101 -140 1081 c 0
 -140 1069 -142 1056 -147 1041 c 0
 -157 1004 -183 971 -224 942 c 1
 -184 935 l 1
 -145 931 l 1
 -97 933 -51 943 -6 961 c 1
 42 978 85 1003 125 1037 c 1
 167 1069 200 1107 226 1151 c 1
 293 1112 l 1
 263 1067 224 1025 174 984 c 0
 131 949 76 918 8 889 c 0
 -58 863 -119 849 -177 849 c 0
 -251 847 -316 860 -372 889 c 0
 -412 911 -432 942 -432 984 c 1
 -427 1021 l 1
-310 973 m 0
 -292 973 -273 979 -255 991 c 1
 -242 1003 -231 1020 -224 1039 c 1
 -219 1067 l 1
 -217 1073 -218 1080 -224 1088 c 0
 -231 1101 -245 1107 -266 1107 c 0
 -283 1107 -301 1101 -321 1088 c 0
 -337 1076 -348 1060 -356 1039 c 1
 -358 1019 l 1
 -358 1008 -356 999 -350 993 c 1
 -344 979 -330 973 -310 973 c 0
EndSplineSet
EndChar
StartChar: uni0E32
Encoding: 210 3634 179
OldEncoding: 3634
Width: 642
Flags: HW
HStem: -1 21G<295.425 392.605> 728 72<357 382>
DStem: 480.745 572.955 577.925 568.435 295.425 -1.08496 392.605 -1.08496
Fore
62 626 m 1
 108 682 156 725 205 756 c 0
 254 785 314 800 384 800 c 0
 463 800 522 780 559 739 c 0
 581 713 591 683 591 649 c 0
 591 625 587 598 578 568 c 1
 393 -1 l 1
 295 -1 l 1
 481 573 l 2
 487 591 490 609 490 628 c 0
 490 652 484 672 472 688 c 1
 448 715 410 728 360 728 c 0
 314 728 271 715 231 690 c 0
 190 666 154 633 121 591 c 1
 92 610 l 1
 62 626 l 1
EndSplineSet
MinimumDistance: x5,-1 
EndChar
StartChar: uni0E33
Encoding: 211 3635 180
OldEncoding: 3635
Width: 661
Flags: HW
HStem: -25 21G<248.125 345.305> 704 72<305 337> 907 63<-86 -66> 1128 62<-16.2949 5.1748>
VStem: 44 68<1076.88 1099.47> 445 99<604.535 624.875>
DStem: 432.315 549.165 529.495 544.645 248.125 -24.875 345.305 -24.875
Fore
-85 907 m 4
 -129 907 -159 921 -176 949 c 0
 -185 966 -189 983 -189 1000 c 0
 -189 1018 -186 1034 -180 1049 c 1
 -168 1089 -146 1122 -113 1148 c 0
 -79 1176 -39 1190 5 1190 c 0
 50 1190 81 1176 97 1148 c 1
 106 1135 112 1119 112 1099 c 0
 112 1083 108 1066 102 1049 c 0
 88 1009 64 976 30 949 c 0
 -6 921 -45 907 -85 907 c 4
14 602 m 1
 62 660 110 703 160 732 c 0
 208 762 267 776 335 776 c 0
 414 776 473 756 511 715 c 1
 533 690 544 660 544 625 c 0
 544 600 539 573 529 545 c 1
 345 -25 l 1
 248 -25 l 1
 432 549 l 1
 441 570 445 589 445 605 c 0
 445 629 438 649 423 664 c 0
 401 691 365 704 315 704 c 0
 267 704 223 692 183 667 c 0
 143 643 107 610 74 567 c 1
 44 586 l 1
 14 602 l 1
-16 1128 m 0
 -43 1128 -63 1120 -78 1104 c 1
 -97 1090 -110 1071 -118 1049 c 1
 -120 1022 l 1
 -116 993 l 1
 -109 978 -93 970 -67 970 c 0
 -51 970 -36 974 -21 982 c 0
 -8 987 5 997 19 1012 c 0
 26 1022 33 1034 39 1049 c 1
 44 1077 l 1
 44 1086 41 1095 37 1104 c 0
 29 1120 11 1128 -16 1128 c 0
EndSplineSet
MinimumDistance: x14,-1 
EndChar
StartChar: uni0E34
Encoding: 212 3636 181
OldEncoding: 3636
Width: 0
Flags: HW
DStem: -307.315 989.115 -307.315 989.115 -397.715 986.855 -228.215 986.855
Fore
-168 1170 m 1
 -69 1156 -9 1117 11 1051 c 0
 27 1006 35 955 35 899 c 1
 33 841 l 1
 -76 881 l 1
 -113 893 -168 904 -238 913 c 0
 -278 918 -320 920 -363 920 c 2
 -502 916 l 1
 -592 903 l 1
 -570 948 -536 992 -490 1035 c 0
 -445 1078 -396 1111 -342 1133 c 1
 -290 1157 -232 1170 -168 1170 c 1
-210 1098 m 1
 -258 1098 -305 1086 -351 1061 c 1
 -402 1033 -433 1006 -446 982 c 1
 -398 987 l 1
 -307 989 l 1
 -228 987 l 1
 -170 982 -127 973 -97 960 c 0
 -72 950 -53 940 -40 929 c 1
 -51 1026 -108 1082 -210 1098 c 1
EndSplineSet
EndChar
StartChar: uni0E35
Encoding: 213 3637 182
OldEncoding: 3637
Width: 0
Flags: HW
HStem: 915 67<-406.799 -321.544>
DStem: -315.295 983.785 -315.295 983.785 -406.825 981.525 -236.195 981.525 46.3047 1257.25 132.185 1257.25 -13.585 1074.19 28.2246 935.195
Fore
-14 1074 m 1
 46 1257 l 5
 132 1257 l 1
 28 935 l 1
 28 935 l 1
 30 910 l 1
 30 892 28 867 24 836 c 1
 -9 849 -44 862 -84 875 c 0
 -121 887 -175 898 -245 908 c 0
 -284 913 -327 915 -373 915 c 0
 -436 915 -483 913 -512 910 c 0
 -500 911 -530 907 -601 898 c 1
 -579 942 -545 986 -499 1030 c 0
 -457 1071 -406 1104 -349 1130 c 0
 -295 1153 -238 1165 -179 1165 c 1
 -142 1160 -112 1151 -88 1136 c 1
 -68 1127 -50 1115 -35 1100 c 0
 -24 1089 -17 1080 -14 1074 c 1
-220 1092 m 1
 -253 1092 -285 1086 -318 1074 c 0
 -353 1061 -380 1047 -400 1030 c 1
 -424 1016 -443 998 -455 977 c 1
 -407 982 l 1
 -315 984 l 1
 -236 982 l 1
 -179 977 -135 968 -104 954 c 0
 -75 942 -57 932 -49 924 c 1
 -51 964 -64 1000 -88 1032 c 0
 -111 1066 -155 1085 -220 1092 c 1
EndSplineSet
EndChar
StartChar: uni0E36
Encoding: 214 3638 183
OldEncoding: 3638
Width: 0
Flags: HW
DStem: -301.945 983.005 -301.945 983.005 -391.215 980.745 -222.845 980.745
Fore
150 1146 m 1
 139 1116 122 1089 99 1067 c 0
 74 1043 48 1029 22 1025 c 1
 25 1018 32 994 42 951 c 1
 44 905 l 1
 44 882 41 859 36 835 c 1
 8 847 -27 860 -70 875 c 0
 -108 887 -162 898 -232 907 c 0
 -272 912 -314 914 -360 914 c 2
 -496 910 l 1
 -586 897 l 1
 -564 944 -530 989 -485 1033 c 2
 -484 1034 l 1
 -482 1036 l 2
 -437 1078 -389 1111 -338 1133 c 1
 -291 1157 -245 1168 -201 1168 c 1
 -153 1164 l 1
 -117 1155 l 1
 -100 1148 l 1
 -90 1179 -69 1206 -38 1230 c 1
 -7 1257 27 1270 62 1270 c 0
 102 1270 129 1258 143 1235 c 0
 151 1220 155 1204 155 1186 c 1
 150 1146 l 1
46 1208 m 0
 24 1208 7 1202 -5 1191 c 1
 -21 1180 -31 1167 -35 1150 c 1
 -35 1133 l 1
 -31 1111 l 1
 -23 1098 -10 1091 9 1091 c 0
 25 1091 40 1098 55 1111 c 0
 69 1122 78 1135 82 1150 c 0
 86 1158 88 1165 88 1171 c 0
 88 1177 86 1183 82 1191 c 0
 76 1202 64 1208 46 1208 c 0
-207 1091 m 1
 -239 1091 -272 1085 -304 1073 c 0
 -340 1061 -367 1046 -387 1029 c 1
 -409 1014 -427 997 -440 976 c 1
 -391 981 l 1
 -302 983 l 1
 -223 981 l 1
 -165 976 -121 967 -91 954 c 0
 -59 940 -40 930 -33 923 c 1
 -35 962 -49 997 -75 1029 c 1
 -97 1062 -141 1082 -207 1091 c 1
EndSplineSet
EndChar
StartChar: uni0E37
Encoding: 215 3639 184
OldEncoding: 3639
Width: 0
Flags: HW
HStem: 915 67<-406.799 -319.805>
DStem: -315.295 983.785 -315.295 983.785 -406.825 981.525 -236.195 981.525 -129.975 1257.25 -41.835 1257.25 -159.355 1162.33 -81.3848 1134.08 46.3047 1257.25 132.185 1257.25 -13.585 1071.92 28.2246 932.935
Fore
28 933 m 1
 30 933 30 928 30 919 c 1
 24 836 l 1
 -9 849 -44 862 -84 875 c 0
 -121 887 -175 898 -245 908 c 0
 -284 913 -327 915 -373 915 c 0
 -436 915 -483 913 -512 910 c 0
 -500 911 -530 907 -601 898 c 1
 -580 945 -545 991 -497 1035 c 0
 -448 1079 -400 1111 -354 1132 c 1
 -303 1157 -255 1169 -208 1169 c 0
 -191 1169 -174 1167 -159 1162 c 1
 -130 1257 l 1
 -42 1257 l 1
 -81 1134 l 1
 -50 1121 -28 1100 -14 1072 c 1
 46 1257 l 1
 132 1257 l 1
 28 933 l 1
-220 1092 m 1
 -270 1092 -317 1080 -360 1056 c 0
 -409 1031 -441 1005 -455 977 c 1
 -407 982 l 1
 -315 984 l 1
 -236 982 l 1
 -179 977 -135 968 -104 954 c 0
 -75 942 -57 932 -49 924 c 1
 -60 1020 -117 1076 -220 1092 c 1
EndSplineSet
EndChar
StartChar: uni0E38
Encoding: 216 3640 185
OldEncoding: 3640
Width: 0
Flags: W
HStem: -316 72<-491 -460> -104 72<-416 -394>
VStem: -590 75<-223 -195> -363 73<-149 -122>
DStem: -440 -309 -299 -170 -504 -513 -407 -513
Fore
-407 -513 m 1
 -504 -513 l 1
 -440 -309 l 1
 -456 -314 -473 -316 -491 -316 c 0
 -533 -316 -562 -302 -579 -274 c 1
 -587 -257 -590 -240 -590 -223 c 0
 -590 -205 -587 -189 -581 -175 c 0
 -569 -137 -546 -103 -511 -73 c 0
 -478 -45 -439 -32 -394 -32 c 4
 -352 -32 -323 -44 -306 -69 c 0
 -295 -81 -290 -99 -290 -122 c 0
 -290 -138 -293 -154 -299 -170 c 1
 -407 -513 l 1
-460 -244 m 0
 -440 -244 -421 -237 -403 -223 c 0
 -386 -211 -374 -195 -368 -175 c 1
 -363 -149 l 1
 -363 -139 -365 -131 -370 -124 c 0
 -378 -110 -394 -104 -416 -104 c 0
 -440 -104 -461 -111 -480 -126 c 0
 -496 -141 -507 -157 -511 -175 c 1
 -515 -195 l 1
 -515 -207 -513 -217 -509 -223 c 0
 -500 -237 -484 -244 -460 -244 c 0
EndSplineSet
EndChar
StartChar: uni0E39
Encoding: 217 3641 186
OldEncoding: 3641
Width: 0
Flags: W
HStem: -534 78<-571 -548> -317 72<-705 -680> -104 72<-634 -610>
VStem: -807 76<-220 -198> -692 102<-437 -416> -579 73<-153 -123>
DStem: -654 -310 -513 -171 -685 -398 -588 -398 -354 -41 -254 -41 -467 -398 -369 -398
Fore
-685 -398 m 2
 -654 -310 l 1
 -672 -315 -689 -317 -705 -317 c 0
 -749 -317 -778 -302 -793 -273 c 0
 -802 -257 -807 -239 -807 -220 c 0
 -807 -203 -804 -188 -798 -173 c 1
 -787 -139 -764 -106 -729 -74 c 1
 -694 -46 -655 -32 -610 -32 c 0
 -569 -32 -540 -45 -522 -69 c 0
 -511 -82 -506 -100 -506 -123 c 0
 -506 -143 -508 -159 -513 -171 c 1
 -588 -398 l 1
 -590 -416 l 1
 -590 -425 -588 -432 -583 -439 c 0
 -577 -450 -565 -456 -548 -456 c 0
 -528 -456 -511 -450 -499 -439 c 1
 -484 -428 -473 -415 -467 -398 c 1
 -354 -41 l 1
 -254 -41 l 5
 -369 -398 l 1
 -385 -440 -411 -473 -449 -498 c 0
 -487 -522 -528 -534 -571 -534 c 0
 -612 -534 -644 -521 -668 -495 c 0
 -684 -480 -692 -460 -692 -437 c 0
 -692 -425 -689 -412 -685 -398 c 2
-680 -245 m 0
 -656 -245 -636 -238 -619 -224 c 0
 -602 -209 -590 -193 -583 -176 c 1
 -579 -153 l 1
 -579 -142 -582 -133 -588 -127 c 1
 -594 -112 -610 -104 -634 -104 c 0
 -658 -104 -678 -111 -694 -125 c 0
 -711 -140 -722 -157 -727 -176 c 1
 -731 -198 l 1
 -731 -209 -729 -217 -724 -224 c 0
 -716 -238 -701 -245 -680 -245 c 0
EndSplineSet
EndChar
StartChar: uni0E3A
Encoding: 218 3642 187
OldEncoding: 3642
Width: 0
Flags: HW
Fore
-340 -74 m 0
 -316 -74 -301 -80 -294 -94 c 1
 -289 -120 l 1
 -294 -148 l 1
 -300 -165 -311 -182 -329 -199 c 1
 -345 -213 -365 -219 -389 -219 c 0
 -413 -219 -428 -213 -435 -199 c 0
 -440 -188 -442 -179 -442 -171 c 1
 -437 -148 l 1
 -433 -130 -421 -113 -402 -96 c 0
 -387 -83 -366 -76 -340 -74 c 0
EndSplineSet
EndChar
StartChar: dottedcircle
Encoding: 221 9676 188
OldEncoding: 65536
Width: 1269
VWidth: 1000
Flags: HW
HStem: 6 50<578.378 589.006> 56 50<389.006 399.634> 70 50<763.981 774.609> 178 50<281 293.565> 194 50<899 910.967> 368 50<984 995.951> 377 50<275 286.864> 548 50<975.584 986.212> 556 50<373.284 383.912> 668 50<874 885.719> 678 50<535.217 545.844> 724 50<727 739.622>
VStem: 257 50<401 403> 263 51<202 204> 353 51<580 582> 369 51<80 82> 516 50<702 704> 558 51<30 32> 709 51<748 750> 744 51<94 96> 855 51<692 694> 880 51<218 220> 955 51<572 574> 965 51<392 394>
Fore
368 603 m 2
530 725 m 2
384 103 m 2
278 225 m 2
759 117 m 2
895 241 m 2
970 595 m 2
870 715 m 2
980 415 m 2
271 424 m 2
724 771 m 2
384 606 m 0
 396 606 404 598 404 586 c 0
 404 585 404 583 404 581 c 0
 401 567 387 556 373 556 c 0
 361 556 353 564 353 576 c 0
 353 577 353 579 354 581 c 0
 357 595 370 606 384 606 c 0
546 728 m 0
 558 728 566 720 566 708 c 0
 566 707 566 705 566 703 c 0
 563 689 549 678 535 678 c 0
 523 678 515 686 515 698 c 0
 515 699 515 701 516 703 c 0
 518 717 532 728 546 728 c 0
400 106 m 0
 412 106 420 98 420 86 c 0
 420 85 420 83 419 81 c 0
 416 67 403 56 389 56 c 0
 377 56 369 64 369 76 c 0
 369 77 369 79 369 81 c 0
 372 95 386 106 400 106 c 0
294 228 m 0
 306 228 314 220 314 208 c 0
 314 207 314 205 313 203 c 0
 310 189 297 178 283 178 c 0
 271 178 263 186 263 198 c 0
 263 199 263 201 263 203 c 0
 266 217 280 228 294 228 c 0
775 120 m 0
 787 120 795 112 795 100 c 0
 795 99 795 97 794 95 c 0
 791 81 778 70 764 70 c 0
 752 70 744 78 744 90 c 0
 744 91 744 93 744 95 c 0
 747 109 761 120 775 120 c 0
911 244 m 0
 923 244 931 236 931 224 c 0
 931 223 931 221 931 219 c 0
 928 205 914 194 900 194 c 0
 888 194 880 202 880 214 c 0
 880 215 880 217 881 219 c 0
 884 233 897 244 911 244 c 0
986 598 m 0
 998 598 1006 590 1006 578 c 0
 1006 577 1006 575 1006 573 c 0
 1003 559 989 548 976 548 c 0
 964 548 955 556 955 568 c 0
 955 569 956 571 956 573 c 0
 959 587 972 598 986 598 c 0
886 718 m 0
 898 718 906 710 906 698 c 0
 906 697 906 695 905 693 c 0
 902 679 889 668 875 668 c 0
 863 668 855 676 855 688 c 0
 855 689 855 691 855 693 c 0
 858 707 872 718 886 718 c 0
996 418 m 0
 1008 418 1016 410 1016 398 c 0
 1016 397 1016 395 1016 393 c 0
 1013 379 999 368 985 368 c 0
 973 368 965 376 965 388 c 0
 965 389 965 391 966 393 c 0
 969 407 982 418 996 418 c 0
287 427 m 0
 299 427 307 419 307 407 c 0
 307 406 307 404 307 402 c 0
 304 388 290 377 276 377 c 0
 264 377 256 385 256 397 c 0
 256 398 256 400 257 402 c 0
 259 416 273 427 287 427 c 0
589 56 m 0
 601 56 609 48 609 36 c 0
 609 35 609 33 609 31 c 0
 606 17 592 6 578 6 c 0
 566 6 558 14 558 26 c 0
 558 27 558 29 559 31 c 0
 562 45 575 56 589 56 c 0
740 774 m 0
 752 774 760 766 760 754 c 0
 760 753 760 751 759 749 c 0
 756 735 743 724 729 724 c 0
 717 724 709 732 709 744 c 0
 709 745 709 747 709 749 c 0
 712 763 726 774 740 774 c 0
EndSplineSet
MinimumDistance: x61,-1 
EndChar
StartChar: uni0E3F
Encoding: 223 3647 189
OldEncoding: 3647
Width: 886
Flags: HW
HStem: -21 20G<150.7 358.62> -1 86<261 343 469 551> 388 87<337 439 545.07 568> 754 85<393 519 629 631> 754 185<603.915 632.389>
VStem: 720 85<281 295> 760 92<646.91 678.55>
DStem: 328.11 839.01 394.78 754.26 150.7 -0.580078 336.02 475.15 328.11 839.01 317.94 388.14 150.7 -0.580078 253.53 85.2998 358.62 -0.580078 444.5 -0.580078 336.02 -113.58 420.77 -113.58 441.11 388.14 526.99 388.14 376.7 85.2998 462.58 85.2998 519.08 754.26 603.83 754.26 460.32 475.15 545.07 475.15 558.63 939.58 643.38 939.58 537.16 839.01 621.91 839.01
Fore
460 475 m 1
 519 754 l 1
 395 754 l 1
 336 475 l 1
 460 475 l 1
377 85 m 1
 441 388 l 1
 318 388 l 1
 254 85 l 1
 377 85 l 1
527 388 m 1
 463 85 l 1
 530 85 l 2
 632 85 694 137 716 240 c 1
 720 282 l 1
 720 353 660 388 538 388 c 2
 527 388 l 1
604 754 m 1
 545 475 l 1
 567 475 l 2
 611 475 650 486 684 509 c 0
 722 533 746 566 755 607 c 1
 760 647 l 1
 760 718 708 754 604 754 c 1
559 939 m 1
 643 939 l 1
 622 839 l 1
 680 839 l 2
 728 839 768 824 802 795 c 0
 835 765 852 726 852 679 c 0
 852 663 850 646 847 628 c 0
 829 546 776 485 687 445 c 1
 734 419 l 2
 780 392 804 350 805 293 c 0
 805 275 802 256 797 234 c 0
 782 161 744 100 682 54 c 0
 635 18 591 -1 548 -1 c 2
 444 -1 l 1
 421 -114 l 1
 336 -114 l 1
 359 -1 l 1
 151 -1 l 1
 328 839 l 1
 537 839 l 1
 559 939 l 1
EndSplineSet
MinimumDistance: x25,-1 
EndChar
StartChar: uni0E40
Encoding: 224 3648 190
OldEncoding: 3648
Width: 439
Flags: HW
HStem: -13 71<119 143.36> 199 72<188 215.68> 767 20G<236.02 333.2>
VStem: 17 76<76 106.76> 241 75<149 179.08>
DStem: 236.02 787.02 333.2 787.02 23.5801 125.97 164.83 263.83
Fore
236 787 m 1
 333 787 l 1
 165 264 l 1
 178 269 195 271 216 271 c 0
 259 271 289 258 306 230 c 1
 312 215 316 198 316 179 c 0
 316 163 313 146 308 128 c 0
 297 90 274 57 238 29 c 0
 205 1 166 -13 121 -13 c 0
 78 -13 48 -1 30 23 c 0
 21 38 17 56 17 77 c 0
 17 97 19 113 24 126 c 1
 236 787 l 1
190 199 m 0
 169 199 149 193 130 179 c 1
 114 165 102 149 95 130 c 1
 93 107 l 1
 93 98 94 89 97 80 c 1
 107 65 122 58 143 58 c 0
 167 58 188 65 204 80 c 0
 221 94 232 111 238 130 c 1
 241 151 l 1
 241 163 238 172 234 179 c 0
 227 193 212 199 190 199 c 0
EndSplineSet
MinimumDistance: x1,-1 
EndChar
StartChar: uni0E41
Encoding: 225 3649 191
OldEncoding: 3649
Width: 790
Flags: HW
HStem: -13 71<98 121.91 469.95 492.55> 199 72<167 194.23 536.62 564.87> 767 20G<214.57 314.01 587.47 684.65>
VStem: -5 76<76 106.76> 222 73<150.83 179.08> 365 75<79.6396 106.76> 592 75<150.83 176.82>
DStem: 214.57 787.02 314.01 787.02 2.12988 125.97 145.64 263.83 587.47 787.02 684.65 787.02 372.77 125.97 516.28 263.83
Fore
215 787 m 1
 314 787 l 1
 146 264 l 1
 156 269 172 271 194 271 c 0
 237 271 267 258 285 230 c 1
 292 211 295 194 295 179 c 0
 295 163 294 146 289 128 c 1
 276 89 251 56 217 29 c 0
 184 1 145 -13 99 -13 c 0
 56 -13 26 -1 9 23 c 0
 -0 38 -5 56 -5 77 c 0
 -5 97 -2 113 2 126 c 1
 215 787 l 1
587 787 m 1
 685 787 l 1
 516 264 l 1
 529 269 545 271 565 271 c 0
 608 271 638 258 654 230 c 1
 662 212 667 194 667 177 c 0
 667 160 664 144 660 128 c 0
 648 91 624 59 587 31 c 1
 554 2 514 -13 470 -13 c 0
 428 -13 399 -1 384 23 c 0
 371 43 365 62 365 80 c 0
 365 91 367 106 373 126 c 1
 587 787 l 1
537 199 m 0
 516 199 497 193 481 179 c 0
 463 162 451 146 444 130 c 1
 440 107 l 1
 440 97 442 89 446 82 c 0
 455 66 470 58 493 58 c 0
 517 58 538 66 555 82 c 1
 571 95 583 112 590 130 c 1
 592 151 l 1
 592 161 590 170 585 179 c 0
 576 193 560 199 537 199 c 0
168 199 m 0
 147 199 127 193 108 179 c 1
 93 165 81 149 73 130 c 1
 71 107 l 1
 71 98 73 89 76 80 c 1
 85 65 101 58 122 58 c 0
 146 58 166 65 183 80 c 0
 200 94 211 111 217 130 c 2
 222 151 l 1
 222 163 219 172 212 179 c 1
 206 193 191 199 168 199 c 0
EndSplineSet
MinimumDistance: x13,-1 
EndChar
StartChar: uni0E42
Encoding: 226 3650 192
OldEncoding: 3650
Width: 456
Flags: HW
HStem: -50 71<58.8154 82.5449> 162 72<127 153.735> 1257 81<537.935 563.925> 1315 81<344 371.825>
VStem: -45 76<44.7197 69.5801> 182 73<113.65 141.9>
DStem: 266.735 1030.08 363.915 1034.6 -38.3652 88.79 105.145 226.65
Fore
-38 89 m 1
 267 1030 l 1
 280 1066 286 1094 286 1114 c 2
 286 1123 l 1
 284 1139 269 1158 242 1180 c 0
 221 1198 169 1228 87 1271 c 1
 113 1294 153 1320 205 1350 c 0
 260 1381 316 1396 372 1396 c 0
 404 1396 440 1387 478 1368 c 0
 516 1348 545 1338 564 1338 c 0
 590 1338 619 1348 651 1368 c 1
 670 1301 l 1
 623 1272 579 1257 538 1257 c 0
 513 1257 481 1267 441 1287 c 0
 402 1305 371 1315 346 1315 c 0
 323 1315 302 1311 281 1304 c 0
 263 1296 251 1290 244 1284 c 1
 289 1256 325 1233 350 1215 c 1
 368 1200 379 1180 383 1153 c 1
 385 1134 l 1
 385 1106 378 1073 364 1035 c 1
 105 227 l 1
 116 232 132 234 154 234 c 0
 197 234 228 221 244 193 c 1
 252 174 255 157 255 142 c 0
 255 126 253 109 249 91 c 1
 235 52 211 19 177 -8 c 0
 143 -36 103 -50 59 -50 c 0
 21 -50 -8 -38 -29 -14 c 1
 -40 2 -45 21 -45 45 c 0
 -45 57 -43 71 -38 89 c 1
129 162 m 0
 108 162 87 155 68 142 c 1
 52 127 41 111 34 93 c 0
 32 89 31 81 31 70 c 0
 31 63 32 54 36 42 c 1
 45 28 61 21 83 21 c 0
 106 21 126 28 142 42 c 0
 158 56 170 73 177 93 c 1
 182 114 l 1
 182 126 179 136 172 142 c 1
 165 155 151 162 129 162 c 0
EndSplineSet
MinimumDistance: x20,-1 
EndChar
StartChar: uni0E43
Encoding: 227 3651 193
OldEncoding: 3651
Width: 469
Flags: HW
HStem: -50 71<71 95.8701> 162 72<141 167.06> 1054 55<135 153>
VStem: -32 76<44.46 69.3203> 195 73<113.39 141.64> 355 97<1273 1291>
DStem: 343.34 1219.66 440.52 1217.4 -25.04 88.5303 118.47 226.39
Fore
-25 89 m 1
 343 1220 l 1
 351 1246 355 1265 355 1277 c 0
 355 1314 334 1333 292 1333 c 0
 263 1333 240 1326 222 1312 c 1
 213 1303 202 1290 191 1275 c 1
 231 1275 259 1264 276 1243 c 0
 285 1230 290 1216 290 1202 c 0
 290 1187 288 1175 282 1164 c 1
 272 1133 252 1106 222 1083 c 0
 196 1063 167 1054 137 1054 c 0
 111 1054 90 1060 74 1074 c 0
 62 1086 56 1103 56 1125 c 2
 56 1132 l 2
 56 1156 61 1180 70 1206 c 1
 86 1261 116 1307 160 1345 c 0
 205 1382 256 1400 311 1400 c 0
 366 1400 407 1385 431 1354 c 0
 445 1335 452 1314 452 1290 c 0
 452 1263 448 1239 441 1217 c 1
 118 226 l 1
 129 232 145 234 167 234 c 0
 211 234 241 220 257 192 c 1
 265 174 268 157 268 142 c 0
 268 126 266 109 262 91 c 1
 248 52 225 18 191 -9 c 0
 156 -37 117 -50 72 -50 c 0
 34 -50 5 -38 -16 -14 c 1
 -27 2 -32 21 -32 44 c 0
 -32 57 -30 71 -25 89 c 1
187 1220 m 0
 169 1220 155 1214 144 1204 c 0
 129 1191 120 1178 116 1164 c 1
 114 1146 l 1
 118 1125 l 1
 123 1114 135 1109 154 1109 c 0
 171 1109 186 1114 200 1125 c 1
 212 1137 221 1150 227 1164 c 1
 229 1182 l 1
 225 1204 l 1
 219 1214 206 1220 187 1220 c 0
142 162 m 0
 121 162 101 155 81 142 c 1
 65 127 54 110 47 93 c 0
 45 89 44 81 44 69 c 0
 44 63 46 54 50 42 c 1
 59 28 74 21 96 21 c 0
 119 21 139 28 156 42 c 0
 172 56 183 73 191 93 c 1
 195 113 l 1
 195 126 192 136 185 142 c 1
 178 155 164 162 142 162 c 0
EndSplineSet
MinimumDistance: x18,-1 
EndChar
StartChar: uni0E44
Encoding: 228 3652 194
OldEncoding: 3652
Width: 540
Flags: HW
HStem: -50 71<141 165> 162 72<210 240.02>
DStem: 140.58 1289.72 214.03 1314.58 123.63 1004.96 195.95 1049.03 353.02 1319.1 417.43 1296.5 195.95 1049.03 237.76 1000.44 436.64 1289.72 536.08 1296.5 47.9199 88.5303 189.17 226.39
Fore
48 89 m 1
 437 1290 l 1
 439 1303 l 1
 439 1306 437 1308 434 1308 c 0
 429 1308 423 1304 417 1296 c 1
 238 1000 l 1
 212 961 186 942 159 942 c 0
 134 942 121 958 121 990 c 1
 124 1005 l 1
 141 1290 l 1
 141 1299 l 2
 141 1324 132 1341 115 1347 c 1
 180 1400 l 1
 203 1391 214 1367 214 1328 c 2
 214 1315 l 1
 196 1049 l 1
 353 1319 l 1
 384 1370 425 1396 476 1396 c 0
 505 1396 525 1387 536 1370 c 0
 541 1363 543 1353 543 1341 c 0
 543 1327 541 1312 536 1296 c 1
 189 226 l 1
 202 232 219 234 240 234 c 0
 283 234 313 220 330 192 c 1
 338 174 342 157 342 144 c 0
 342 124 339 107 333 93 c 1
 320 51 297 17 263 -9 c 1
 229 -37 190 -50 143 -50 c 0
 101 -50 72 -38 57 -14 c 1
 46 -1 41 17 41 40 c 0
 41 60 43 76 48 89 c 1
212 162 m 0
 189 162 170 155 154 142 c 0
 136 124 124 108 117 93 c 1
 115 72 l 1
 115 60 117 51 121 44 c 1
 127 29 142 21 165 21 c 0
 190 21 210 28 225 42 c 0
 242 56 254 73 260 93 c 1
 263 113 l 1
 263 125 260 135 256 142 c 0
 249 155 234 162 212 162 c 0
EndSplineSet
MinimumDistance: x18,-1 
EndChar
